<svg xmlns="http://www.w3.org/2000/svg" aria-hidden="true" role="img" viewBox="0 0 1045.8184 1232.255">
	<g transform="matrix(0.55966414,0,0,0.55966414,-785.08751,1125.4569)" style="fill:currentColor;">
		<g transform="matrix(0.1,0,0,-0.1,0,512)" style="fill:currentColor;">
			<path style="fill:currentColor;fill-rule:evenodd;" d="m 22569.696,15425.7 c -1154.7,-118.9 -2188.4,-607.9 -2999.7,-1419.3 -778.8,-778.7 -1242.9,-1728.1 -1406,-2865.5 -32.6,-226.3 -32.6,-982 0,-1208.3005 163,-1137.4003 629.1,-2086.8001 1405.9,-2865.5001 776.8,-776.8 1730,-1244.8 2865.5,-1405.9 226.3,-32.6 982,-32.6 1208.3,0 939.8,134.3 1779.9,491 2474.2,1053 987.8,797.9 1611.1,1916.1 1797.2,3218.4001 32.6,226.3005 32.6,982.0005 0,1208.3005 -161.1,1135.5 -629.1,2088.7 -1405.9,2865.5 -759.5,759.5 -1687.8,1223.7 -2779.2,1392.5 -241.6,36.4 -914.8,53.7 -1160.3,26.8 z m 1471.1,-1739.6 63.3,-61.4 9.6,-939.8 9.6,-939.8 63.3,-61.4 61.4,-63.3 939.8,-9.6 939.8,-9.6 61.4,-63.3 63.3,-61.4 v -939.7 -939.8008 l -63.3,-61.4 -61.4,-63.3 -939.8,-9.6 -939.8,-9.6 -61.4,-63.3 -63.3,-61.4 -9.6,-939.7998 -9.6,-939.8 -63.3,-61.4 -61.4,-63.3 h -939.8 -939.8 l -61.4,63.3 -63.3,61.4 -9.6,939.8 -9.6,939.7998 -63.3,61.4 -61.4,63.3 -939.8,9.6 -939.8,9.6 -61.4,63.3 -63.3,61.4 v 939.8008 939.8 l 63.3,61.4 61.4,63.3 939.8,9.6 939.8,9.6 61.4,63.3 63.3,61.4 9.6,937.9 9.6,937.9 47.9,51.8 c 26.9,28.8 65.2,59.5 86.3,69.1 21.1,7.7 450.7,13.4 953.3,11.5 l 916.8,-3.8 z m -4648.208,11543.406 a 3059.893,2953.9225 0 0 1 -3059.871,-2953.92 3059.893,2953.9225 0 0 1 1454.032,-2510.121 5470.7171,5258.7768 0 0 1 -76.427,-837.207 5470.7171,5258.7768 0 0 1 1472.633,-3583.238 6821.8382,5974.0763 0 0 1 -434.203,-303.126 3020.1538,2927.4298 0 0 1 -1700.762,508.571 3020.1538,2927.4298 0 0 1 -3020.157,-2927.432 3020.1538,2927.4298 0 0 1 2424.026,-2869.6418 6821.8382,5974.0763 0 0 1 100.402,-501.347 2890.7148,3732.6363 45.484315 0 1 -116.211,-112.372 2890.7148,3732.6363 45.484315 0 1 777.462,-4693 2890.7148,3732.6363 45.484315 0 1 4666.756,-412.8798 2890.7148,3732.6363 45.484315 0 1 382.415,587.0217 6821.8382,5974.0763 0 0 1 944.832,-64.771 6821.8382,5974.0763 0 0 1 628.516,30.5005 3739.4122,2895.7162 44.110238 0 1 388.417,-596.4792 3739.4122,2895.7162 44.110238 0 1 4683.298,412.8816 3739.4122,2895.7162 44.110238 0 1 878.911,4574.3102 6821.8382,5974.0763 0 0 1 198.5,897.8953 3059.8927,2927.4302 0 0 1 2729.211,2906.8425 3059.8927,2927.4302 0 0 1 -3059.906,2927.433 3059.8927,2927.4302 0 0 1 -1961.381,-684.179 6821.8382,5974.0763 0 0 1 -494.716,343.014 5470.7171,5258.7768 0 0 1 1453.403,3559.996 5470.7171,5258.7768 0 0 1 -48.892,650.537 3059.893,2953.9225 0 0 1 1651.66,2621.306 3059.893,2953.9225 0 0 1 -3059.871,2953.92 3059.893,2953.9225 0 0 1 -2449.083,-1189.05 5470.7171,5258.7768 0 0 1 -1564.554,222.092 5470.7171,5258.7768 0 0 1 -1327.108,-162.242 3059.893,2953.9225 0 0 1 -2461.332,1204.685 z"/>
		</g>
	</g>
</svg>
