<svg xmlns="http://www.w3.org/2000/svg" width="1045.811" height="1232.25" viewBox="0 0 1045.811 1232.25">
  <g id="icon" transform="translate(-785.081 1125.449)">
    <g id="Group_1" data-name="Group 1" transform="translate(0 286.546)">
      <path id="Path_1" data-name="Path 1" d="M1263.136-863.315c-64.624,6.654-122.476,34.022-167.881,79.433-43.586,43.581-69.56,96.715-78.688,160.371-1.825,12.665-1.825,54.959,0,67.624,9.122,63.656,35.208,116.79,78.683,160.371q65.212,65.212,160.371,78.683c12.665,1.824,54.959,1.824,67.624,0,52.6-7.516,99.614-27.479,138.471-58.932C1517-420.422,1551.881-483,1562.3-555.888c1.824-12.665,1.824-54.959,0-67.624q-13.524-95.324-78.682-160.371-63.76-63.759-155.541-77.933C1314.552-863.852,1276.875-864.82,1263.136-863.315Zm82.332,97.358,3.543,3.436.537,52.6.537,52.6,3.543,3.436,3.436,3.543,52.6.537,52.6.537,3.436,3.543,3.543,3.436v105.188l-3.543,3.436-3.436,3.543-52.6.537-52.6.537-3.436,3.543-3.543,3.436-.537,52.6-.537,52.6-3.543,3.436-3.436,3.543H1236.837l-3.436-3.543-3.543-3.436-.537-52.6-.537-52.6-3.543-3.436-3.436-3.543-52.6-.537-52.6-.537-3.436-3.543-3.543-3.436V-642.3l3.543-3.436,3.436-3.543,52.6-.537,52.6-.537,3.436-3.543,3.543-3.436.537-52.491.537-52.491,2.681-2.9a19.935,19.935,0,0,1,4.83-3.867c1.181-.431,25.224-.75,53.352-.644l51.31.213Zm-260.142-646.038c-94.577,0-171.248,74.015-171.249,165.318.086,57.274,30.874,110.425,81.376,140.483a283.215,283.215,0,0,0-4.278,46.855c.093,74.462,29.543,146.122,82.418,200.54q-12.54,8.046-24.3,16.965A172.813,172.813,0,0,0,954.108-870.3c-93.351,0-169.027,73.352-169.026,163.837,0,78,56.751,145.2,135.652,160.6q2.131,14.129,5.631,28.061-3.366,3.028-6.5,6.289c-60.108,66.147-40.628,183.739,43.511,262.648s201.073,89.255,261.18,23.107a128.584,128.584,0,0,0,21.4-32.853,434.913,434.913,0,0,0,52.879,3.625q17.623-.142,35.175-1.707a128.6,128.6,0,0,0,21.738,33.383c60.32,66.146,177.669,55.8,262.105-23.107,81.221-75.959,102.827-188.407,49.189-256.006a297.745,297.745,0,0,0,11.109-50.252c86.827-9.03,152.641-79.126,152.743-162.684,0-90.485-76.672-163.837-171.251-163.837A175.982,175.982,0,0,0,1549.871-840.9q-13.329-10.154-27.687-19.2c52.165-54.247,81.2-125.367,81.341-199.239a283.18,283.18,0,0,0-2.736-36.408c56.766-28.407,92.411-84.978,92.437-146.7,0-91.3-76.67-165.318-171.248-165.319-54,.079-104.8,24.742-137.066,66.546a317.616,317.616,0,0,0-87.562-12.43,317.846,317.846,0,0,0-74.273,9.08c-32.217-42.321-83.347-67.347-137.751-67.421Z" fill="#f96d00" fill-rule="evenodd"/>
    </g>
  </g>
</svg>
