<svg xmlns="http://www.w3.org/2000/svg" xmlns:xlink="http://www.w3.org/1999/xlink" width="70" height="70" viewBox="0 0 70 70"><defs><clipPath id="b"><rect width="70" height="70"/></clipPath></defs><g id="a" clip-path="url(#b)"><rect width="70" height="70" fill="#101d2b"/><path d="M12.2.042a.989.989,0,0,0-.685.47C11.486.57,8.889,8.078,5.746,17.2-.6,35.6-.075,34,.16,34.252c.2.216-.04.2,4.3.2H8.427l.154-.081c.306-.161.238.016,1.3-3.414l.377-1.212H22.034l.174.549c.1.3.388,1.24.65,2.083.518,1.665.546,1.739.732,1.892.228.188.105.183,4.328.183h3.937l.154-.078a.487.487,0,0,0,.3-.414C32.335,33.757,20.919.6,20.757.4a1.143,1.143,0,0,0-.672-.354C19.818,0,12.454,0,12.2.042M36.915.056a.72.72,0,0,0-.468.437c-.083.214-.1,33.253-.015,33.485a.747.747,0,0,0,.357.41c.217.111,7.567.106,7.8,0a.777.777,0,0,0,.39-.447c.058-.193.057-33.184,0-33.377a.844.844,0,0,0-.421-.47C44.36,0,37.22-.027,36.915.056M17.923,16.615,19.65,22.13l-1.736.009c-.955,0-2.519,0-3.476,0L12.7,22.13,14.43,16.6c.952-3.043,1.739-5.525,1.749-5.515s.795,2.5,1.744,5.532M.994,40.466A1.079,1.079,0,0,0,.16,41.571c0,.6.213.843,1.139,1.3.7.345.874.49.917.774.117.783-.984,1.07-1.629.424-.2-.2-.266-.2-.426-.009s-.16.232.054.459c.762.805,2.32.572,2.579-.386C3,43.369,2.709,42.912,1.686,42.4c-.8-.4-.919-.514-.919-.844,0-.622.948-.758,1.464-.209.134.142.254.088.435-.2.06-.094.059-.095-.106-.271a1.676,1.676,0,0,0-1.566-.407m6.318.034c-.01.027.282,1.028.65,2.224L8.63,44.9l.338.01.338.01.226-.707c.124-.389.383-1.2.575-1.806a4.372,4.372,0,0,1,.374-1.034c.014.036.271.844.571,1.8L11.6,44.9h.693l.655-2.144c.36-1.179.651-2.176.646-2.214-.01-.074-.523-.128-.589-.062-.016.016-.256.8-.535,1.736s-.516,1.732-.527,1.76-.274-.732-.584-1.691-.577-1.763-.592-1.787c-.065-.1-.6-.056-.646.053-.021.053-.276.841-.568,1.752S9.01,43.969,9,43.983s-.257-.771-.545-1.743l-.525-1.768-.3-.01c-.231-.008-.3,0-.318.039m11.157-.024c-.013.013-.024,1.017-.024,2.232v2.208h2.374l-.01-.27-.01-.27-.863-.009-.863-.009V42.929h.8c.913,0,.879.012.879-.3,0-.3.016-.291-.9-.291h-.769V41.013L19.936,41l.863-.009v-.523l-1.153-.009c-.634-.005-1.164,0-1.177.015m7.421.017c-.01.026-.014,1.028-.009,2.227L25.89,44.9l.8.009a2.848,2.848,0,0,0,1.588-.245,2.363,2.363,0,0,0-.04-3.958,5.329,5.329,0,0,0-2.348-.213m8.4,0c-.009.024-.013,1.025-.008,2.223l.009,2.179,1.178.009,1.178.009-.01-.271-.01-.271-.863-.009-.863-.009V42.929h.782c.958,0,.892.022.892-.3s.066-.3-.892-.3H34.9V41.012H36.65l-.01-.27-.01-.27-1.16-.009a4.6,4.6,0,0,0-1.177.035m7.469-.02c-.013.013-.023,1.018-.023,2.233v2.21l.305-.01.305-.01.017-1.7.017-1.7.944,1.7.944,1.7.372.01.372.01L45.007,42.7,45,40.471H44.4l-.017,1.721-.017,1.721-.887-1.6c-.488-.879-.923-1.658-.968-1.73l-.081-.131h-.325a1.5,1.5,0,0,0-.348.023m-14.084.632a1.439,1.439,0,0,1,1,1.559c0,1.174-.542,1.691-1.782,1.691h-.4V41l.479.019a2.7,2.7,0,0,1,.7.088" transform="translate(12.96 12.993)" fill="#ffcf00" fill-rule="evenodd"/></g></svg>