<svg xmlns="http://www.w3.org/2000/svg" xmlns:xlink="http://www.w3.org/1999/xlink" width="70" height="70" viewBox="0 0 70 70"><defs><clipPath id="b"><rect width="70" height="70"/></clipPath></defs><g id="a" clip-path="url(#b)"><rect width="70" height="70" fill="#fcbc04"/><g transform="translate(2 2)"><path d="M3.636,0H44.545a3.636,3.636,0,0,1,3.636,3.636V20.909a3.636,3.636,0,0,1-3.636,3.636H3.636A3.636,3.636,0,0,1,0,20.909V3.636A3.636,3.636,0,0,1,3.636,0Z" transform="translate(8.909 11.909)" fill="#fff"/><path d="M16.026,14.463a4.123,4.123,0,0,0-3.013,3.058c-.261.953-.248,18.942.014,19.682a4.3,4.3,0,0,0,2.888,2.94l.664.226,7.808.012c4.294.007,8.6.037,9.56.068l1.752.056-.655.953c-.36.524-2.336,3.34-4.391,6.259s-3.893,5.544-4.085,5.834l-.349.528.266.218a10.675,10.675,0,0,0,1.56,1.04c.112,0,.468-.5,4.4-6.123,1.812-2.594,3.482-4.973,3.71-5.285l.414-.568.057.477c.031.262.058,3.575.058,7.361v6.884l.558-.058c.307-.032.83-.058,1.163-.058h.605l-.041-5.926c-.038-5.56.007-7.862.154-7.862.034,0,1.735,2.353,3.778,5.228S46.763,54.8,46.938,55l.319.361.835-.558a7.969,7.969,0,0,0,.892-.651c.077-.125.1-.087-4.494-6.522-4.792-6.708-5.036-7.061-4.953-7.144.035-.035,4.439-.078,9.787-.094l9.723-.03.69-.224a4.167,4.167,0,0,0,2.934-3.162c.177-.684.214-18.371.04-19.207a4.289,4.289,0,0,0-3.255-3.332c-.677-.188-.707-.188-21.679-.181l-21,.007-.749.205m5.091,1.8a12.151,12.151,0,0,1,0,2.323l-.058.558H14.617l.053-.627a2.429,2.429,0,0,1,.74-1.663c.685-.7,1-.773,3.6-.785l2.053-.009.055.2M27.57,17.6v1.5l-2.835.024-2.835.024V16.056l2.835.024,2.835.024v1.5m9.3,0v1.542H28.456l-.058-.421a14.428,14.428,0,0,1,0-2.6c.033-.033,1.952-.06,4.263-.06h4.2V17.6m7.075,0v1.542H37.775V17.661a10.667,10.667,0,0,1,.06-1.542c.033-.033,1.421-.06,3.084-.06h3.024V17.6m9.071,0v1.542H44.669V17.661a10.67,10.67,0,0,1,.06-1.542c.033-.033,1.911-.06,4.173-.06h4.112V17.6m6.546-1.255a2.757,2.757,0,0,1,1.49,2.57l-.057.227H53.831V16.059h5.19l.539.287M21.049,19.984a20.354,20.354,0,0,1,.089,3.182l-.062.331H14.644V21.841a12.608,12.608,0,0,1,.071-1.765,39,39,0,0,1,6.332-.092m6.068-.04.454.06.025,1.746.025,1.746H21.9l.025-1.742.025-1.742.227-.063c.29-.081,4.343-.085,4.944-.005m9.711.035a13.589,13.589,0,0,1,.111,1.792l.045,1.726H28.453l-.055-.2a17.412,17.412,0,0,1,0-2.774l.058-.555,1.28-.031c2.192-.054,7.022-.022,7.091.047m7.03.028a9.281,9.281,0,0,1,.086,1.771V23.5H37.775V19.97l.385-.042c.527-.057,5.59.014,5.7.08m8.839-.06.272.058.025,1.745.025,1.745H44.669V22.2c0-.711.026-1.505.057-1.765l.057-.472.555-.032c1-.057,7.079-.047,7.358.013m8.3.1a17.715,17.715,0,0,1,.032,3.164l-.057.283H53.831V19.971l.249-.04A60.506,60.506,0,0,1,61,20.05M21.118,24.61a11.265,11.265,0,0,1,0,2.23l-.058.558H14.644V25.916c0-.815.017-1.5.038-1.519s1.465-.027,3.21-.013l3.173.025.054.2m5.8-.238.694.059v2.949l-1.111.06c-.611.033-1.887.047-2.835.032l-1.723-.029L21.921,26a14.968,14.968,0,0,1,.02-1.565,31.075,31.075,0,0,1,4.981-.058m9.947,1.523v1.487l-.7.066c-.8.075-7.628-.006-7.714-.092a20.767,20.767,0,0,1-.088-2.881c.036-.094.886-.112,4.275-.093l4.23.024v1.487m16.1-.005V27.42l-2.585.027c-1.422.015-3.29,0-4.15-.025l-1.565-.052V25.9c0-.808.017-1.485.038-1.506s1.888-.038,4.15-.038h4.112V25.89m8.013-1.44a10.359,10.359,0,0,1,.064,2.357l-.06.562-2.423.059c-1.333.032-2.943.033-3.577,0l-1.154-.059V24.413l.567-.039c.853-.059,6.515.006,6.584.076M43.943,25.887V27.37l-1.02.059c-1.294.075-4.36.075-4.808,0l-.34-.056V24.4h6.168v1.483M27.552,28.3a14.472,14.472,0,0,1-.024,3.21,29.568,29.568,0,0,1-5.54-.035,7.954,7.954,0,0,1,.116-3.217,39.517,39.517,0,0,1,5.447.042M52.8,28.263c.293.058.393,2.785.119,3.229a59.124,59.124,0,0,1-8.158-.013,15.746,15.746,0,0,1-.033-2.98l.056-.282,1.962-.024c2.228-.028,5.767.013,6.053.07m-31.681.427c.031.262.058,1.013.058,1.669v1.193l-1.066.067a51.349,51.349,0,0,1-5.366-.1,14.6,14.6,0,0,1-.007-3.171c.094-.113.589-.134,3.217-.134h3.106l.057.476m15.8.312a11.076,11.076,0,0,1-.106,2.564c-.111.111-8.2.041-8.31-.071a13.568,13.568,0,0,1-.05-3.122c.061-.148.349-.159,4.233-.159h4.167l.066.788m6.883-.733a10.862,10.862,0,0,1,.067,3.19,32.71,32.71,0,0,1-5.285.162l-.781-.066-.059-.972a14.265,14.265,0,0,1,0-1.671l.059-.7h2.927c1.61,0,2.992.025,3.071.055m17.251.172a14.134,14.134,0,0,1-.112,3.042,60.564,60.564,0,0,1-6.576.141l-.511-.064-.065-.952a13.168,13.168,0,0,1,0-1.673l.064-.721h7.144l.057.227M21.129,33.316a11.62,11.62,0,0,1,.031,1.247l-.031.318-3.243.024-3.243.024V32.387h6.423l.062.93m6.441.34v1.225H21.946l-.025-1.249L21.9,32.384l2.837.024,2.837.024v1.225m9.3-.34a11.547,11.547,0,0,0,.057,1.27l.056.34H32.717c-3.806,0-4.272-.015-4.321-.144a12.073,12.073,0,0,1,.005-2.336c.033-.033,1.952-.06,4.263-.06h4.2v.93m7.074.34v1.27H37.775v-2.54h6.168v1.27m9.051-.023-.025,1.247-4.15.024-4.15.024V33.718a7.37,7.37,0,0,1,.06-1.271c.033-.033,1.912-.06,4.175-.06H53.02l-.025,1.247m8-1.066a7.113,7.113,0,0,1,.031,2.018l-.056.34H53.831V33.717a7.061,7.061,0,0,1,.064-1.273,58.646,58.646,0,0,1,7.1.124M21.086,35.924a7.821,7.821,0,0,1,.031,2.141l-.056.463-1.463.047c-3.114.1-4.013-.175-4.621-1.417-.39-.8-.426-1.3-.1-1.354a48.066,48.066,0,0,1,6.2.119M27.2,35.8l.423.058-.025,1.325L27.57,38.51l-1,.071a37.506,37.506,0,0,1-4.54-.086c-.107-.041-.132-.3-.132-1.35v-1.3l.295-.037c.5-.063,4.555-.069,5-.008m9.729.282a13.527,13.527,0,0,0-.057,1.406v1.066H28.456l-.056-.34a12.762,12.762,0,0,1-.057-1.355V35.846l.249-.038c.137-.021,2.081-.044,4.321-.051l4.071-.014-.056.34m6.541-.281.476.057V37.2a6.437,6.437,0,0,1-.082,1.393c-.045.028-1.433.024-3.084-.009l-3-.06V35.743h2.608c1.434,0,2.822.027,3.084.058m8.445,0,1.1.059v2.595l-.34.068a72.055,72.055,0,0,1-7.919-.064A12.626,12.626,0,0,1,44.73,35.8c.078-.078,5.738-.079,7.182,0m8.541.019.59.057-.028.324a2.876,2.876,0,0,1-1.279,2.039c-.445.294-1.792.4-4.183.334l-1.721-.049V37.187c0-1.319,0-1.342.2-1.38.321-.062,5.761-.049,6.418.015" transform="translate(-4.825 -3.249)" fill-rule="evenodd"/></g></g></svg>