<svg xmlns="http://www.w3.org/2000/svg" xmlns:xlink="http://www.w3.org/1999/xlink" width="70" height="70" viewBox="0 0 70 70"><defs><clipPath id="b"><rect width="70" height="70"/></clipPath></defs><g id="a" clip-path="url(#b)"><rect width="70" height="70" fill="#1e2845"/><g transform="translate(3.554 3.609)"><g transform="translate(3.446 7.391)"><path d="M27.489,48.123a3.34,3.34,0,0,1-1.3-.26,3.409,3.409,0,0,1-1.138-.779l-1.623-1.676a13.63,13.63,0,0,0,1.6-1.42,12.383,12.383,0,0,0,2.326-3.422,13.515,13.515,0,0,0,.729-2H22.82a8.153,8.153,0,0,1-1.013,2A7.777,7.777,0,0,1,20.3,42.17l-7.186-7.42h15.4a28.9,28.9,0,0,0,.161-2.954,16.293,16.293,0,0,0-.436-3.82,14.182,14.182,0,0,0-.546-1.754,13.752,13.752,0,0,0-.764-1.65,13.066,13.066,0,0,0-.965-1.512,12.475,12.475,0,0,0-1.15-1.341,12.647,12.647,0,0,0-1.334-1.17,13.593,13.593,0,0,0-1.519-1,13.379,13.379,0,0,0-1.672-.8,14,14,0,0,0-1.793-.571,15.446,15.446,0,0,0-1.913-.343,17.783,17.783,0,0,0-2.034-.114,18.431,18.431,0,0,0-2.086.116,15.988,15.988,0,0,0-1.962.347,14.459,14.459,0,0,0-1.838.579,13.771,13.771,0,0,0-1.714.811A12.678,12.678,0,0,0,2.6,23.565a15.17,15.17,0,0,1-1.345-2.46A15.416,15.416,0,0,1,.4,18.478a15.621,15.621,0,0,1,.3-8.157A15.3,15.3,0,0,1,1.761,7.754,15.078,15.078,0,0,1,5.334,3.29,13.662,13.662,0,0,1,9.618.809,14.02,14.02,0,0,1,14.343,0a14.869,14.869,0,0,1,2.993.307,15.359,15.359,0,0,1,2.9.908A15.639,15.639,0,0,1,22.954,2.7a15.822,15.822,0,0,1,2.424,2.048l2.116,2.181L29.61,4.751A15.877,15.877,0,0,1,32.038,2.7a15.675,15.675,0,0,1,2.716-1.489,15.37,15.37,0,0,1,2.9-.908A14.858,14.858,0,0,1,40.649,0a14.007,14.007,0,0,1,4.723.809A13.665,13.665,0,0,1,49.654,3.29a15.156,15.156,0,0,1,4.881,7.9,15.59,15.59,0,0,1-.48,9.086,15.109,15.109,0,0,1-3.347,5.344L29.922,47.085a3.409,3.409,0,0,1-1.138.779,3.34,3.34,0,0,1-1.3.259ZM23.626,30.776H9.262l-3.388-3.5a8.9,8.9,0,0,1,.915-1.658,8.484,8.484,0,0,1,1.235-1.4,9.316,9.316,0,0,1,1.371-1.034A8.722,8.722,0,0,1,10.9,22.45a9.119,9.119,0,0,1,1.646-.443,10.548,10.548,0,0,1,1.784-.148,11.351,11.351,0,0,1,2.464.262,9.935,9.935,0,0,1,2.236.786,8.071,8.071,0,0,1,4.283,5.27,10.465,10.465,0,0,1,.309,2.6Z" transform="translate(0.006 0)" fill="#5472c5"/><path d="M14.555,24.558a17.409,17.409,0,0,1-2.039-.118,15.394,15.394,0,0,1-1.929-.352A14.245,14.245,0,0,1,8.769,23.5a13.9,13.9,0,0,1-1.707-.822A13.445,13.445,0,0,1,5.5,21.639,13.026,13.026,0,0,1,4.115,20.4a13.414,13.414,0,0,1-1.207-1.435,14.62,14.62,0,0,1-1.851-3.434A15.583,15.583,0,0,1,.47,13.595a17.507,17.507,0,0,1-.352-2.076A20.423,20.423,0,0,1,0,9.3,20.97,20.97,0,0,1,.114,7.093,17.852,17.852,0,0,1,.456,5.022a15.738,15.738,0,0,1,.571-1.93,14.522,14.522,0,0,1,.8-1.789A14.142,14.142,0,0,1,2.609,0,15.136,15.136,0,0,0,4.276,2.057l1.6,1.655a10.463,10.463,0,0,0-.536,1.651,13.107,13.107,0,0,0-.3,1.848H9.267l3.849,3.974H4.995a12.921,12.921,0,0,0,.287,2.056,10.1,10.1,0,0,0,.592,1.818,8.673,8.673,0,0,0,.9,1.579,8.461,8.461,0,0,0,1.2,1.341A9.68,9.68,0,0,0,9.4,19.048a9.11,9.11,0,0,0,1.573.764,9.566,9.566,0,0,0,1.717.458,11.1,11.1,0,0,0,1.861.153,10.839,10.839,0,0,0,2.907-.369,7.847,7.847,0,0,0,2.383-1.108c.157-.109.31-.224.457-.342l3.136,3.238-.016.012-.059.044a12.435,12.435,0,0,1-1.88,1.163,13.168,13.168,0,0,1-2.095.831,15.171,15.171,0,0,1-2.309.5,18.613,18.613,0,0,1-2.523.167Z" transform="translate(0.001 23.566)" fill="#5472c5"/></g></g></g></svg>