<svg xmlns="http://www.w3.org/2000/svg" xmlns:xlink="http://www.w3.org/1999/xlink" width="70" height="70" viewBox="0 0 70 70"><defs><clipPath id="b"><rect width="70" height="70"/></clipPath></defs><g id="a" clip-path="url(#b)"><rect width="70" height="70" fill="#fff"/><g transform="translate(2.514 3)"><path d="M49.532,14.246a5.027,5.027,0,0,0-1,.193c-.758.29-1.274.466-1.764.6a1.879,1.879,0,0,0-.613.258,4.171,4.171,0,0,1-.776.432,3.84,3.84,0,0,0-.736.406,1.577,1.577,0,0,1-.423.265.943.943,0,0,0-.417.33,1.072,1.072,0,0,1-.368.363A9.749,9.749,0,0,0,41.9,18.615a10.659,10.659,0,0,0-1.651,2.232,4.294,4.294,0,0,1-.433.625,2.448,2.448,0,0,0-.362.7,3.286,3.286,0,0,1-.369.752,2.736,2.736,0,0,0-.338.8c-.179.7-.3.863-.787,1.112-.515.261-.434.287-.826-.262-.356-.5-.432-.7-.191-.517.118.092.116.078-.013-.073-.162-.19-.266-.251-.174-.1.169.274-.221-.01-.81-.59-.376-.37-.814-.771-.974-.89s-.472-.377-.693-.572a1.971,1.971,0,0,0-.49-.355,1.166,1.166,0,0,1-.366-.213,18.423,18.423,0,0,0-3.78-2.1c-2.294-1.061-7.151-1.179-8.583-.207a4.686,4.686,0,0,1-.855.389,4.985,4.985,0,0,0-1.124.6c-.3.222-.729.534-.955.694a17.069,17.069,0,0,0-2.158,2.136c0,.042-.092.126-.2.186a1.009,1.009,0,0,0-.342.4c-.076.16-.283.515-.461.79a3.814,3.814,0,0,0-.408.814.87.87,0,0,1-.167.366,2.824,2.824,0,0,0-.536,1.458,13.121,13.121,0,0,1-.3,1.32,7.1,7.1,0,0,0-.17,2.572c.047.251.184.96.3,1.577s.256,1.317.3,1.557a1.762,1.762,0,0,0,.281.671,2.45,2.45,0,0,1,.337.767,1.808,1.808,0,0,0,.329.709,1.835,1.835,0,0,1,.491.927,3.86,3.86,0,0,0,.951,1.3,2.859,2.859,0,0,1,.39.551,31.777,31.777,0,0,0,2.824,3.181,19.7,19.7,0,0,0,2.556,2.1,2.8,2.8,0,0,1,.481.385,4.257,4.257,0,0,0,.553.456c.175.118.606.439.958.713s.776.592.943.706a4.613,4.613,0,0,1,.567.477.909.909,0,0,0,.391.269,1.722,1.722,0,0,1,.549.373,2.479,2.479,0,0,0,.488.373,3.04,3.04,0,0,1,.542.415,3.27,3.27,0,0,0,.535.415,1.51,1.51,0,0,1,.359.27,5.77,5.77,0,0,0,.66.5c.2.125.53.357.735.516s.534.411.731.561.514.407.705.572a3.946,3.946,0,0,0,.615.437.963.963,0,0,1,.355.3.868.868,0,0,0,.314.283,5.9,5.9,0,0,1,.72.54,2.592,2.592,0,0,0,.589.421A4.2,4.2,0,0,1,35,53.878a4.349,4.349,0,0,0,.639.517,4.727,4.727,0,0,1,.743.659c.245.263.661.665.924.894.61.529,1.186,1.3.794,1.068-.071-.043-.068-.019.009.077.062.077.145.12.185.1.125-.077.4.125.542.4a1.522,1.522,0,0,0,.334.42,1.494,1.494,0,0,1,.332.418,1,1,0,0,0,.248.329,1.347,1.347,0,0,1,.289.415,6.933,6.933,0,0,0,.439.722,4.682,4.682,0,0,1,.456.89,2.326,2.326,0,0,0,.294.6,3.365,3.365,0,0,1,.539,1.5c.091.434.224,1.05.3,1.369a4.332,4.332,0,0,1-1.21,3.947,2.633,2.633,0,0,0-.525.674,4.465,4.465,0,0,0,2.643.188,1.121,1.121,0,0,1,.443-.1c.078.013.133-.021.122-.076a2.957,2.957,0,0,1,.319-.727,5.626,5.626,0,0,0,.307-3.738,3.061,3.061,0,0,0-.244-.837,3.735,3.735,0,0,1-.28-.864,4.388,4.388,0,0,0-.365-1.03,4.947,4.947,0,0,1-.337-.733,3.453,3.453,0,0,0-.378-.717,4.981,4.981,0,0,1-.409-.716,2.753,2.753,0,0,0-.423-.635,3.054,3.054,0,0,1-.433-.632,3.738,3.738,0,0,0-.454-.681c-.581-.691-.933-1.086-1.287-1.449-.319-.327-.392-.457-.362-.646a.043.043,0,0,0-.053-.053c-.186.029-.318-.06-.853-.582a2.637,2.637,0,0,1-.6-.741c-.007-.093-.041-.151-.076-.13-.092.057-.5-.169-.691-.384a4.853,4.853,0,0,0-.664-.52,12.54,12.54,0,0,1-1-.766,5.483,5.483,0,0,0-.76-.566,1.737,1.737,0,0,1-.456-.371,2.618,2.618,0,0,0-.609-.471,6.062,6.062,0,0,1-.705-.473l-.773-.63c-.266-.216-.591-.49-.723-.61a4.475,4.475,0,0,0-.617-.439c-.207-.121-.377-.257-.377-.3a1.592,1.592,0,0,0-.472-.382,7.131,7.131,0,0,1-1.552-1.229c-.076-.116-.186-.21-.245-.21A1.51,1.51,0,0,1,27.5,46.3c-.2-.171-.54-.442-.757-.6a6.406,6.406,0,0,1-1.316-1.082c0-.045-.177-.165-.394-.268a1.142,1.142,0,0,1-.474-.368.906.906,0,0,0-.4-.327,1.238,1.238,0,0,1-.45-.34,1.832,1.832,0,0,0-.51-.414,18.382,18.382,0,0,1-2.953-2.574,2.529,2.529,0,0,0-.52-.436c-.042,0-.128-.1-.192-.228a2.837,2.837,0,0,0-.39-.519l-.645-.681a1.936,1.936,0,0,1-.371-.474,2.233,2.233,0,0,0-.381-.513,3.653,3.653,0,0,1-.528-.772,1.53,1.53,0,0,0-.289-.46,2.64,2.64,0,0,1-.385-.621c-.134-.277-.321-.625-.417-.774a4.792,4.792,0,0,1-.369-.979c-.107-.39-.277-.922-.377-1.182A10.062,10.062,0,0,1,15.457,28a2.132,2.132,0,0,0,.223-.7,2.817,2.817,0,0,1,.338-.912c.155-.267.39-.713.522-.993a2.33,2.33,0,0,1,.336-.568,2.019,2.019,0,0,0,.323-.425,10.371,10.371,0,0,1,4.534-3.768,5.961,5.961,0,0,0,.918-.383c.844-.488,4.8-.521,6.094-.052.388.141.967.336,1.286.434a4.082,4.082,0,0,1,.871.376,6.486,6.486,0,0,0,.747.41,12.648,12.648,0,0,1,3,2.38,9.847,9.847,0,0,1,1.231,1.482,7.825,7.825,0,0,0,.934,1.194,3.056,3.056,0,0,1,.476.84,1.748,1.748,0,0,0,.286.571,5.12,5.12,0,0,1,.5,1.005c.209.5.456,1.08.551,1.284a3.09,3.09,0,0,1,.217.816c.049.48.182.6.674.6.385,0,.426-.117.426-1.2a20.259,20.259,0,0,1,.4-3.721,8.466,8.466,0,0,0,.39-1.548,2.5,2.5,0,0,1,.328-.913,3.9,3.9,0,0,0,.277-.712,2.254,2.254,0,0,1,.383-.775,2.267,2.267,0,0,0,.386-.7,2.737,2.737,0,0,1,.375-.718,2.681,2.681,0,0,0,.363-.615,2.938,2.938,0,0,1,.524-.759c.193-.193.532-.57.756-.837a6.183,6.183,0,0,1,1.545-1.323,7.088,7.088,0,0,0,.664-.489,2.731,2.731,0,0,1,.767-.371,2.154,2.154,0,0,0,.612-.269c.493-.8,7.683-.821,8.662-.028a3.993,3.993,0,0,0,.814.293,3.315,3.315,0,0,1,.981.423,2.342,2.342,0,0,0,.6.332,7.547,7.547,0,0,1,1.789,1.2.932.932,0,0,0,.36.277,3.892,3.892,0,0,1,.795.688c.264.29.587.639.717.776a2.339,2.339,0,0,1,.326.423,4.114,4.114,0,0,0,.395.539,3.746,3.746,0,0,1,.466.723,5.069,5.069,0,0,0,.355.647,3.342,3.342,0,0,1,.332.72,8.151,8.151,0,0,0,.38.93,5.724,5.724,0,0,1,.413,1.494c.093.548.227,1.2.3,1.445a15.592,15.592,0,0,1-.047,3.825,12.04,12.04,0,0,0-.223,1.328A7.175,7.175,0,0,1,64.6,35.03a4.018,4.018,0,0,0-.3.961c-.164.818-.228,1.009-.39,1.171a2.747,2.747,0,0,0-.307.7,5.256,5.256,0,0,1-.426.956,4.54,4.54,0,0,0-.367.747,3.671,3.671,0,0,1-.325.666c-.108.163-.313.518-.457.788a17.109,17.109,0,0,1-1.095,1.833,2.354,2.354,0,0,0-.266.41,11.463,11.463,0,0,1-1.217,1.692c-.035,0-.112.118-.171.262a3.282,3.282,0,0,1-.427.643c-1.171,1.4-1.977,2.33-2.26,2.6a4.1,4.1,0,0,0-.472.536c-.175.267-.976,1.125-2.868,3.075C51.662,53.706,51.7,53.662,51.358,54c-.137.133-.328.323-.425.421s-.27.271-.385.385l-.322.319-.347.343c-.129.127-.641.651-1.138,1.164-.79.815-1.217,1.161-1.026.83.035-.06.028-.075-.016-.035a.275.275,0,0,0-.079.166c0,.053-.055.086-.117.072-.088-.02-.085.016.016.166.171.253.9.243,1.224-.017a5.452,5.452,0,0,1,.8-.447,1.938,1.938,0,0,0,.639-.41,1.362,1.362,0,0,1,.49-.354,4.667,4.667,0,0,0,.766-.5,1.278,1.278,0,0,1,.439-.279,1.368,1.368,0,0,0,.458-.332,1.571,1.571,0,0,1,.431-.332,1.307,1.307,0,0,0,.391-.311c.168-.171.577-.535.908-.809s.91-.8,1.286-1.162.846-.814,1.044-1a25.307,25.307,0,0,0,2.671-3,1.266,1.266,0,0,1,.286-.373,1.529,1.529,0,0,0,.291-.316c.078-.114.255-.338.395-.5a10.546,10.546,0,0,0,1.081-1.474,2.374,2.374,0,0,1,.418-.549,1.778,1.778,0,0,0,.362-.533,1.625,1.625,0,0,1,.32-.489,2.144,2.144,0,0,0,.369-.571,2.791,2.791,0,0,1,.39-.617,2.645,2.645,0,0,0,.378-.644,4.253,4.253,0,0,1,.443-.771,1.992,1.992,0,0,0,.306-.554,3.5,3.5,0,0,1,.306-.636,4.576,4.576,0,0,0,.361-.782,5.548,5.548,0,0,1,.353-.8,4.87,4.87,0,0,0,.341-.795c.08-.251.269-.736.421-1.079a6.98,6.98,0,0,0,.41-1.4,5.409,5.409,0,0,1,.325-1.162,19,19,0,0,0,.656-4.7c0-.319-.013-1.272-.018-2.116a12.554,12.554,0,0,0-.59-4.44,5.887,5.887,0,0,1-.41-1.079,2.457,2.457,0,0,0-.378-.871,2.892,2.892,0,0,1-.4-.665,4.14,4.14,0,0,0-.5-.817,1.644,1.644,0,0,1-.3-.447,1.245,1.245,0,0,0-.311-.386c-.171-.164-.573-.57-.892-.9a5.467,5.467,0,0,0-1.582-1.372,2.256,2.256,0,0,1-.534-.349,2.076,2.076,0,0,0-.5-.332,2.077,2.077,0,0,1-.493-.326,1.593,1.593,0,0,0-.576-.266,6.857,6.857,0,0,1-1.006-.412,6.333,6.333,0,0,0-1.308-.442,7.661,7.661,0,0,1-1.158-.337,26.155,26.155,0,0,0-6.787-.336M13.167,29.684c0,.205.016.29.036.187a1.181,1.181,0,0,0,0-.373c-.02-.1-.036-.019-.036.187M37.085,56.073a3.485,3.485,0,0,0,.45.415,2.389,2.389,0,0,0-.367-.415,3.48,3.48,0,0,0-.45-.415,2.392,2.392,0,0,0,.367.415" transform="translate(-7.681 -9.17)" fill="#ec0000" fill-rule="evenodd"/><path d="M49.05,31.839a3.3,3.3,0,0,0-.645.207.349.349,0,0,1-.282.046c-.056-.035-.071-.021-.037.034.055.089-.4.255-.835.3A.542.542,0,0,0,47,32.5a.357.357,0,0,1-.207.055c-.084,0-.152.044-.152.1s-.024.073-.053.044-.127.042-.218.157-.216.19-.284.164-.1-.009-.068.037c.045.073-.134.116-.436.1a.093.093,0,0,0-.1.084c0,.048-.024.063-.054.034s-.142.041-.249.157-.237.185-.291.152-.073-.022-.039.033-.019.132-.112.182-.168.072-.168.05-.14.091-.311.251a3.554,3.554,0,0,1-.641.463c-.469.245-.791.5-.791.617a.348.348,0,0,1-.155.213,9.229,9.229,0,0,0-1.291,1.249c.022.022-.091.157-.252.3a1.013,1.013,0,0,0-.293.346c0,.048-.056.11-.124.136s-.107.075-.087.108c.056.09-.361.67-.465.647-.05-.011-.1.054-.117.144a.262.262,0,0,1-.115.194.068.068,0,0,0-.043.1c.053.085-.152.506-.42.867a1.823,1.823,0,0,0-.242.436c-.031.1-.09.187-.132.187s-.053.056-.027.124.008.125-.042.125-.065.062-.036.138q.053.138-.043.079c-.062-.038-.079-.016-.049.063a.351.351,0,0,1-.126.295c-.095.095-.146.172-.114.172s.013.045-.042.1a.542.542,0,0,0-.1.327.4.4,0,0,1-.079.276.145.145,0,0,0-.033.17c.064.166-.136.963-.227.907-.041-.025-.054,0-.031.067a.9.9,0,0,1-.1.44,2.484,2.484,0,0,0-.164.535c-.013.114-.047.333-.076.487a14.257,14.257,0,0,0,.039,2.738,1.461,1.461,0,0,1,.04.519c-.025.041,0,.074.052.074s.079.07.054.166-.011.146.045.111.071.01.041.125c-.026.1-.014.159.025.134.075-.046.28.591.374,1.165a1.705,1.705,0,0,0,.3.644c.134.172.218.355.186.407s-.022.073.03.04c.08-.05.326.482.288.623-.008.03.116.154.276.276s.28.281.267.355.147.263.391.449a2.034,2.034,0,0,1,.449.42.6.6,0,0,0,.407.351c.1.033.16.1.129.148s-.017.066.042.03.234.048.409.187a2.865,2.865,0,0,0,.745.389c.238.078.412.174.388.214s.019.048.1.018c.1-.037.123-.023.083.042s-.016.079.059.051a.25.25,0,0,1,.232.063.846.846,0,0,0,.443.12c.181.006.343.053.36.1a.071.071,0,0,0,.107.046.167.167,0,0,1,.16,0,13.1,13.1,0,0,0,2.344,0,.432.432,0,0,1,.264-.01c.065.025.131.018.145-.016a4.377,4.377,0,0,1,1.492-.555,3.316,3.316,0,0,0,.8-.252.338.338,0,0,1,.284-.067c.056.034.071.021.037-.034-.075-.122.284-.352.583-.373a1.224,1.224,0,0,0,.6-.349c.334-.308.595-.5.595-.439,0,.014.268-.224.6-.531a2.139,2.139,0,0,1,.677-.507c.044.027.057.013.03-.032-.058-.094.794-.966.88-.9.032.024.04.02.02-.008s.059-.179.177-.333l.215-.281-.153-.393a3.2,3.2,0,0,1-.156-.468c0-.041-.059-.084-.127-.095s-.176-.033-.238-.049-.125.038-.138.12c-.032.193-.17.356-.488.575l-.256.177.207-.243.207-.243-.266.241c-.147.133-.249.269-.228.3.068.109-.446.594-.56.528-.058-.034-.079-.031-.046.005.151.167-.644.884-.8.725-.032-.032-.048-.022-.034.024.075.253-.557.788-.773.654-.052-.032-.071-.021-.042.025.09.145-.388.514-.888.686a4.738,4.738,0,0,0-.763.34c-.154.1-.324.146-.378.113s-.075-.024-.03.049.022.1-.108.063c-.1-.025-.189,0-.207.049s-.42.09-1.347.077c-1.344-.018-1.816-.069-1.743-.187.023-.037-.024-.062-.1-.055s-.134-.038-.122-.1-.01-.09-.05-.065-.149-.026-.242-.113-.192-.135-.22-.108-.05.008-.05-.044-.047-.077-.1-.055c-.223.083-1.041-.7-.926-.886.024-.039,0-.071-.058-.071s-.08-.022-.053-.048-.024-.121-.114-.21-.139-.2-.111-.244,0-.072-.059-.059-.1-.042-.1-.122-.019-.126-.055-.1c-.066.04-.188-.363-.154-.508a.451.451,0,0,0-.027-.2,2.467,2.467,0,0,1-.153-1.31.889.889,0,0,0-.021-.734,4.5,4.5,0,0,1,.042-1.673c.055-.055.067-.1.027-.1s.015-.093.122-.207a.722.722,0,0,1,.27-.207,6.032,6.032,0,0,0,.712-.256,4.788,4.788,0,0,1,1.093-.3,3.927,3.927,0,0,0,1.189-.188.508.508,0,0,1,.311-.044c.042.026.076.016.076-.023,0-.118.5-.372.631-.321.08.031.1.014.066-.047s0-.08.12-.048.159.015.125-.04.025-.072.166-.045c.121.023.22.015.22-.019s.133-.082.3-.109a4.061,4.061,0,0,0,.834-.31,1.718,1.718,0,0,1,.7-.22c.089.023.162,0,.162-.042s.055-.063.122-.037a.146.146,0,0,0,.171-.033.348.348,0,0,1,.252-.079.607.607,0,0,0,.385-.21c.1-.115.23-.191.289-.169s.1,0,.087-.048c-.022-.1.675-.337.784-.27.037.023.068,0,.068-.06s.023-.079.051-.051.145-.061.26-.2.259-.23.327-.2.1.009.068-.034.041-.1.152-.13a1.355,1.355,0,0,0,.473-.331c.15-.154.309-.258.355-.23s.059.014.031-.032.05-.135.174-.2c.262-.134.6-.462.6-.583,0-.046.038-.06.085-.031s.076.022.065-.016c-.035-.122.187-.448.271-.4.045.027.074.019.066-.018-.028-.127.111-.358.188-.311.042.026.068.016.058-.021-.039-.144.113-.442.2-.389.055.034.066.017.028-.044-.077-.124.107-.358.224-.286.048.029.062.015.033-.033s0-.132.068-.187a.794.794,0,0,0,.169-.4c.026-.167.1-.527.164-.8a5.727,5.727,0,0,0,.042-2.109,1.251,1.251,0,0,1-.048-.477c.023-.061,0-.111-.048-.111s-.073-.09-.05-.209.005-.231-.037-.257a.133.133,0,0,1-.036-.156c.023-.06-.03-.173-.117-.252s-.141-.172-.12-.206-.026-.113-.106-.176c-.132-.1-.135-.1-.03.053.126.184-.248-.226-.471-.515a.488.488,0,0,0-.231-.187,1.638,1.638,0,0,1-.437-.374c-.239-.255-.39-.354-.484-.318s-.116.019-.081-.037-.008-.073-.124-.043-.16.016-.12-.048.014-.078-.066-.047a1.591,1.591,0,0,1-.662-.237,5.822,5.822,0,0,0-3.121-.2M50.494,33.3a1.271,1.271,0,0,1,.373.243,2.8,2.8,0,0,0,.37.3,1.5,1.5,0,0,1,.387.524,2.914,2.914,0,0,0,.314.539,5.809,5.809,0,0,1,0,2.717,5.522,5.522,0,0,0-.31.852,7.463,7.463,0,0,1-1.928,2.8,1.452,1.452,0,0,0-.385.28,4.432,4.432,0,0,1-.726.5,7.094,7.094,0,0,0-.678.413,2.271,2.271,0,0,1-.735.286,1.614,1.614,0,0,0-.749.338,1.2,1.2,0,0,1-.759.3,3.808,3.808,0,0,0-1.6.431A2.378,2.378,0,0,1,42.362,44c-.177-.147-.11-.761.135-1.241a6.43,6.43,0,0,0,.341-1.313,5.139,5.139,0,0,1,.4-1.422,4.369,4.369,0,0,0,.334-.954,3.6,3.6,0,0,1,.372-.954,4.755,4.755,0,0,0,.374-.77,1.983,1.983,0,0,1,.286-.539,5.9,5.9,0,0,0,.422-.641,7.83,7.83,0,0,1,3.369-2.849,7.1,7.1,0,0,1,2.1-.017m2.7,17.492-.286.311.311-.286a2.841,2.841,0,0,0,.311-.311c0-.063-.07,0-.336.286" transform="translate(-9.73 -10.632)" fill-rule="evenodd"/></g></g></svg>