<svg xmlns="http://www.w3.org/2000/svg" xmlns:xlink="http://www.w3.org/1999/xlink" width="70" height="70" viewBox="0 0 70 70"><defs><clipPath id="b"><rect width="70" height="70"/></clipPath></defs><g id="a" clip-path="url(#b)"><rect width="70" height="70" fill="#fff"/><g transform="translate(3.457 6.777)"><path d="M65.577,66.353c-.366-.32-.732-.64-1.1-1.006-.5-.5-1.006-1.006-1.464-1.51s-.869-1.006-1.281-1.51h0c-.412-.5-.778-1.006-1.144-1.51l-.229-.274a.254.254,0,0,0-.366.091c0,.046-.046.137-.046.183a2.318,2.318,0,0,1-.32.686,1.664,1.664,0,0,1-1.51.549,1.213,1.213,0,0,0-.229.274,12.505,12.505,0,0,1-1.6,1.51c-.64.549-1.281,1.006-1.876,1.51-.183.137-.32.274-.5.412a1.213,1.213,0,0,1,.915.549l-.961.549-.366.183c3.248.229,7-.091,9.058,2.7l.046.091h0c.732-.823,1.418-1.647,2.1-2.425l.869-1.006h0v-.046Z" transform="translate(-22.025 -29.821)" fill="#0077bc"/><path d="M84.917,29.384a43.119,43.119,0,0,0-4.026,2.928L80.8,32.4h.137a.529.529,0,0,1,.32.229,2.8,2.8,0,0,1,.32.64.842.842,0,0,1,.823.366c0,.046.046.091.046.137a.6.6,0,0,1,.778.412c0,.046.046.137.046.183a.473.473,0,0,1,.64.274.58.58,0,0,1,.046.274,1.7,1.7,0,0,0,.64-.183,1.336,1.336,0,0,1-.412-.091l-.137-.137a.7.7,0,0,1-.183-.823c0-.046,0-.046.046-.091a1.171,1.171,0,0,1,.595-.457,2.483,2.483,0,0,1,2.1.457c.091.091.183.137.229.229a4.344,4.344,0,0,1,.457.778,3.635,3.635,0,0,1,.274,1.006,7.412,7.412,0,0,1,.046,1.006,7.6,7.6,0,0,1-.137,1.006c-.091.32-.183.686-.274,1.006a11.353,11.353,0,0,1-.915,2.013l-.137.274h0c-.091.137-.137.229-.229.366q1.99-1.578,4.117-3.019v-.137l.046-1.418V30.482c0-.778,1.189-.869,1.83-.823.457,0,.5-.412.5-.732l-.091-5.49V23.3l-.091.091A34.221,34.221,0,0,1,84.917,29.384Z" transform="translate(-36.836 -9.641)" fill="#0077bc"/><path d="M78.383,84.769a81.537,81.537,0,0,1-8.692,9.515l-.091.091h.137c3.019-.091,8.738.274,10.751-.595a8.8,8.8,0,0,0,4.3-3.843,11.641,11.641,0,0,0,1.327-5.673V76.9l-.046.046C83.233,78.73,80.991,81.52,78.383,84.769Z" transform="translate(-30.76 -38.72)" fill="#0077bc"/><path d="M28.191,95.225h0c.5-.457,1.006-.915,1.555-1.372.961-.823,1.921-1.693,2.791-2.516V91.2a2.551,2.551,0,0,1,.457-1.281c-.091-.046-.183.091-.274.046v-.137a2.227,2.227,0,0,1,.046-.549,2.074,2.074,0,0,1,1.144-1.464,2.137,2.137,0,0,1,.457-.229,1.2,1.2,0,0,0,.091-1.235,3.383,3.383,0,0,0-.915-1.052,8.146,8.146,0,0,0-3.614-1.1,4.42,4.42,0,0,1,.046,1.1,1.864,1.864,0,0,1-.229.823l-.229-.183a2.278,2.278,0,0,1-.869,1.83c-.046-.091-.046-.274-.183-.274-.046.091-.091.229-.137.32A3.321,3.321,0,0,1,26,89v-.229c-1.189.732-3.019-.183-4.163.686a.92.92,0,0,0-.183.366,1.918,1.918,0,0,0-.046,1.51c.046.091.091.137.091.183a1.346,1.346,0,0,0,1.372-.183,4.016,4.016,0,0,0,.686-.549,1.98,1.98,0,0,1,1.967.32,2.59,2.59,0,0,1,.823.137c.046,0,.046.046.091.046a1.1,1.1,0,0,1,.549.915,1.766,1.766,0,0,0-1.51-.137c.274.366.686.457.961.732a.821.821,0,0,1,.229.32.733.733,0,0,1-.046.686c-.457-.137-1.144-.457-1.6-.046a.758.758,0,0,1,.229.549,3.17,3.17,0,0,1-.137.915c-.64-1.281-2.1-.64-3.2-.869l-.046.778a8.336,8.336,0,0,0-2.333-.823,3.176,3.176,0,0,1-.595-.229,1.833,1.833,0,0,1-.869-1.281,4.972,4.972,0,0,1-.046-.823l-.823.64c-.046-.137-.091-.595-.137-.732v-.137l-.046.046c-.732.823-1.464,1.693-2.2,2.562-.823.961-1.693,1.921-2.516,2.928l.091.046a11.213,11.213,0,0,0,3.019.732c2.882.091,5.81.046,8.692.183h.137l1.052-.869C26.453,96.689,27.322,95.957,28.191,95.225Z" transform="translate(0.218 -42.681)" fill="#0077bc"/><path d="M57.091,8.5,57,8.595a.275.275,0,0,1,.183-.046c.091,0,.229.046.32.046a.357.357,0,0,1,.183.183.635.635,0,0,1,.5-.091.558.558,0,0,1,.366.412.562.562,0,0,1,.595.091c.046.046.046.091.091.137a.343.343,0,0,1,.046.229.563.563,0,0,1,.457.229.627.627,0,0,1,.091.686.457.457,0,0,1,.229.183.481.481,0,0,1,0,.595c.274-.046.732-.046.915.229a1.855,1.855,0,0,1,.229.412v.046c-.732.046-1.1.961-1.784,1.281V13.4l-.046.64a1.994,1.994,0,0,0,1.144.869h0a14.891,14.891,0,0,1,2.013.686.58.58,0,0,1-.046.274v.046a.168.168,0,0,0-.046.137l.183-.091c3.34-2.333,7.182-5.169,9.973-8.738l.046-.046h-.091L71.365,7.04a10,10,0,0,1-1.144-.183A12.034,12.034,0,0,1,66.927,5.8C65.6,5.21,64.365,4.432,63.039,3.791L62.81,3.7v.091h0a1.164,1.164,0,0,1-.091.32c-.229.595-1.006.778-1.555.778h-.137l-.778.732C59.2,6.628,58.189,7.589,57.091,8.5Z" transform="translate(-23.924 0.993)" fill="#0077bc"/><path d="M7.03,67.125c.732-.595,2.333-1.921,2.516-2.059L9.5,64.975a5.494,5.494,0,0,1-.366-2.836,8.735,8.735,0,0,1,.274-1.51c.137-.5.32-1.006.5-1.51l.046-.137c.183-.457.457-.915.64-1.372.046-.091.046-.137.091-.229a1.32,1.32,0,0,0-1.555.229,1.213,1.213,0,0,0-.229.274,3.853,3.853,0,0,0-.183,1.235h0c0,.5.046,1.006.046,1.51a1.965,1.965,0,0,1-.32,1.144,1.6,1.6,0,0,1-.229.366h0c-.549.732-1.555.595-2.242,1.189-.183-.274.046-.64.046-.869a2.148,2.148,0,0,1-.412.274v-.595h0a2.072,2.072,0,0,1,.366-1.006c-.183-.046-.32.137-.457.091v-.64A6.1,6.1,0,0,1,5.658,59.3v-.229a2.152,2.152,0,0,1,.961-1.51,9.231,9.231,0,0,0,1.876-1.327l.183-.183a2.8,2.8,0,0,1,2.745-.229,7.29,7.29,0,0,0,.457-1.784,3.719,3.719,0,0,0-.046-1.006l-.046-.137a1.784,1.784,0,0,0-.869-.869,2.459,2.459,0,0,0-.961-.229,1.233,1.233,0,0,0-.686.229,1.339,1.339,0,0,0-.32,1.006v1.006h0a1.112,1.112,0,0,1-.412.823c-.412.64-1.144.778-1.647,1.189a1.283,1.283,0,0,0-.457.64,1.133,1.133,0,0,1-.366-.64,1,1,0,0,1,.046-.64l-.229-.046a6.257,6.257,0,0,0-.091-1.327c0-.091-.046-.137-.046-.229v-.137l-.046.046c-.823.732-1.784,1.555-2.516,2.15v.137L3.1,59.348a3.811,3.811,0,0,1-.183.686,1.046,1.046,0,0,1-.32.457A1.752,1.752,0,0,1,.9,60.858v.091l.137,10.522v.091l1.6-1.189A52.1,52.1,0,0,0,7.03,67.125Z" transform="translate(6.512 -25.103)" fill="#0077bc"/><path d="M7.247,12.807l.64-.915a18.926,18.926,0,0,1,7.686-6.084,7.175,7.175,0,0,0,1.921-1.6h0l-.046-.046a.9.9,0,0,1-.274-.64.678.678,0,0,1,.046-.32c-.229.091-.457.229-.64.32-1.052.595-2.059,1.235-3.111,1.876l-.366.137A14.756,14.756,0,0,1,8.665,6.677c-2.47.137-5.307.457-7.137-1.144-.046-.046-.137-.091-.183-.183V9.559c-.046,3.477-.046,7.96-.046,8.1a.982.982,0,0,0,.091.5c.091.274.64.366.823.366h.229A22.99,22.99,0,0,0,7.247,12.807Z" transform="translate(6.295 1.264)" fill="#0077bc"/><path d="M22.736,46.4c.091.091.183.137.274.229a3.005,3.005,0,0,1,.549.778,3.635,3.635,0,0,1,.274,1.006,3.707,3.707,0,0,1,0,1.006h0a7.567,7.567,0,0,1-.457,2.013l-.274.686a4.3,4.3,0,0,1,.549.823,1.917,1.917,0,0,1,.183.686,2.487,2.487,0,0,1,0,.823h0a4.27,4.27,0,0,1-.549,1.51c-.274.5-.64,1.006-.915,1.51a9.144,9.144,0,0,0-.457.961.473.473,0,0,0-.046.183,54.743,54.743,0,0,0,6.679-7.869l-.046-.091c-.32-.412-.595-.869-.961-1.281a2.169,2.169,0,0,0-.457-.457l-.137.457v.046l-.046-.046a4.9,4.9,0,0,1-.686-1.006l-.457-.778c-.091.137.046.32-.091.457a2.025,2.025,0,0,1-.549-.686,6.529,6.529,0,0,1-.366-1.006c0-.046-.046-.137-.046-.183l-.091.183-.183.32a1.147,1.147,0,0,1-.183-.32c-.091-.229-.229-.64-.366-1.006s-.229-.686-.366-1.006c-.183-.457-.32-.823-.412-.823l-.412-.137-.366-.137-.091-.046L19.9,45.579h.137A3.664,3.664,0,0,1,22.736,46.4Z" transform="translate(-3.796 -20.437)" fill="#0077bc"/><path d="M33.012,27.841l.549.549-.961.869c0,.046,0,.046.046.091.091.32.229.686.32,1.006a9.315,9.315,0,0,0,.412,1.006h0c.32.32.595.686.915,1.006L35.3,33.376a13.864,13.864,0,0,0,1.189,1.052l.091.091c0-.046,0-.046.046-.091a1.93,1.93,0,0,0-.137-1.006h0a.875.875,0,0,1,.091-.823c-.046-.046-.046-.091-.091-.183a1.885,1.885,0,0,1-.046-1.006c.046-.274.137-.549.183-.778-.046-.046-.046-.137-.091-.229A2.494,2.494,0,0,1,36.58,29.4l.137-.412a4.409,4.409,0,0,1,0-1.1c.046-.137.046-.274.091-.412a1.983,1.983,0,0,1,1.51-1.1l.137-.046a1.977,1.977,0,0,1-.778-.961h0c-.046-.091-.091-.229-.137-.32a2.3,2.3,0,0,1-.091-.961,7.175,7.175,0,0,1,1.693.229v-.732a1.612,1.612,0,0,1-.915-.64.16.16,0,0,0-.091-.046,28.367,28.367,0,0,0-5.352,4.849h0l.091.046C32.92,27.749,32.966,27.795,33.012,27.841Z" transform="translate(-10.686 -9.424)" fill="#0077bc"/><path d="M50.213,19.1V18h-.137c-.32.183-.64.412-.961.64s-.64.412-.915.595v.137a.819.819,0,0,1,.823.137v.137a.349.349,0,0,1-.091.229,1.171,1.171,0,0,1-.595.457,2.654,2.654,0,0,0,1.464,0,1.262,1.262,0,0,1-.549-.64.045.045,0,0,1,.046-.046A1.213,1.213,0,0,1,50.213,19.1Z" transform="translate(-19.15 -6.765)" fill="#0077bc"/><path d="M58.5,19.2a1.218,1.218,0,0,0-.137-.549,1.8,1.8,0,0,0-1.921-.778L56.4,19.018a.943.943,0,0,1,.778.457l-.046.046a3.689,3.689,0,0,1-.549.64,3.15,3.15,0,0,0,1.464.046c-.229-.137-.595-.412-.64-.686v-.091A2.373,2.373,0,0,1,58.5,19.2Z" transform="translate(-23.599 -6.685)" fill="#0077bc"/><path d="M78.325,52.248h0a15.043,15.043,0,0,1-1.052,1.51,13.9,13.9,0,0,1-1.281,1.51,12.9,12.9,0,0,1-1.647,1.51c-.274.229-.549.412-.823.64-.274-.229-.5-.412-.778-.64-.549-.457-1.1-1.006-1.647-1.51q-.755-.755-1.372-1.51c-.366-.5-.732-1.006-1.052-1.51a9,9,0,0,1-.961-2.013,7.883,7.883,0,0,1-.32-.961v-.046a7.481,7.481,0,0,1-.091-1.006h0a3.753,3.753,0,0,1,.091-1.006h0a2.671,2.671,0,0,1,.366-1.006,2.937,2.937,0,0,1,.457-.595,1.919,1.919,0,0,1,.64-.412,2.062,2.062,0,0,1,1.647,0h.046a.341.341,0,0,1,0,.412.467.467,0,0,1-.366.229c-.32.091-.412-.5-.457-.366a.894.894,0,0,0,.183.732,1.756,1.756,0,0,0,.5.5,1.19,1.19,0,0,0,1.281-.137c.457.137.869.32,1.327.412,0-.229-.046-.5-.046-.732a3.567,3.567,0,0,1,.137-1.006,1.166,1.166,0,0,1,.366-.549.588.588,0,0,1,.183.549v.32l-.091.64-.091.686c.412-.183.778-.595,1.189-.595-.137.274-.457.5-.457.869a2.873,2.873,0,0,0,.869-.137v.183a4.421,4.421,0,0,0,2.516-.549A.9.9,0,0,0,78,46.255V46.21a.872.872,0,0,0-.091-.595c-.183.091-.046.412-.457.457a.522.522,0,0,1-.549-.274.44.44,0,0,1,.183-.549h0a1.514,1.514,0,0,1,1.1,0,2.594,2.594,0,0,1,.595.366,2.937,2.937,0,0,1,.457.595,3.94,3.94,0,0,1,.366,2.013,3.81,3.81,0,0,1-.137,1.006h0a4.125,4.125,0,0,1-.274,1.006c-.046.183-.137.366-.183.549A6.091,6.091,0,0,1,78.325,52.248Z" transform="translate(-29.512 -21.251)" fill="#0077bc"/><path d="M23.535,66.878a3.864,3.864,0,0,1-.732,1.51l-.5.686a3.811,3.811,0,0,1,.183-.686c.183-.5.412-1.006.64-1.51.137-.274.274-.549.412-.778A1.492,1.492,0,0,1,23.535,66.878Z" transform="translate(-5.098 -32.861)" fill="#0077bc"/><path d="M53.886,15.3a.633.633,0,0,0,.595-.5H53.2A.613.613,0,0,0,53.886,15.3Z" transform="translate(-21.862 -5.029)" fill="#ffd032"/><path d="M46.424,17.828c.091,0,.32-.915.64-1.281a2.829,2.829,0,0,1,2.287-.595v1.464A.641.641,0,0,1,49.9,17a.688.688,0,0,1,.64.457V16a4.657,4.657,0,0,1,1.6.137,2.376,2.376,0,0,1,1.235,1.693,2.169,2.169,0,0,0,.457-.457.415.415,0,0,0,.137-.32v-.091a.16.16,0,0,0-.046-.091.045.045,0,0,0-.046-.046l-.046-.046-.046-.046H53.7c-.046,0-.091.046-.137.046l-.046-.046c.046,0,.137-.046.137-.091v-.091a.427.427,0,0,0-.366-.595h-.137q-.069,0-.137.137l-.046-.046c.046-.046.091-.091.091-.137v-.091h0v-.046c0-.046-.046-.091-.091-.137l-.046-.046a.168.168,0,0,0-.137-.046h-.32c-.046-.046-.046,0-.046.091a.16.16,0,0,0-.091-.046c.046-.046.046-.091.091-.137h0v-.091c0-.046-.046-.091-.091-.137a.045.045,0,0,0-.046-.046h0c-.046,0-.046-.046-.091-.046a.292.292,0,0,0-.274,0c-.046,0-.091,0-.091.046-.046,0-.046.046-.091.046-.046.046-.046.091-.046.183h-.091a.275.275,0,0,0,.046-.183v-.091h0c-.046-.046-.091-.091-.137-.091s-.046-.046-.091-.046h-.091a.565.565,0,0,0-.366.183c-.046.046-.046.091-.091.137a.65.65,0,0,1-.274.091h0c-.046.046-.091.091-.137.091a.168.168,0,0,1-.137.046h-.046c-.046,0-.091.046-.137.046h-.32a.168.168,0,0,1-.137-.046h0c-.046,0-.091-.046-.137-.046h-.046c-.046,0-.091-.046-.137-.046s-.091-.046-.137-.091-.137-.091-.183-.137-.046-.046-.046-.091-.046-.046-.046-.091a.4.4,0,0,0-.274-.137h-.091c-.046,0-.091,0-.091.046-.046,0-.046.046-.091.046l-.091.091h0v.091a.275.275,0,0,0,.046.183H48.3a.275.275,0,0,0-.046-.183l-.046-.046h-.046l-.091-.046h-.229a.16.16,0,0,0-.091.046.045.045,0,0,0-.046.046c0,.046-.046.046-.046.091v.091h0a.275.275,0,0,0,.046.183.16.16,0,0,1-.091.046c0-.046-.046-.137-.091-.137h-.183l-.091-.046h-.183a.16.16,0,0,0-.091.046.436.436,0,0,0-.091.32v.046c0,.046.091.091.137.137L46.973,16c-.046-.046-.091-.091-.137-.091h-.091c-.366,0-.457.229-.412.549V16.5a.045.045,0,0,0,.046.046c.046.046.091.091.137.091v.046c-.046-.046-.091-.046-.183-.046h-.046a.454.454,0,0,0-.229.595.16.16,0,0,0,.046.091A1.59,1.59,0,0,0,46.424,17.828Z" transform="translate(-17.969 -5.084)" fill="#ffd032"/><path d="M53.7,13.3a.5.5,0,0,0-.5.457h.5Z" transform="translate(-21.862 -4.216)" fill="#ffd032"/><path d="M44.84,21.181l.412-.137a.615.615,0,0,1,.091.412c.229.5.915.412,1.372.412,1.738,0,3.157.046,4.895.046a1.029,1.029,0,0,0,1.006-.732c.137.046.274.046.412.091a1.183,1.183,0,0,1,.5-.64l.274-.137c-.046-.137-.412-.229-.686-.137a.949.949,0,0,0-.457.274,1.709,1.709,0,0,0-.274.32.484.484,0,0,0-.274-.32.969.969,0,0,0-.869,0h0c-.137.229.595.549,1.006.5,0,.32-.229.366-.366.412A2.846,2.846,0,0,1,49.6,21.41a.525.525,0,0,1-.229-.549.915.915,0,0,0,.595.091.5.5,0,0,0,.366-.366h0a.6.6,0,0,0-.595-.229,1.213,1.213,0,0,0-.274.229.282.282,0,0,1-.32.046l.046-.046a.519.519,0,0,0,.137-.366c-.046-.183-.137-.32-.32-.32a.393.393,0,0,0-.32.366,1.077,1.077,0,0,0,.091.366.045.045,0,0,0,.046.046.4.4,0,0,1-.32-.046h0a.737.737,0,0,0-.32-.183.679.679,0,0,0-.64.183h0a1,1,0,0,0,.229.366c.274.183.549-.091.778-.091-.046.183-.091.457-.274.549a3.749,3.749,0,0,1-2.242.046.356.356,0,0,1-.274-.412v-.046l.5-.091c.137-.046.366-.183.32-.366V20.54a.828.828,0,0,0-.732.046,1.99,1.99,0,0,0-.32.274.777.777,0,0,1-.274-.274c-.046-.091-.183-.183-.274-.274-.229-.046-.595-.137-.778.183a.347.347,0,0,1,.183.091h0A6.724,6.724,0,0,1,44.84,21.181Z" transform="translate(-16.98 -7.796)" fill="#ffd032"/><path d="M54.9,13.3v.457h.457A.49.49,0,0,0,54.9,13.3Z" transform="translate(-22.785 -4.216)" fill="#ffd032"/><path d="M56.823,39.986c.046,0,.091-.046.137-.046l.5-.64A2.158,2.158,0,0,0,56,39.849.865.865,0,0,0,56.823,39.986Z" transform="translate(-23.382 -18.321)" fill="#ffd032"/><path d="M60.9,39.491l-.5-.091.274.366Z" transform="translate(-25.769 -18.376)" fill="#ffd032"/><path d="M58.3,36.451c-1.235-.412-1.647-.137-1.921.137h0l-.183.183a1.912,1.912,0,0,1,.457-.183A5.026,5.026,0,0,1,58.3,36.451Z" transform="translate(-23.49 -16.662)" fill="#ffd032"/><path d="M53.913,25.432,53.5,25.02l.366-.229.046-.046L47.6,24.7l.046.091.229.183-.274.366Z" transform="translate(-18.824 -10.4)" fill="#ffd032"/><path d="M58.415,25.337a.831.831,0,0,1-.915,0A.831.831,0,0,1,58.415,25.337Z" transform="translate(-24.195 -10.672)" fill="#ffd032"/><path d="M54.415,25.237a.831.831,0,0,1-.915,0A.831.831,0,0,1,54.415,25.237Z" transform="translate(-22.025 -10.617)" fill="#ffd032"/><path d="M50.215,25.237a.831.831,0,0,1-.915,0A.831.831,0,0,1,50.215,25.237Z" transform="translate(-19.747 -10.617)" fill="#ffd032"/><path d="M27.195,31.874,26.6,31.6a2.959,2.959,0,0,1,.183.595A.507.507,0,0,1,27.195,31.874Z" transform="translate(-7.431 -14.144)" fill="#ffd032"/><path d="M24.29,31.793a.828.828,0,0,0,.046-.732c-.137-.274-.595-.732-.778-.229a1.069,1.069,0,0,0,.229.961C23.924,31.839,24.153,31.931,24.29,31.793Z" transform="translate(-5.762 -13.605)" fill="#ffd032"/><path d="M45.2,30.9c-.778.366-1.876-.046-2.47.778a.949.949,0,0,0-.274.457.936.936,0,0,0,0,.5,1.593,1.593,0,0,1,.595-.5h0c.686-.32,1.6-.137,2.2-.686l-.229-.046c-.274-.046-.549.091-.778,0C44.564,31.22,45.021,31.266,45.2,30.9Z" transform="translate(-16.017 -13.764)" fill="#ffd032"/><path d="M44.974,40a8.24,8.24,0,0,1-1.876.64,2.117,2.117,0,0,0-.823.595c-.091.137-.137.274-.229.412a4.186,4.186,0,0,0-.046.778c.549-.64,1.464-.366,2.1-.686.046,0,.046-.046.091-.046a1,1,0,0,0,.64-.778c-.274.046-.64.183-.915,0a5.366,5.366,0,0,1,.5-.229A.934.934,0,0,0,44.974,40Z" transform="translate(-15.786 -18.701)" fill="#ffd032"/><path d="M45.055,33.591c0-.046.046-.046.046-.091l-.32.091a8.186,8.186,0,0,0-2.013.732,3.005,3.005,0,0,0-.549.778h0a.679.679,0,0,0,0,.595,1.34,1.34,0,0,1,.732-.595c.778-.32,1.738-.137,2.2-1.052-.274.046-.595.183-.823,0A1.257,1.257,0,0,0,45.055,33.591Z" transform="translate(-15.868 -15.175)" fill="#ffd032"/><path d="M24.918,17.813a4.992,4.992,0,0,1,1.876,1.51,4.483,4.483,0,0,1,.595,1.006s.412-.366.595-.549l-.549-.5-.961-.915.595-.595,2.379-2.516.915-.961.5-.549,2.287-2.516,2.2-2.379.091-.137,1.235-1.464a.168.168,0,0,0-.137-.046L34.891,8.71,33.564,9.9l-1.372,1.327-2.653,2.516-1.51,1.464-.046.046-1.51,1.51-.732.732a9.16,9.16,0,0,1-.64-.732c-.229-.274-.457-.595-.686-.869h-.229l-.686.64.274.229,1.052.961Z" transform="translate(-5.749 -0.906)" fill="#ffd032"/><path d="M44.013,37.386a2.533,2.533,0,0,0,.869-.549c.046-.046.046-.091.091-.137a1.743,1.743,0,0,1-.457.137c-.64.137-1.235.046-1.647.457a1.713,1.713,0,0,0-.549.595,2.647,2.647,0,0,0-.32.961h0v.183h.137a.631.631,0,0,1,.137-.183c.64-.732,1.83-.366,2.47-1.006a1.643,1.643,0,0,0,.32-.457Z" transform="translate(-15.786 -16.911)" fill="#ffd032"/><path d="M25.94,34.578V33.8h-.046a2.59,2.59,0,0,1-.137.823L25.3,34.44a2.227,2.227,0,0,0,.046.549A1.741,1.741,0,0,0,25.94,34.578Z" transform="translate(-6.726 -15.337)" fill="#ffd032"/><path d="M86.668,48.234a.326.326,0,0,0-.137-.274.2.2,0,0,0-.229,0c0,.046-.046.046-.046.091-.091.137,0,.274.137.412C86.531,48.554,86.668,48.371,86.668,48.234Z" transform="translate(-39.776 -23.001)" fill="#ffd032"/><path d="M76.916,46.857c.046-.046.046-.091.091-.091.229-.183.595-.366.686-.64,0-.183-.046-.32-.137-.366a.78.78,0,0,0-.457,0,1,1,0,0,0-.366.229.8.8,0,0,0,.137.778Z" transform="translate(-34.599 -21.807)" fill="#ffd032"/><path d="M82.395,46.467a.354.354,0,0,0,.32-.366V46.01c-.046-.229-.32-.274-.549-.229-.091.046-.274.137-.274.274a.409.409,0,0,0,.366.457C82.3,46.513,82.349,46.467,82.395,46.467Z" transform="translate(-37.425 -21.829)" fill="#ffd032"/><path d="M84.251,47.389a.356.356,0,0,0,.366.091l.091-.091a.343.343,0,0,0,.046-.229c-.091-.274-.549-.412-.595-.137a.292.292,0,0,0,0,.274Z" transform="translate(-38.64 -22.43)" fill="#ffd032"/><path d="M20.683,38.7c-.137.046-.183.091-.183.183a1.3,1.3,0,0,0,.412.457l.366-.412h-.091Z" transform="translate(-4.122 -17.996)" fill="#ffd032"/><path d="M56.235,29.237l-.229-.137a2.6,2.6,0,0,1-.823.549L55,29.786a1.534,1.534,0,0,0,1.1.274.68.68,0,0,1-.091-.412A.371.371,0,0,1,56.235,29.237Z" transform="translate(-22.839 -12.788)" fill="#ffd032"/><path d="M63.03,57.421c-.091-.595.274-.915.5-1.327a1.266,1.266,0,0,0,.137-.595h-.091a6.091,6.091,0,0,1-1.281.457l-.046.137-.274.549a2.653,2.653,0,0,0,0,1.464,1.2,1.2,0,0,0,.412.64,1.108,1.108,0,0,0,1.418-.091c-.183,0-.5,0-.595-.229a1.115,1.115,0,0,0,.549,0,.814.814,0,0,0,.366-.32.65.65,0,0,0,.091-.274h0a.718.718,0,0,1-1.006,0A.58.58,0,0,1,63.03,57.421Z" transform="translate(-26.569 -27.11)" fill="#ffd032"/><path d="M20.692,35.983a.791.791,0,0,0-.046-.457c-.137-.229-.457-.595-.732-.274-.137.183-.046.412,0,.595.046.046.046.091.091.137a.435.435,0,0,0,.457.183A.3.3,0,0,0,20.692,35.983Z" transform="translate(-3.765 -16.056)" fill="#ffd032"/><path d="M43.3,57.453c.229.137.412-.091.595-.137a.5.5,0,0,1-.274.457l-.046.046a.765.765,0,0,0,.549.046l.091-.091c.549-.457.229-1.327.183-2.013a.78.78,0,0,1,0-.457,1.522,1.522,0,0,1-.961-.5,2.3,2.3,0,0,0-.091.961,9.472,9.472,0,0,1,.274,1.281A.687.687,0,0,1,43.3,57.453Z" transform="translate(-16.491 -26.73)" fill="#ffd032"/><path d="M52.8,61.034l.32.046a1.364,1.364,0,0,0,.778-.549h0a1.723,1.723,0,0,1-.412.686,1.861,1.861,0,0,0,1.144-.686,1.431,1.431,0,0,0,.229-.457,8.815,8.815,0,0,0-.046-1.1,5.174,5.174,0,0,1,.046-1.876,1.515,1.515,0,0,1-1.1,0,4.708,4.708,0,0,0-.183,1.83,2.52,2.52,0,0,1-.32,1.51A1.887,1.887,0,0,1,52.8,61.034Z" transform="translate(-21.645 -27.978)" fill="#ffd032"/><path d="M49.678,59.557a.893.893,0,0,1-.595.549.275.275,0,0,1-.183.046,1.744,1.744,0,0,0,.686-.046,1.314,1.314,0,0,0,.595-.366,1.1,1.1,0,0,1-.274.366c-.091.091-.229.137-.32.229a1.892,1.892,0,0,0,.869-.229c.457-.32.5-.869.5-1.51a4.369,4.369,0,0,1,.229-1.921l-.229-.137-.32-.137a.883.883,0,0,1-.457.137h-.412a5.977,5.977,0,0,0,.046,2.013h0A3.567,3.567,0,0,1,49.678,59.557Z" transform="translate(-19.53 -27.599)" fill="#ffd032"/><path d="M45.323,58.653a.788.788,0,0,1-.823.274l.091.137a1.137,1.137,0,0,0,1.144-.091,1.114,1.114,0,0,1-.64.457c.046,0,.091,0,.091.046.457.091,1.052.229,1.372-.183a1.463,1.463,0,0,0,.229-.869,14.79,14.79,0,0,1-.046-2.013V56.32a1.093,1.093,0,0,1-.595-.32h-.686v.366c.046.686.32,1.418,0,2.013A.326.326,0,0,1,45.323,58.653Z" transform="translate(-17.142 -27.382)" fill="#ffd032"/><path d="M58.442,58.921A4.539,4.539,0,0,1,58.487,57a2.5,2.5,0,0,1-1.418.046c.046.64.091,1.235.183,1.83a2.819,2.819,0,0,1-.046,1.235l-.137.274a2.16,2.16,0,0,1-.869.823,1.392,1.392,0,0,0,1.372-.823,2.137,2.137,0,0,0,.229-.457,1.556,1.556,0,0,1-.046.457,1.943,1.943,0,0,1-.457.778l.229-.046a1.3,1.3,0,0,0,.869-.686,1.625,1.625,0,0,0,.091-.457,8.1,8.1,0,0,0-.046-1.052Z" transform="translate(-23.49 -27.924)" fill="#ffd032"/><path d="M74.771,51.869c-.229.046-.229.183-.229.274s0,.137-.137.137-.229.046-.229.183.274.412.137.595c-.229.229-.549.595-.915.412a1.521,1.521,0,0,1-.549-.64c-.091-.229.183-.274.32-.274s.229,0,.366-.229a.168.168,0,0,0,.046-.137v-.046a.489.489,0,0,0-.366,0,.168.168,0,0,1-.137.046h-.137c-.046,0-.046-.046-.046-.137s.137-.046.137-.183c0,0-.183-.32-.274-.274h-.046c-.137-.046-.274.274-.274.274-.046.137.137.046.137.183s-.046.091-.046.137h-.137c-.046,0-.091-.046-.137-.046a.489.489,0,0,0-.366,0v.046c0,.046.046.091.046.137.137.229.229.229.366.229s.366.091.32.274a1.082,1.082,0,0,1-.549.64c-.366.183-.686-.137-.915-.412-.137-.183.137-.412.137-.595s-.137-.137-.229-.183-.137-.091-.137-.137a.258.258,0,0,0-.229-.274l.046.274.274,1.51.091.457h3.294l.091-.457.274-1.51Z" transform="translate(-31.357 -24.989)" fill="#ffd032"/><path d="M65.786,55.8a1.625,1.625,0,0,1-.091.457c-.183.549-.595.778-.595,1.327a.309.309,0,0,0,.274.183c.274,0,.64-.412,1.006-.549a6.529,6.529,0,0,0-.366-1.006A1.2,1.2,0,0,1,65.786,55.8Z" transform="translate(-28.318 -27.273)" fill="#ffd032"/><path d="M80.051,60.781c-.091,0-.229.046-.229.183s.137.229.183.366c.046.046,0,.137-.046.183-.229.229-.549.595-.915.412a1.265,1.265,0,0,1-.5-.595v-.046c-.046-.229.183-.274.32-.274s.229,0,.366-.229c0-.046.091-.137.046-.183a.489.489,0,0,0-.366,0c-.137.046-.366.183-.366-.046,0-.091.183-.046.137-.183,0,0-.183-.32-.274-.274h-.046c-.137-.046-.274.274-.274.274-.046.137.091.091.091.183,0,.229-.229.091-.366.046a.489.489,0,0,0-.366,0c-.046.046.046.137.046.183.137.229.229.229.366.229s.366.091.32.274v.046a1.265,1.265,0,0,1-.5.595c-.412.183-.686-.137-.915-.412a.275.275,0,0,1-.046-.183,2.717,2.717,0,0,1,.183-.366c.046-.091-.137-.137-.229-.183-.274-.046.046-.366-.366-.457l.137.961.229,1.281H79.96l.229-1.281.137-.961C80.006,60.415,80.326,60.735,80.051,60.781Z" transform="translate(-34.395 -29.601)" fill="#ffd032"/><path d="M85.989,52.144c0,.091,0,.137-.137.137s-.229.046-.229.183.274.412.137.595c-.229.229-.549.595-.915.412a1.521,1.521,0,0,1-.549-.64c-.046-.229.183-.274.32-.274s.229,0,.366-.229a.168.168,0,0,0,.046-.137v-.046a.489.489,0,0,0-.366,0c-.137.046-.091.046-.137.046h-.137c-.046,0-.046-.046-.046-.137s.183-.046.137-.183c0,0-.183-.32-.274-.274h-.046c-.137-.046-.274.274-.274.274-.046.137.091.046.091.183s0,.091-.046.137h-.137a.461.461,0,0,1-.137-.046s-.32-.046-.366,0v.046c0,.046.046.091.046.137.137.229.229.229.366.229s.366.091.32.274a1.082,1.082,0,0,1-.549.64c-.412.183-.686-.137-.915-.412-.137-.183.137-.412.137-.595s-.137-.137-.229-.183-.137-.091-.137-.137a.258.258,0,0,0-.229-.274l.046.274.274,1.51.091.457h3.34l.091-.457.229-1.51.046-.274C85.989,51.915,86.034,52.052,85.989,52.144Z" transform="translate(-37.541 -24.989)" fill="#ffd032"/><path d="M50.473,39.184h0a1.672,1.672,0,0,0,.046-1.052h0c-.091-.366-.274-.686-.366-1.006a2.417,2.417,0,0,1-.046-.595c.091-.137.137-.366.32-.412a1.566,1.566,0,0,0,.229,1.006,6.735,6.735,0,0,1,.457,1.006,1.879,1.879,0,0,1,0,1.006c-.046.091-.046.183-.091.274a1,1,0,0,0,.366-.229h0c.137-.183.229-.32.366-.5v.5a.168.168,0,0,0,.046.137c.046-.046.137-.091.183-.137a2.1,2.1,0,0,0,.5-1.006,3.708,3.708,0,0,0,0-1.006v-.091a1.539,1.539,0,0,0-.595-.915,2.237,2.237,0,0,1-.823-1.006h0c0-.091-.046-.183-.046-.274a1.511,1.511,0,0,1-1.006-.091,1.552,1.552,0,0,1-1.6-.046,1.9,1.9,0,0,1-1.235.091,1.247,1.247,0,0,1-.595-.686c0-.091-.046-.137-.046-.229.091.091.183.137.274.229.091.046.183.137.274.183a1.583,1.583,0,0,0,1.281-.183,2.514,2.514,0,0,0,.412-.32.2.2,0,0,1,.091.32h0a.357.357,0,0,1-.183.183,1.04,1.04,0,0,0,1.189-.183l.549-.412h.046c.229,0,.229.229.091.412a.457.457,0,0,1-.229.183.679.679,0,0,0,.595,0,.957.957,0,0,0,.274-.183,1.14,1.14,0,0,0,.183-1.006l-.137-.229-.183-.046a.758.758,0,0,1-.549.229h-.183a6.131,6.131,0,0,0-.915-.046,2.781,2.781,0,0,0-.869.046,3.152,3.152,0,0,0-.366.137,1.468,1.468,0,0,1-.778-.091,1.583,1.583,0,0,1-.5-.457,2.3,2.3,0,0,1-.091-.549A2.048,2.048,0,0,1,47,31.224c0-.046.046-.091.046-.137a2.262,2.262,0,0,1,1.738-.823c1.052.183,2.379.549,3.431.046a1.2,1.2,0,0,0,.595-.732,1.778,1.778,0,0,0,.091-.686l-.5.046a.3.3,0,0,1-.229-.412l.64.046a.8.8,0,0,0,.366-.549v-.137l-2.2-.778-.137-.137a1.594,1.594,0,0,0-.64-.595l-5.856-.091c-.137.091-.229.32-.366.366l-1.83-.549a2.924,2.924,0,0,0,.366.869,1.425,1.425,0,0,0,.32.412,1.033,1.033,0,0,0,1.006.274c.32.046.595-.686.915-.229a3.249,3.249,0,0,0,3.385-.457c.686,0,1.327.5,1.967.091,0-.046-.046-.091-.046-.183-.183-.274-.64-.229-.915-.366.274-.183.64-.046.915,0a2.96,2.96,0,0,1,.412.366.345.345,0,0,1,.046.366,1.372,1.372,0,0,1-1.189.32v.366a.635.635,0,0,1-.32.549,2.425,2.425,0,0,1-2.242,0c-.457-.64-1.418-.229-2.013-.5v4.072c0,.32-.046.686-.046,1.006a4.826,4.826,0,0,1-.229.869l-.091.137c-.64.823-1.784.5-2.608,1.006-.046.046-.091.046-.137.091a1.153,1.153,0,0,0-.274.915.275.275,0,0,0,.046.183,1.269,1.269,0,0,1,0,.823,2.031,2.031,0,0,1-.366.5.787.787,0,0,1-.549.091.541.541,0,0,0,.412.412h.229c.046,0,.091-.046.137-.046.457-.137.549-.549.64-.961a1.661,1.661,0,0,1,.32-.778,5.041,5.041,0,0,1-.091.823,2.645,2.645,0,0,1-.229.64c-.091.137-.183.229-.274.366a.8.8,0,0,1-.5.274A1.312,1.312,0,0,0,42.6,38.36c.046-.091.137-.137.183-.229a6.479,6.479,0,0,0,.32-1.006,5.531,5.531,0,0,1,.229-.823l.137-.183a.727.727,0,0,1,.457-.366.146.146,0,0,1,.137.137v.046a.632.632,0,0,0-.183.137,1.6,1.6,0,0,0-.366,1.006,7.412,7.412,0,0,1-.046,1.006.848.848,0,0,1-.091.32.749.749,0,0,1-.686.457c.183.274.732.229,1.052.137a.16.16,0,0,1-.046.091,1.652,1.652,0,0,1-.183.229,2.082,2.082,0,0,0,.915-.229,1.311,1.311,0,0,0,.457-1.006,6.852,6.852,0,0,1,.091-1.006.65.65,0,0,1,.091-.274,1.189,1.189,0,0,1,.823-.64v.046a1.257,1.257,0,0,0-.457.869v1.006a1.31,1.31,0,0,1-.274,1.006l-.137.137a1.643,1.643,0,0,1-.457.32.925.925,0,0,0,1.1-.457h0a1.05,1.05,0,0,1-.183.64,1.087,1.087,0,0,0,.549-.137,1.1,1.1,0,0,0,.457-.457,1.885,1.885,0,0,0,.046-1.006,2.493,2.493,0,0,1-.046-1.006.848.848,0,0,1,.091-.32,1.083,1.083,0,0,1,.823-.64c.091.046.091.091.046.183a1.146,1.146,0,0,0-.366.823h0a7.412,7.412,0,0,0,.046,1.006,2.494,2.494,0,0,1-.046,1.006,1.3,1.3,0,0,1-.412.64c.412.183.869-.274,1.189-.686,0-.046.046-.046.046-.091v.091a3.647,3.647,0,0,1-.137.686.688.688,0,0,0,.732-.686,6.131,6.131,0,0,0-.046-.915v-1.1h0a1.146,1.146,0,0,1,.366-.823.306.306,0,0,1,.457,0c-.046.091-.137.046-.229.137a1.523,1.523,0,0,0-.229.686,3.81,3.81,0,0,0,.137,1.006,3.568,3.568,0,0,1,.137,1.006,1.549,1.549,0,0,1-.274.686h.137c.412,0,.686-.457.869-.732a.8.8,0,0,1-.229.686A1.106,1.106,0,0,0,50.473,39.184Z" transform="translate(-14.972 -11.16)" fill="#ffd032"/><path d="M23.586,36.82l-.229-.091L22.9,36.5a.5.5,0,0,0,.046.229,3.531,3.531,0,0,0,.091.686Z" transform="translate(-5.424 -16.802)" fill="#ffd032"/><path d="M47.5,77.582l.457.686.595.823c1.784.091,3.568.366,4.8,1.693l.183.183a2.258,2.258,0,0,1,.366,2.2c0,.046-.046.091-.046.137-.274.5-.915.366-1.235.823a1.319,1.319,0,0,0-.32.915l1.1-.64c.091-.046.183-.183.32-.091a1.7,1.7,0,0,1-.778,1.006c-.091.046-.137.091-.229.091a1.112,1.112,0,0,0-.595,1.1c.5.091.778-.412,1.235-.366,0,.32-.32.457-.549.686l-.091.091c-.457.32-.366.915-.32,1.418v.183a.565.565,0,0,0,.366-.183,5,5,0,0,0,.366-.686c.137-.183.32-.595.595-.549l-.046,1.189v.64c.549.732,1.693.595,2.516.549.64.183,1.281.046,1.876.229-.046-.915-1.144-.274-1.51-.732.732-.549,1.738-.137,2.47.091.732.412,1.144-.457,1.784-.366-.137-.091-.229-.32-.412-.32-.64,0-1.464.366-2.059-.046l-.091-.091c.823-.366,1.921-.046,2.47-.915-.915-.686-1.693.686-2.608.091,0-.366.366-.412.549-.595h0c.183-.229.595-.457.549-.778a2.189,2.189,0,0,0-1.83.778l-.595.595a2.791,2.791,0,0,1-1.418,0,1.265,1.265,0,0,1-.5-.595c-.046-.137-.091-.32-.137-.457.046-.32.046-.686.091-1.052a1.757,1.757,0,0,1,.5-1.052,11.413,11.413,0,0,0,1.6-.961l.274-.183c.64-.595.366-1.647.229-2.287a1.632,1.632,0,0,1,.869,1.647,1.5,1.5,0,0,0,.5-1.738c-.137-.549-.457-1.144-.595-1.6v-.046a14.72,14.72,0,0,1,1.281,1.1,3.921,3.921,0,0,0-.686-1.967,2.291,2.291,0,0,0-.32-.366,7.075,7.075,0,0,0-3.706-1.693,41.865,41.865,0,0,0-5.352-.183A5.023,5.023,0,0,0,47.5,77.582Z" transform="translate(-18.77 -38.212)" fill="#ffd032"/><path d="M49.844,73.749A4.713,4.713,0,0,0,48.7,74.938a12.1,12.1,0,0,1,1.784-1.189,4.145,4.145,0,0,0,.732-.5L51.17,73.2A3.717,3.717,0,0,0,49.844,73.749Z" transform="translate(-19.421 -36.713)" fill="#ffd032"/><path d="M17.3,61.429a2.777,2.777,0,0,0-.823-.229h-.686c-.686.137-1.144.778-1.738,1.1-.229.137-.457.274-.732.412a5.663,5.663,0,0,0-.823.64,1.841,1.841,0,0,0-.412.915,4.192,4.192,0,0,0-.046,1.51v.137a.632.632,0,0,1,.183-.137,2.9,2.9,0,0,0,.686-1.464.587.587,0,0,1,.183.457,1.436,1.436,0,0,1-.32.961c-.274.457-.686.915-.64,1.464l.046-.046a2.616,2.616,0,0,0,1.1-1.235c.274.549-.137.915-.5,1.327h0c-.137.137-.229.274-.366.412a2.59,2.59,0,0,0,.823-.137,1.1,1.1,0,0,0,.366-.274,2.423,2.423,0,0,0,.686-1.51c0-.091.046-.183.046-.274a11.148,11.148,0,0,0-.046-1.235,2.2,2.2,0,0,1,.274-1.51c.046-.046.091-.137.137-.183a1.908,1.908,0,0,1,2.287-.457Z" transform="translate(0.495 -30.203)" fill="#ffd032"/><path d="M22.361,33.157h0a.636.636,0,0,0-.549-.457.537.537,0,0,0-.412.457v.091a.911.911,0,0,0,.366.549c.229.137.412,0,.595-.137S22.406,33.295,22.361,33.157Z" transform="translate(-4.61 -14.741)" fill="#ffd032"/><path d="M30.579,47.991a1.958,1.958,0,0,1-1.784-.5,2.266,2.266,0,0,1-.778-.091h0a1.387,1.387,0,0,1-1.052-.823c-.046-.32-.366-.457-.64-.686A1.233,1.233,0,0,1,26,45.52a.583.583,0,0,1,0-.549l.091.091c.137.137.457.091.412-.046a8.429,8.429,0,0,1-.229-1.144,2.516,2.516,0,0,1,.091-1.006h0a1.368,1.368,0,0,1-1.144-.457,1.1,1.1,0,0,1-.32-.549,1.885,1.885,0,0,1-.046-1.006,1.981,1.981,0,0,1,.046-.229.457.457,0,0,1,.183.229.253.253,0,0,0,.366.137h0l.137-.137a.275.275,0,0,0,.046-.183c-.32-.274-.595-.549-.915-.823-.366-.32-.732-.686-1.144-1.006a6.975,6.975,0,0,1-1.006-1.006,6.69,6.69,0,0,1-.732-.869c0-.046-.046-.091-.046-.137a8.9,8.9,0,0,0-.366-1.006,9.316,9.316,0,0,0-.412-1.006l-.137-.32c-.229-.412-.5-.823-.732-1.189-.229-.274-.5-.457-.686-.229a.349.349,0,0,0-.091.229,1.255,1.255,0,0,0,.046.915c.091.183.183.412.274.595a1.643,1.643,0,0,0,.32.457c.091.137.183.274.046.366-.366.137-.549-.091-.778-.32a.688.688,0,0,0-.183-.5.045.045,0,0,1-.046-.046L19,34.816h0c-.366.32-.732.64-1.1,1.006-.183.183-.32.366-.5.549l-.046.046a1.747,1.747,0,0,0,.412.412,2.921,2.921,0,0,0,1.327.732.616.616,0,0,1,.412.229h0a2.532,2.532,0,0,1,.457,1.006c.091.366.183.686.274,1.052h0c.046.137.137.32.274.274.046,0,.046-.137.046-.32a.919.919,0,0,1,.183-.595c0-.046.046-.091.091-.046a.045.045,0,0,1,.046.046,2.609,2.609,0,0,0,.046.595,3.891,3.891,0,0,0,.183,1.006,2.668,2.668,0,0,0,.366.823c.046.091.137.091.137-.046a4.029,4.029,0,0,1,.091-.778,1.09,1.09,0,0,1,.274-.5l.137.091-.046.412-.046.64a1.077,1.077,0,0,0,.091.366h0a7.523,7.523,0,0,0,.64,1.006H22.8c.091-.091,0-.823.229-1.006.046,0,.046-.046.091-.046s.046,0,.091.046a7.6,7.6,0,0,1,.137,1.006.347.347,0,0,0,.091.183,5.826,5.826,0,0,0,.595.869,7.646,7.646,0,0,1,1.418,2.013h0A2.147,2.147,0,0,1,25.5,47.4h0l-.046.091a5.21,5.21,0,0,1-.732,1.418h0a13.317,13.317,0,0,1-1.189,1.51,18.732,18.732,0,0,0-1.281,1.51,5.688,5.688,0,0,0-1.281,2.882.632.632,0,0,1-.183.137,2.753,2.753,0,0,1-1.876.457,1.883,1.883,0,0,1-.961-.457,1.249,1.249,0,0,1-.412-.549,2.846,2.846,0,0,1,.229-2.287l.137-.183c.32-.5.686-1.006.961-1.51a4.27,4.27,0,0,0,.549-1.51,2.825,2.825,0,0,0-.183-1.51c0-.046-.046-.046-.046-.091a1.246,1.246,0,0,0-.366-.457,2.8,2.8,0,0,0-.229.549l-.091.229a2.464,2.464,0,0,1,.229,1.281h0a3.686,3.686,0,0,1-.64,1.51c-.366.5-.778,1.006-1.1,1.51a2.732,2.732,0,0,0-.274.5h-.046a1.876,1.876,0,0,1-.046-.5,4.329,4.329,0,0,1,.229-1.51c.183-.5.366-1.006.595-1.51.046-.137.137-.32.183-.457.183-.366.412-.686.595-1.052.229-.5.5-1.006.686-1.51.183-.412.32-.869.457-1.281a4,4,0,0,0,.091-.732,7.412,7.412,0,0,0-.046-1.006A3.883,3.883,0,0,0,19,41.861c-.091-.137-.183-.229-.274-.366a2.528,2.528,0,0,0-.778-.64,4.648,4.648,0,0,0-2.379-.32,14.64,14.64,0,0,0-1.51.32,2.32,2.32,0,0,0-.732.412,2.937,2.937,0,0,0-.457.595h0a1.566,1.566,0,0,0-.229,1.006v.046l.091-.046a1.979,1.979,0,0,0,.823-1.006h0c0-.046.046-.091.046-.137.046.046.091.091.091.137s.046.046.046.091a1,1,0,0,1-.366.915c-.183.183-.366.32-.549.5a.758.758,0,0,0-.229.549,1.218,1.218,0,0,0,.137.549,2.446,2.446,0,0,1,.595-.595.615.615,0,0,0,.274-.32,5,5,0,0,0,.366-.686v0l.091.5a2.227,2.227,0,0,1-.046.549c-.137.366-.549.5-.915.869a1.236,1.236,0,0,0-.183,1.052,1.254,1.254,0,0,1,.961-.686,1.277,1.277,0,0,0,.961-1.235,7.412,7.412,0,0,0,.046-1.006h0a2.59,2.59,0,0,1,.137-.823.238.238,0,0,1,.091-.183,1.773,1.773,0,0,1,1.189-.686,2.891,2.891,0,0,1,1.784.686,4.124,4.124,0,0,1,.412.457,2.579,2.579,0,0,1,.183.549,3.753,3.753,0,0,1,.091,1.006,6.2,6.2,0,0,1-.5,2.013c-.137.32-.274.595-.412.915-.091.183-.229.412-.32.595-.274.5-.5,1.006-.732,1.51h0c-.229.5-.412,1.006-.595,1.51h0a8.735,8.735,0,0,0-.274,1.51h0v.961a3.652,3.652,0,0,0,.64,2.059h0a4.061,4.061,0,0,0,1.189,1.144c1.144.732,2.47.046,3.568-.229a1.643,1.643,0,0,1,.32.457,4.645,4.645,0,0,1,.274,1.144,2.056,2.056,0,0,1-.183,1.052c-.686,1.006-1.876,1.144-2.974,1.372-.046.046-.091.046-.137.091a1.431,1.431,0,0,0-.595,1.144,3.3,3.3,0,0,0,.915-.412c0,.091.091.229.046.32-.091.366-.5.457-.778.64a.821.821,0,0,0-.229.32,1.461,1.461,0,0,0-.137.64c.457.046.686-.32.915-.64a1.39,1.39,0,0,1,.229-.32l.046.183v.091c-.091.595-.869.961-1.052,1.51a.94.94,0,0,0,0,.5l.549-.5.64-.549.046.549a8.366,8.366,0,0,0-.091,1.51,1.981,1.981,0,0,0,.046.229A2.673,2.673,0,0,0,21.2,66.29c.183-.274-.549-.64-.412-.732a1.672,1.672,0,0,0,1.052.046l.5.274c.549.412,1.464.137,1.967.274a.563.563,0,0,0-.229-.457,1.078,1.078,0,0,0-.915-.137c.32-.64,1.006-.229,1.51-.137s1.052.229,1.372-.183a1,1,0,0,0-.137-.229c-.457-.595-1.464-.137-2.059-.274a.29.29,0,0,1-.229-.274,3.58,3.58,0,0,1,1.555-.229,1,1,0,0,1,.64-.366,1.08,1.08,0,0,0-.412-.366,1.268,1.268,0,0,0-.915-.137,2.23,2.23,0,0,0-.32.137,3.154,3.154,0,0,1-1.738.869,1.423,1.423,0,0,1-1.189-.686V63.5a5.569,5.569,0,0,1,.046-1.51,2.073,2.073,0,0,1,.5-.869c1.372-.686,3.248.137,4.483-.823.091-.091.137-.229.229-.32a1.682,1.682,0,0,0,.229-1.144.649.649,0,0,1,.366.412,1.01,1.01,0,0,1,0,.732,3.176,3.176,0,0,1-.229.595,2.3,2.3,0,0,0,1.144-.595,1.1,1.1,0,0,0,.32-.549,1.677,1.677,0,0,0-.5-1.51l.046-.046a1.7,1.7,0,0,1,1.281,1.189,1.32,1.32,0,0,0-.229-1.555c-.229-.229-.412-.457-.64-.732h.183a1.587,1.587,0,0,1,1.189.732c0,.046.046.046.046.091l.046-.091a1.17,1.17,0,0,0-.091-.961,9.9,9.9,0,0,0-1.1-1.6c-.549-.686-1.006-1.372-.5-2.287.091-.137.183-.366.32-.32,0,.457-.137.823.137,1.144l.274-.823c.229-.229.457-.5.686-.686a19.349,19.349,0,0,1,1.876-1.51c.64-.457,1.327-1.006,1.921-1.51a5.484,5.484,0,0,0,.549-.5l-.457.091C32.454,48.448,31.311,48.814,30.579,47.991Z" transform="translate(0.164 -14.889)" fill="#ffd032"/><path d="M50.215,25.237a.831.831,0,0,0-.915,0A.831.831,0,0,0,50.215,25.237Z" transform="translate(-19.747 -10.617)" fill="#ffd032"/><path d="M54.415,25.237a.831.831,0,0,0-.915,0A.831.831,0,0,0,54.415,25.237Z" transform="translate(-22.025 -10.617)" fill="#ffd032"/><path d="M58.415,25.337a.831.831,0,0,0-.915,0A.831.831,0,0,0,58.415,25.337Z" transform="translate(-24.195 -10.672)" fill="#ffd032"/><path d="M56.961,39.94a.168.168,0,0,1-.137.046A1.271,1.271,0,0,1,56,39.849a2.406,2.406,0,0,1,1.464-.549Z" transform="translate(-23.382 -18.321)" fill="#ffd032"/><path d="M60.4,39.4l.5.091-.229.274Z" transform="translate(-25.769 -18.376)" fill="#ffd032"/><path d="M56.2,36.8l.183-.183h0c.274-.274.732-.5,1.921-.137a5.3,5.3,0,0,0-1.693.137A1.625,1.625,0,0,0,56.2,36.8Z" transform="translate(-23.49 -16.686)" fill="#ffd032"/><path d="M56,30.161a1.591,1.591,0,0,1-1.1-.274l.183-.137a2.6,2.6,0,0,0,.823-.549l.229.137a.5.5,0,0,0-.274.457A1.883,1.883,0,0,0,56,30.161Z" transform="translate(-22.785 -12.842)" fill="#ffd032"/><path d="M42.483,103.4a.582.582,0,0,1,.412.32v.183l-.595-.183A.306.306,0,0,0,42.483,103.4Z" transform="translate(-15.949 -53.097)" fill="#e73331"/><path d="M42.237,99.976c.366-.091.595.137.778.412C42.832,100.2,41.963,100.525,42.237,99.976Z" transform="translate(-15.886 -51.228)" fill="#e73331"/><path d="M77.169,103.7a.467.467,0,0,1,.366.229v.274C77.307,104.066,76.849,104.02,77.169,103.7Z" transform="translate(-34.807 -53.26)" fill="#e73331"/><path d="M77.083,100.5c.137,0,.686.091.732.549a3.067,3.067,0,0,0-.915,0A.588.588,0,0,0,77.083,100.5Z" transform="translate(-34.72 -51.524)" fill="#e73331"/><path d="M74.715,97.667a2.908,2.908,0,0,0-.823.274l-.091-.457C74.12,97.393,74.578,97.256,74.715,97.667Z" transform="translate(-33.038 -49.835)" fill="#e73331"/><path d="M85.366,49.383a.516.516,0,0,1-.366.046l.183-.229Z" transform="translate(-39.115 -23.692)" fill="#e73331"/><path d="M83.749,48.729a2.58,2.58,0,0,1-.549.183l.274-.412Z" transform="translate(-38.138 -23.313)" fill="#e73331"/><path d="M81.5,47.837l.046-.137a.4.4,0,0,1,.274.137.045.045,0,0,0,.046.046c-.137.046-.229.137-.366.137Z" transform="translate(-37.216 -22.879)" fill="#e73331"/><path d="M78.4,47.6c.046.046.046.137.091.183a1.007,1.007,0,0,1,.046.366,3.205,3.205,0,0,1-.64-.137l.274-.183Z" transform="translate(-35.263 -22.824)" fill="#e73331"/><path d="M59.763,37.378a1.889,1.889,0,0,0,1.51-.183.414.414,0,0,0,.137-.457.168.168,0,0,0-.046-.137.4.4,0,0,1,.274.137.737.737,0,0,1,.183.32.9.9,0,0,1-.137.686c-.046.046-.091.091-.091.137-.549.549-1.784.183-2.516-.091l-.091-.046a4.053,4.053,0,0,0-3.019,0,2.538,2.538,0,0,0-.366.274v-.64C56.744,36.463,58.482,37.057,59.763,37.378Z" transform="translate(-23.164 -16.856)" fill="#e73331"/><path d="M59.257,39.6l.366.5a1.68,1.68,0,0,1-.823.046Z" transform="translate(-24.901 -18.484)" fill="#e73331"/><path d="M61.812,39.7l.274.457a.9.9,0,0,1-.686.046Z" transform="translate(-26.311 -18.538)" fill="#e73331"/><path d="M24.8,33.72a.582.582,0,0,0,.412-.32c0,.046.046.046.046.091a.909.909,0,0,1,.046.5A1.09,1.09,0,0,1,24.8,33.72Z" transform="translate(-6.455 -15.12)" fill="#e73331"/><path d="M23.74,35.586a1.6,1.6,0,0,1-.64-.274.486.486,0,0,0,.457-.412A1.1,1.1,0,0,1,23.74,35.586Z" transform="translate(-5.532 -15.934)" fill="#e73331"/><path d="M21.8,37.795a.688.688,0,0,1-.5-.183.6.6,0,0,0,.457-.412C21.757,37.383,21.8,37.612,21.8,37.795Z" transform="translate(-4.556 -17.182)" fill="#e73331"/><path d="M31.7,105.757a1.37,1.37,0,0,0,.183-.457.961.961,0,0,1,.457.823A4.571,4.571,0,0,0,31.7,105.757Z" transform="translate(-10.198 -54.128)" fill="#e73331"/><path d="M39.54,105.769a1.111,1.111,0,0,0-.64-.412V104.9C39.22,104.946,39.723,105.4,39.54,105.769Z" transform="translate(-14.104 -53.911)" fill="#e73331"/><path d="M70.766,107.032h0c-.046-.183-.229-.32-.366-.457l.366-.274A1.01,1.01,0,0,1,70.766,107.032Z" transform="translate(-31.194 -54.671)" fill="#e73331"/><path d="M81.969,51.823l.274,1.51.091.457h3.34l.091-.457.229-1.51.046-.274c-.229.046-.229.183-.229.274s0,.137-.137.137-.229.046-.229.183.274.412.137.595c-.229.229-.549.595-.915.412a1.183,1.183,0,0,1-.5-.64c-.046-.229.183-.274.32-.274s.229,0,.366-.229a.168.168,0,0,0,.046-.137v-.046a.489.489,0,0,0-.366,0c-.137.046-.091.046-.137.046h-.137c-.046,0-.046-.046-.046-.137s.183-.046.137-.183c0,0-.183-.32-.274-.274h-.046c-.137-.046-.274.274-.274.274-.046.137.091.046.091.183s0,.091-.046.137h-.137a.461.461,0,0,1-.137-.046s-.32-.046-.366,0v.046c0,.046.046.091.046.137.137.229.229.229.366.229s.366.091.32.274a1.082,1.082,0,0,1-.549.64c-.412.183-.686-.137-.915-.412-.137-.183.137-.412.137-.595s-.137-.137-.229-.183-.137-.091-.137-.137a.258.258,0,0,0-.229-.274Zm-.274-.457c-.046-.137.274-.091.366-.046.412.137.229.457.366.457l.091.046c.32.137.183.457.046.686-.091.091.183.274.32.366.229.137.5-.091.64-.366s-.32-.091-.412-.183a1.091,1.091,0,0,1-.274-.5v-.137a.54.54,0,0,1,.549-.137c.046-.183.274-.549.5-.549h.091c.229,0,.457.366.5.549.229-.046.457-.046.549.137a.086.086,0,0,1,0,.137,2.8,2.8,0,0,1-.229.549c-.137.091-.549,0-.412.183s.412.5.64.366c.137-.091.412-.274.32-.366-.137-.229-.274-.549.046-.686l.091-.046c.137-.046-.046-.32.366-.457.137-.046.412-.137.366.046s-.046.32-.091.457h0c-.091.5-.137,1.006-.229,1.51l-.137.686h-3.66l-.137-.686c-.091-.5-.137-1.006-.229-1.51,0-.183-.046-.32-.046-.5Z" transform="translate(-37.319 -24.669)"/><path d="M76.069,59.895l.137.961.229,1.281h3.294l.229-1.281.137-.961c-.412.091-.091.366-.366.457-.091,0-.229.046-.229.183s.137.229.183.366c.046.046,0,.137-.046.183-.229.229-.549.595-.915.412a1.265,1.265,0,0,1-.5-.595v-.046c-.046-.229.183-.274.32-.274s.229,0,.366-.229c0-.046.091-.137.046-.183a.489.489,0,0,0-.366,0c-.137.046-.366.183-.366-.046,0-.091.183-.046.137-.183,0,0-.183-.32-.274-.274h-.046c-.137-.046-.274.274-.274.274-.046.137.091.091.091.183,0,.229-.229.091-.366.046a.489.489,0,0,0-.366,0c-.046.046.046.137.046.183.137.229.229.229.366.229s.366.091.32.274V60.9a1.713,1.713,0,0,1-.549.595c-.412.183-.686-.137-.915-.412a.275.275,0,0,1-.046-.183,2.716,2.716,0,0,1,.183-.366c.046-.091-.137-.137-.229-.183C76.161,60.261,76.481,59.986,76.069,59.895Zm-.274-.183c-.046-.183.274-.091.366-.046.412.137.229.457.366.457.412.091.274.5.137.732h0c-.046.091.183.274.32.366.229.137.5-.091.64-.366h0c.091-.183-.32-.091-.412-.183-.183-.183-.366-.595-.274-.686a.662.662,0,0,1,.549-.137c.046-.183.274-.549.5-.549h.091c.229,0,.457.366.5.549.229-.046.457-.046.549.137s-.091.457-.274.686c-.137.091-.549,0-.412.183h0c.137.274.412.5.64.366.137-.091.366-.274.32-.366h0c-.183-.229-.274-.595.137-.732.137-.046-.046-.32.366-.457.091-.046.412-.137.366.046-.046.366-.137.778-.183,1.144-.091.5-.137,1.006-.274,1.51h-3.66l-.274-1.51A3.233,3.233,0,0,0,75.795,59.712Z" transform="translate(-34.118 -29.172)"/><path d="M75,48l.457-.5a1.981,1.981,0,0,1,.046.229c0,.091.046.091.046.137L75.183,48Z" transform="translate(-33.69 -22.77)" fill="#fff"/><path d="M70.369,51.549l.046.274.274,1.51.091.457h3.294l.091-.457.274-1.51.046-.274c-.229.046-.229.183-.229.274s0,.137-.137.137-.229.046-.229.183.274.412.137.595c-.229.229-.549.595-.915.412a1.521,1.521,0,0,1-.549-.64c-.091-.229.183-.274.32-.274s.229,0,.366-.229a.168.168,0,0,0,.046-.137v-.046a.489.489,0,0,0-.366,0,.168.168,0,0,1-.137.046h-.137c-.046,0-.046-.046-.046-.137s.137-.046.137-.183c0,0-.183-.32-.274-.274h-.046c-.137-.046-.274.274-.274.274-.046.137.137.046.137.183s-.046.091-.046.137h-.137c-.046,0-.091-.046-.137-.046a.489.489,0,0,0-.366,0v.046c0,.046.046.091.046.137.137.229.229.229.366.229s.366.091.32.274a1.082,1.082,0,0,1-.549.64c-.366.183-.686-.137-.915-.412-.137-.183.137-.412.137-.595s-.137-.137-.229-.183-.137-.091-.137-.137A.316.316,0,0,0,70.369,51.549Zm-.183.274c-.046-.137-.046-.32-.091-.457s.274-.091.366-.046c.412.137.229.457.366.457l.091.046c.32.137.183.457.046.686-.046.091.183.274.32.366.229.137.5-.091.64-.366s-.32-.091-.412-.183a1.091,1.091,0,0,1-.274-.5v-.137a.6.6,0,0,1,.549-.137c.046-.183.274-.549.5-.549h.091c.229,0,.457.366.5.549a.437.437,0,0,1,.549.137v.137a2.8,2.8,0,0,1-.229.549c-.137.091-.549,0-.412.183s.412.5.64.366c.137-.091.412-.274.32-.366-.137-.229-.274-.549.046-.686l.091-.046c.137-.046-.046-.32.366-.457.091-.046.412-.137.366.046s-.046.32-.091.457h0c-.091.5-.137,1.006-.229,1.51l-.137.686h-3.66l-.137-.686c-.046-.549-.091-1.052-.183-1.555Z" transform="translate(-31.026 -24.669)"/><path d="M64.419,75.663a2.814,2.814,0,0,1,0-1.235h0a1.09,1.09,0,0,1,.274-.5,17.009,17.009,0,0,0,2.059-1.51c.091-.137.183-.229.274-.366l.137.366.046.046c.046,0,.091-.046.137-.046h0A2.654,2.654,0,0,0,68.627,69.9h.046a1.431,1.431,0,0,1,.457.229c.046-.091.046-.137.091-.229h0a2.984,2.984,0,0,0-.091-1.1,4.383,4.383,0,0,0-.549-1.464h0v-.046c.732-.823,1.418-1.647,2.1-2.425l.869-1.006.412.366c.549-.457,1.1-.915,1.6-1.418s1.006-1.006,1.464-1.51h0l1.235-1.51a9.8,9.8,0,0,0,.595-.869q1.99-1.578,4.117-3.019v5.856a2.3,2.3,0,0,0,.091.549,2.066,2.066,0,0,0,.5.778,1.9,1.9,0,0,0,1.647.32,14.824,14.824,0,0,1,.091,2.013l-.046.046c-2.882,1.876-5.124,4.666-7.731,7.914-1.372,1.738-2.882,3.568-4.666,5.49l-.046-.046c.137-.183.091-.5.091-.732a.961.961,0,0,0-.32-.64h0c-.046-.046-.091-.046-.137-.091-.137-.091-.457,0-.549-.229a1,1,0,0,1,1.006.137l.183.183.091.137a.168.168,0,0,1,.046-.137,1.647,1.647,0,0,0-.091-1.052.944.944,0,0,0-.778-.457,7.447,7.447,0,0,1-1.418-.137.893.893,0,0,1-.32.046,1.578,1.578,0,0,1,1.418-.274,1.052,1.052,0,0,0-.091-.64,1.022,1.022,0,0,0-.823-.457,1.607,1.607,0,0,0-.915.229,2.758,2.758,0,0,0-2.425,1.189l-.137.137c-.32-.091-.823.046-1.1-.137C64.51,75.892,64.419,75.8,64.419,75.663Z" transform="translate(-27.912 -27.327)" fill="#fff"/><path d="M62.4,21.421l.457-.046a2.731,2.731,0,0,0,2.1-1.144c.046-.137.046-.229.091-.366a5.1,5.1,0,0,1,.366-1.372l.183-.137c3.34-2.333,7.182-5.169,9.973-8.738l.046-.046c1.693.091,4.346.183,6.039-.823a5.481,5.481,0,0,0,.549-.5l.046-.046v6.862l-.091.091a30.165,30.165,0,0,1-7.182,5.993,43.119,43.119,0,0,0-4.026,2.928l-.091.091a.737.737,0,0,0-.32.183c-.183.183-.274.457-.549.595a1.425,1.425,0,0,0-1.189.412c-.046.046-.046.091-.091.137a.637.637,0,0,0-.046.64l-.457.5a.635.635,0,0,1-.457-.229h-.091l-.046-.091a.749.749,0,0,0,.686-.457.791.791,0,0,0,.046-.457.969.969,0,0,0-.137-.32,1.836,1.836,0,0,0-1.876-.229,2.592,2.592,0,0,0-1.052.549,2.509,2.509,0,0,0-.823,1.006.045.045,0,0,1-.046.046l-.046-.046h0a9.554,9.554,0,0,1-.915-1.006.738.738,0,0,1-.137-.412,1.6,1.6,0,0,0,.274-.64,2.494,2.494,0,0,0,.046-1.006v-.137c.732,0,1.693.091,2.2-.64.046-.091.091-.137.137-.229h0a1.024,1.024,0,0,0,.046-.823.632.632,0,0,0-.137-.183,1.3,1.3,0,0,0-.457-.412c-.229-.091-.64-.183-.732.046v.366a.65.65,0,0,1-.091.274c-.412.32-.778.137-1.281.046A3.356,3.356,0,0,1,62.4,21.421Z" transform="translate(-26.854 -1.449)" fill="#fff"/><path d="M60.674,39.766,60.4,39.4l.5.091Z" transform="translate(-25.769 -18.376)" fill="#fff"/><path d="M57.5,25.337a.831.831,0,0,1,.915,0A1.068,1.068,0,0,1,57.5,25.337Z" transform="translate(-24.195 -10.672)"/><path d="M56.823,39.986A1.271,1.271,0,0,1,56,39.849a2.406,2.406,0,0,1,1.464-.549l-.5.64A.168.168,0,0,1,56.823,39.986Z" transform="translate(-23.382 -18.321)" fill="#fff"/><path d="M40.006,105.839c.823-.732,1.738-1.464,2.562-2.15h0c.5-.457,1.006-.915,1.555-1.372.961-.823,1.921-1.693,2.791-2.516v.5c.091.046.183-.046.274-.091a4.434,4.434,0,0,1,.137,1.052,7.412,7.412,0,0,1-.046,1.006,3.232,3.232,0,0,0,1.189-.595,1.016,1.016,0,0,0-.046.732.649.649,0,0,0,.412.366,2.684,2.684,0,0,0,1.052.183,24.349,24.349,0,0,1,3.157.183,2.1,2.1,0,0,1,.686,1.144,2.263,2.263,0,0,0,.366-1.51.737.737,0,0,0-.183-.32l-.046-.046c.595.137,1.647.366,2.2-.229a.863.863,0,0,1,.961.5.1.1,0,0,0,.091-.091l.046.046a55.637,55.637,0,0,1-4.026,4.026l-.091.091c-2.7-.046-5.718.549-7.365,2.882A7.873,7.873,0,0,0,39,106.708Z" transform="translate(-14.159 -51.144)" fill="#fff"/><path d="M56,30.161a1.591,1.591,0,0,1-1.1-.274l.183-.137a2.6,2.6,0,0,0,.823-.549l.229.137a.5.5,0,0,0-.274.457A1.883,1.883,0,0,0,56,30.161Z" transform="translate(-22.785 -12.842)" fill="#fff"/><path d="M56.2,36.8l.183-.183h0c.274-.274.732-.5,1.921-.137a5.3,5.3,0,0,0-1.693.137A1.625,1.625,0,0,0,56.2,36.8Z" transform="translate(-23.49 -16.686)" fill="#fff"/><path d="M54.415,25.237a.831.831,0,0,1-.915,0A.831.831,0,0,1,54.415,25.237Z" transform="translate(-22.025 -10.617)"/><path d="M49.2,25.237a.831.831,0,0,1,.915,0A1.068,1.068,0,0,1,49.2,25.237Z" transform="translate(-19.692 -10.617)"/><path d="M49.015,18.572c-.32.229-.64.412-.915.595a1.508,1.508,0,0,1,1.006-1.144,3.078,3.078,0,0,1,.915-.046Z" transform="translate(-19.096 -6.743)" fill="#fff"/><path d="M45.866,10.535l-.366-.32.137-.137.046-.046c.686-.823,1.464-1.647,2.1-2.516a12.352,12.352,0,0,0,1.235-1.784c.046-.091-.046-.137-.137-.183L48.931,5a35.151,35.151,0,0,1,5.352.412,3.885,3.885,0,0,0,.412.137.168.168,0,0,1,.137.046l-.823.732c-1.052,1.006-2.059,1.967-3.157,2.882l-.137.091a.16.16,0,0,0-.091.046.866.866,0,0,0-.823-.915v-.32h.457V7.836H49.8V7.47h-.32v.412h-.457v.274h.457v.32a.936.936,0,0,0-.823.915.516.516,0,0,0-.732.091.142.142,0,0,0-.046.091.556.556,0,0,0-.732.046.349.349,0,0,0-.091.229.507.507,0,0,0-.64.183.493.493,0,0,0-.091.366A.553.553,0,0,0,45.866,10.535Z" transform="translate(-17.685 0.287)" fill="#fff"/><path d="M31.5,23.545l.64-.686.915-1.006,1.372-1.51,1.372-1.51L37.9,16.5l.366.32a.553.553,0,0,0-.046.64.561.561,0,0,0-.366.64.16.16,0,0,0,.046.091,1.061,1.061,0,0,0-.823.183.666.666,0,0,0-.274.412.347.347,0,0,1-.091.183,1.25,1.25,0,0,1,.869.366,28.1,28.1,0,0,0-5.307,4.849h0A3.87,3.87,0,0,1,31.5,23.545Z" transform="translate(-10.09 -5.952)" fill="#fff"/><path d="M24,68.255a2.813,2.813,0,0,1,.046-.64A54.8,54.8,0,0,0,30.679,59.7a3.268,3.268,0,0,1,.366.686,1.918,1.918,0,0,1,.046,1.51v.046a5.748,5.748,0,0,1-.823,1.464,12.727,12.727,0,0,1-1.235,1.51,18.732,18.732,0,0,0-1.281,1.51A4.879,4.879,0,0,0,26.7,68.987a2,2,0,0,1-2.013.229A1.05,1.05,0,0,1,24,68.255Z" transform="translate(-6.021 -29.389)" fill="#fff"/><path d="M1.3,87.433,2.9,86.2c.046-.046,3.157-2.425,4.3-3.34.732-.595,2.333-1.921,2.516-2.059a.16.16,0,0,0,.046.091,3.433,3.433,0,0,0,2.791,1.921,5.241,5.241,0,0,0,2.242-.32,2.082,2.082,0,0,1,.229.915,1.78,1.78,0,0,1-.32,1.052c-.778,1.144-2.516.5-3.2,1.464a2.252,2.252,0,0,0-.274.778,2.455,2.455,0,0,0-.046,1.006l.229-.046a.862.862,0,0,0-.091.366c-.091.366-.137.732-.229,1.1.091.091.137-.046.229-.046a1.556,1.556,0,0,0-.046.457V90l-.046.046c-.732.823-1.464,1.693-2.2,2.562-.823.961-1.647,1.921-2.516,2.928a7.894,7.894,0,0,1-3.843-3.477A11.242,11.242,0,0,1,1.3,87.433Z" transform="translate(6.295 -40.836)" fill="#fff"/><path d="M7.58,26.318a2.716,2.716,0,0,0-.183.366h0a3.591,3.591,0,0,0-.229,1.006h0v.686l-.046.046c-.778.732-1.738,1.555-2.47,2.15l.091-9.927a1.231,1.231,0,0,0-.869-1.052c-.091-.046-.183-.046-.274-.091a23.024,23.024,0,0,0,4.849-5.718l.64-.915a19.372,19.372,0,0,1,7.731-6.084,7.175,7.175,0,0,0,1.921-1.6c.686.549,1.83.183,2.333.091A46.369,46.369,0,0,1,26.108,5H26.2v.549a2.2,2.2,0,0,0-1.327.686L23.454,7.516,21.9,8.889l-1.235,1.144L18.01,12.548l-1.6,1.51-1.6,1.51-.046.091-.046-.091c-.366-.457-.823-.961-1.235-1.418l-1.327,1.189c.046.091.137.137.229.229a3.951,3.951,0,0,1,.595.64.714.714,0,0,0-.595.366,1.409,1.409,0,0,0-.229.549.861.861,0,0,0-.915.778v.183c0,.091.046.137.046.229a.633.633,0,0,0-.732.549v.183a2.3,2.3,0,0,0,.229.595,2.554,2.554,0,0,0,.229.366.643.643,0,0,0-.091.64h0c.274.274.5.915.961.778l.091-.091a2.113,2.113,0,0,0,.32.32h0a3.691,3.691,0,0,0,1.1.778l-2.333,2.379a5.78,5.78,0,0,0-2.928.869A2.407,2.407,0,0,0,7.58,26.318Z" transform="translate(5.047 0.287)" fill="#fff"/><path d="M45.493,25.322c0,.046-.046.046-.046.091-.091.137,0,.274.137.412.183.091.274-.046.32-.229a.326.326,0,0,0-.137-.274A.288.288,0,0,0,45.493,25.322Zm-.457.549-.183.229a.892.892,0,0,0,.366-.046Zm-.5-.915a.292.292,0,0,0,0,.274c0,.046.046.046.046.091a.356.356,0,0,0,.366.091l.091-.091a.343.343,0,0,0,.046-.229c-.046-.274-.5-.412-.549-.137Zm-.183.595a2.148,2.148,0,0,0-.274.412,1.3,1.3,0,0,0,.549-.183Zm-.595-1.189c-.137.046-.274.091-.274.229a.374.374,0,0,0,.366.412h.137a.354.354,0,0,0,.32-.366v-.091c-.091-.229-.366-.229-.549-.183Zm-.457.961-.046.183c.137,0,.229-.091.366-.137a.045.045,0,0,0-.046-.046.277.277,0,0,0-.274-.137Zm-1.372,0-.274.183a1.461,1.461,0,0,0,.64.137,1.007,1.007,0,0,0-.046-.366.347.347,0,0,0-.091-.183ZM41.376,50.8c-.32.32.137.412.366.549v-.274a.429.429,0,0,0-.366-.274Zm-.229-.915a3.067,3.067,0,0,1,.915,0c-.046-.457-.595-.5-.732-.549a.457.457,0,0,1-.183.549Zm0-25.344a.8.8,0,0,0,.137.778l.046.091c.046-.046.046-.091.091-.091.229-.183.595-.366.686-.64,0-.183-.046-.32-.137-.366a.78.78,0,0,0-.457,0,.362.362,0,0,0-.366.229Zm-.5,23.651c-.137-.366-.595-.274-.869-.183l.091.457A2.252,2.252,0,0,1,40.644,48.2Zm-2.47,4.072a1.033,1.033,0,0,1,.366.5l.046-.046a.828.828,0,0,0-.046-.732ZM36.8,27.335a7.48,7.48,0,0,0,.091,1.006v.046a7.883,7.883,0,0,0,.32.961,11.814,11.814,0,0,0,1.006,2.013,17.734,17.734,0,0,0,1.052,1.51,10.76,10.76,0,0,0,1.372,1.51,12.9,12.9,0,0,0,1.647,1.51c.274.229.5.412.778.64a10.048,10.048,0,0,0,.823-.64q.823-.686,1.647-1.51a13.167,13.167,0,0,0,1.281-1.51,12.575,12.575,0,0,0,1.052-1.51h0a8.54,8.54,0,0,0,.686-1.464,2.579,2.579,0,0,0,.183-.549c.091-.32.183-.686.274-1.006h0c.046-.32.091-.686.137-1.006a7.412,7.412,0,0,0-.046-1.006,2.6,2.6,0,0,0-.32-1.006,1.919,1.919,0,0,0-.412-.64,1.179,1.179,0,0,0-.595-.366,1.514,1.514,0,0,0-1.1,0h0a.424.424,0,0,0-.183.549.652.652,0,0,0,.549.274c.412,0,.274-.366.457-.457a.7.7,0,0,1,.091.595v.046a.9.9,0,0,1-.412.412,4.421,4.421,0,0,1-2.516.549V26.1a4.938,4.938,0,0,1-.869.137c.046-.366.366-.549.457-.869-.457,0-.778.412-1.189.595l-.046-.64.091-.686v-.32a.8.8,0,0,0-.183-.549,1.645,1.645,0,0,0-.366.549,3.9,3.9,0,0,0-.137,1.052c0,.274.046.5.046.732-.457-.091-.869-.274-1.327-.412a1.289,1.289,0,0,1-1.281.137,1.583,1.583,0,0,1-.5-.457.822.822,0,0,1-.183-.732c.046-.183.137.457.457.366A.629.629,0,0,0,40,24.773a.341.341,0,0,0,0-.412h-.046a2.062,2.062,0,0,0-1.647,0,1.919,1.919,0,0,0-.64.412,2.937,2.937,0,0,0-.457.595,3.781,3.781,0,0,0-.366,1.006h0a6.142,6.142,0,0,0-.046.961Zm-.457,2.013c-.183.549-.595.778-.595,1.327a.309.309,0,0,0,.274.183c.274,0,.64-.412,1.006-.549a6.529,6.529,0,0,0-.366-1.006c-.046-.137-.137-.32-.183-.457-.046.183-.091.366-.137.5Zm-1.967,2.013a1.093,1.093,0,0,0,1.83.549.6.6,0,0,1-.595-.229,1.115,1.115,0,0,0,.549,0,.814.814,0,0,0,.366-.32.65.65,0,0,0,.091-.274h0a.718.718,0,0,1-1.006,0,.58.58,0,0,1-.183-.412c-.091-.595.274-.915.5-1.327a1.266,1.266,0,0,0,.137-.595h-.091a6.091,6.091,0,0,1-1.281.457l-.046.137-.274.549A2.654,2.654,0,0,0,34.377,31.361Zm-.32-9.332a.733.733,0,0,0,.686-.046l-.274-.457Zm.046-.549-.5-.137.274.366Zm-.778-.046-.457.549a1.275,1.275,0,0,0,.823-.046Zm-1.51-9.881L31.769,12.7a.943.943,0,0,1,.778.457L32.5,13.2a2.407,2.407,0,0,1-.549.64,3.15,3.15,0,0,0,1.464.046c-.229-.137-.595-.412-.64-.686v-.091a1.7,1.7,0,0,1,1.052-.229,1.218,1.218,0,0,0-.137-.549A1.77,1.77,0,0,0,31.815,11.552Zm-.091,22.142a1.392,1.392,0,0,0,1.372-.823,1.431,1.431,0,0,0,.229-.457c0,.137-.046.274-.046.457a1.943,1.943,0,0,1-.457.778l.229-.046a1.139,1.139,0,0,0,.823-.686,1.625,1.625,0,0,0,.091-.457,8.1,8.1,0,0,0-.046-1.052h0a4.538,4.538,0,0,1,.046-1.921,2.5,2.5,0,0,1-1.418.046c.046.64.091,1.235.183,1.83a2.819,2.819,0,0,1-.046,1.235l-.137.274a2.824,2.824,0,0,1-.823.823Zm.137-13.4-.183.183a1.912,1.912,0,0,1,.457-.183,5.2,5.2,0,0,1,1.693-.137c-1.235-.366-1.647-.137-1.967.137ZM33,21.388a2.158,2.158,0,0,0-1.464.549,1.04,1.04,0,0,0,.823.137c.046,0,.091-.046.137-.046Zm2.562-.5c-1.281-.32-3.019-.915-4.209.046v.64c.137-.091.229-.183.366-.274a4.053,4.053,0,0,1,3.019,0l.091.046c.732.274,1.967.64,2.516.091.046-.046.091-.091.091-.137A.767.767,0,0,0,37.4,20.29l-.274-.137c0,.046.046.091.046.137a.553.553,0,0,1-.137.457c-.32.274-.961.183-1.464.137ZM31.083,9.906h.457a.588.588,0,0,0-.457-.457Zm.183,7.365-.183.137a1.534,1.534,0,0,0,1.1.274.68.68,0,0,1-.091-.412.5.5,0,0,1,.274-.457l-.229-.137a5.826,5.826,0,0,1-.869.595Zm-.457-7.823a.5.5,0,0,0-.5.457h.5Zm.778.732H30.305a.569.569,0,0,0,.64.5A.7.7,0,0,0,31.586,10.18ZM30.122,33.42l.32.046a1.364,1.364,0,0,0,.778-.549h0a1.723,1.723,0,0,1-.412.686,1.861,1.861,0,0,0,1.144-.686,1.431,1.431,0,0,0,.229-.457,8.815,8.815,0,0,0-.046-1.1,5.174,5.174,0,0,1,.046-1.876,1.515,1.515,0,0,1-1.1,0,4.708,4.708,0,0,0-.183,1.83,2.52,2.52,0,0,1-.32,1.51A1.887,1.887,0,0,1,30.122,33.42ZM29.39,37.4a4.713,4.713,0,0,0-1.144,1.189A12.1,12.1,0,0,1,30.031,37.4a4.146,4.146,0,0,0,.732-.5l-.046-.046a3.717,3.717,0,0,0-1.327.549Zm-1.052-4.483a1.744,1.744,0,0,0,.686-.046,1.314,1.314,0,0,0,.595-.366,1.1,1.1,0,0,1-.274.366c-.091.091-.229.137-.32.229a1.892,1.892,0,0,0,.869-.229c.457-.32.5-.869.5-1.51a4.369,4.369,0,0,1,.229-1.921L30.4,29.3l-.32-.137a.883.883,0,0,1-.457.137h-.412a5.977,5.977,0,0,0,.046,2.013h0a2.3,2.3,0,0,1-.091.961.893.893,0,0,1-.595.549c-.091.046-.137.091-.229.091Zm-.412-19.992a.819.819,0,0,1,.823.137V13.2a.349.349,0,0,1-.091.229,1.171,1.171,0,0,1-.595.457,2.654,2.654,0,0,0,1.464,0,1.262,1.262,0,0,1-.549-.64.045.045,0,0,1,.046-.046,1.389,1.389,0,0,1,.961-.549V11.6h-.137a6.131,6.131,0,0,0-.915.046,1.682,1.682,0,0,0-1.006,1.144Q27.927,12.856,27.927,12.925Zm.091,2.013-.274.366,6.313.091-.412-.366.366-.274h.046l-6.313-.046.091.091Zm1.6,23.285a4.277,4.277,0,0,0-1.967,1.555l.457.686.595.823c1.784.091,3.568.366,4.8,1.693l.183.183a2.258,2.258,0,0,1,.366,2.2c0,.046-.046.091-.046.137-.274.5-.915.366-1.235.823a1.319,1.319,0,0,0-.32.915l1.1-.64c.091-.046.183-.183.32-.091A1.7,1.7,0,0,1,33.1,47.51c-.091.046-.137.091-.229.091a1.112,1.112,0,0,0-.595,1.1c.5.091.778-.412,1.235-.366,0,.32-.32.457-.549.686l-.091.091c-.457.32-.366.915-.32,1.418v.183a.565.565,0,0,0,.366-.183,5,5,0,0,0,.366-.686c.137-.183.32-.595.595-.549l-.046,1.189v.64c.549.732,1.693.595,2.516.549.64.183,1.281.046,1.876.229-.046-.915-1.144-.274-1.51-.732.732-.549,1.738-.137,2.47.091.732.412,1.144-.457,1.784-.366-.137-.091-.229-.32-.412-.32-.64,0-1.464.366-2.059-.046l-.091-.091c.823-.366,1.921-.046,2.47-.915-.915-.686-1.693.686-2.608.091,0-.366.366-.412.549-.595h0c.183-.229.595-.457.549-.778a2.189,2.189,0,0,0-1.83.778l-.595.595a2.791,2.791,0,0,1-1.418,0,1.265,1.265,0,0,1-.5-.595c-.046-.137-.091-.32-.137-.457.046-.32.046-.686.091-1.052a1.757,1.757,0,0,1,.5-1.052,11.414,11.414,0,0,0,1.6-.961l.274-.183c.64-.595.366-1.647.229-2.287a1.742,1.742,0,0,1,.915,1.647,1.5,1.5,0,0,0,.5-1.738c-.137-.549-.457-1.144-.595-1.6v-.046a14.72,14.72,0,0,1,1.281,1.1A3.921,3.921,0,0,0,39,40.419a2.291,2.291,0,0,0-.32-.366,7.075,7.075,0,0,0-3.706-1.693,34.878,34.878,0,0,0-5.352-.137ZM27.24,12.056a.454.454,0,0,0-.229.595.16.16,0,0,0,.046.091,3.225,3.225,0,0,1,.32.412c.091,0,.32-.915.64-1.281a2.829,2.829,0,0,1,2.287-.595v1.464a.641.641,0,0,1,.549-.412.688.688,0,0,1,.64.457V11.324a4.657,4.657,0,0,1,1.6.137,2.376,2.376,0,0,1,1.235,1.693,2.169,2.169,0,0,0,.457-.457.415.415,0,0,0,.137-.32v-.091a.16.16,0,0,0-.046-.091.045.045,0,0,0-.046-.046l-.046-.137-.046-.046h-.091c-.046,0-.091.046-.137.046l-.046-.046c.046,0,.137-.046.137-.091v-.091a.427.427,0,0,0-.366-.595H34.1q-.069,0-.137.137l-.046-.046c.046-.046.091-.091.091-.137h0v-.046h0v-.046c0-.046-.046-.091-.091-.137l-.046-.046a.168.168,0,0,0-.137-.046h-.32c-.046.046-.046.091-.091.137a.16.16,0,0,0-.091-.046c.046-.046.046-.091.091-.137h0v-.091c0-.046-.046-.091-.091-.137a.045.045,0,0,0-.046-.046h0c-.046,0-.046-.046-.091-.046a.292.292,0,0,0-.274,0c-.046,0-.091,0-.091.046-.046,0-.046.046-.091.046-.046.046-.046.091-.046.183H32.5a.275.275,0,0,0,.046-.183v-.091h0c-.046-.046-.091-.091-.137-.091s-.046-.046-.091-.046h-.091a.565.565,0,0,0-.366.183c-.046.046-.046.091-.091.137a.347.347,0,0,1-.183.091h0c-.046.046-.091.091-.137.091a.168.168,0,0,1-.137.046h-.046c-.046,0-.091.046-.137.046h-.5c-.046,0-.091-.046-.137-.046h-.046c-.046,0-.091-.046-.137-.046s-.091-.046-.137-.091-.137-.091-.183-.137-.046-.046-.046-.091-.046-.046-.046-.091a.42.42,0,0,0-.274-.183h-.091c-.046,0-.091,0-.091.046-.046,0-.046.046-.091.046l-.091.091h0V10.5a.275.275,0,0,0,.046.183h0a.275.275,0,0,0-.046-.183l-.046-.046h-.046l-.091-.046h-.229a.16.16,0,0,0-.091.046.045.045,0,0,0-.046.046c0,.046-.046.046-.046.091v.091h0a.275.275,0,0,0,.046.183.16.16,0,0,1-.091.046c0-.046-.046-.137-.091-.137h-.183l-.091-.046h-.183a.16.16,0,0,0-.091.046.436.436,0,0,0-.091.32v.046c0,.046.091.091.137.137l-.046.046c-.046-.046-.091-.091-.137-.091h-.091c-.366,0-.457.229-.412.549v.046a.045.045,0,0,0,.046.046c.046.046.091.091.137.091v.046c-.046-.046-.091-.046-.183-.046l-.091.091Zm-.915,19.9.091.137A1.137,1.137,0,0,0,27.561,32a1.114,1.114,0,0,1-.64.457c.046,0,.091,0,.091.046.457.091,1.052.229,1.372-.183a1.463,1.463,0,0,0,.229-.869,14.79,14.79,0,0,1-.046-2.013v-.091a.849.849,0,0,1-.549-.32h-.686v.366c.046.686.32,1.418,0,2.013a.957.957,0,0,1-.183.274.883.883,0,0,1-.823.274Zm.5-18.985c-.229-.046-.595-.137-.778.183a.347.347,0,0,1,.183.091h0a1,1,0,0,1,.595.549l.412-.137a.615.615,0,0,1,.091.412c.229.5.915.412,1.372.412,1.738,0,3.157.046,4.895.046a1.029,1.029,0,0,0,1.006-.732c.137.046.274.046.412.091a1.183,1.183,0,0,1,.5-.64l.274-.137c-.046-.137-.412-.229-.686-.137a.949.949,0,0,0-.457.274,1.709,1.709,0,0,0-.274.32.484.484,0,0,0-.274-.32.969.969,0,0,0-.869,0h0c-.137.229.595.549,1.006.5,0,.32-.229.366-.366.412a2.846,2.846,0,0,1-2.287-.137.525.525,0,0,1-.229-.549.915.915,0,0,0,.595.091.5.5,0,0,0,.366-.366h0a.6.6,0,0,0-.595-.229,1.213,1.213,0,0,0-.274.229.282.282,0,0,1-.32.046l.046-.046a.519.519,0,0,0,.137-.366c-.046-.183-.137-.32-.32-.32a.393.393,0,0,0-.32.366,1.077,1.077,0,0,0,.091.366.045.045,0,0,0,.046.046.4.4,0,0,1-.32-.046h0a.737.737,0,0,0-.32-.183.679.679,0,0,0-.64.183h0a1,1,0,0,0,.229.366c.274.183.549-.091.778-.091-.046.183-.091.457-.274.549a3.749,3.749,0,0,1-2.242.046.356.356,0,0,1-.274-.412v-.046l.5-.091c.137-.046.366-.183.32-.366v-.046a.828.828,0,0,0-.732.046,1.99,1.99,0,0,0-.32.274.777.777,0,0,1-.274-.274A4.123,4.123,0,0,0,26.829,12.971Zm-.915,15.417a2.3,2.3,0,0,0-.091.961,9.471,9.471,0,0,1,.274,1.281.661.661,0,0,1-.32.457c.229.137.412-.091.595-.137a.5.5,0,0,1-.274.457l-.046.046a.765.765,0,0,0,.549.046l.091-.091c.549-.457.229-1.327.183-2.013a.78.78,0,0,1,0-.457,1.58,1.58,0,0,1-.961-.549Zm-.5-9.607a.936.936,0,0,0,0,.5,1.593,1.593,0,0,1,.595-.5h0c.686-.32,1.6-.137,2.2-.686L28.018,18c-.274-.046-.549.091-.778,0,.274-.229.778-.137.915-.5-.778.366-1.876-.046-2.47.778a4.99,4.99,0,0,0-.274.5Zm-.091,32.3.595.183v-.183a.582.582,0,0,0-.412-.32c0,.091-.091.183-.183.32Zm0-30.788a.679.679,0,0,0,0,.595,1.55,1.55,0,0,1,.686-.64c.778-.32,1.738-.137,2.2-1.052-.274.046-.595.183-.823,0a1.067,1.067,0,0,0,.778-.457c0-.046.046-.046.046-.091l-.32.091a8.186,8.186,0,0,0-2.013.732,4.3,4.3,0,0,0-.549.823Zm0,28.821c-.274.595.595.229.778.412-.183-.274-.412-.549-.778-.412Zm-.046-25.8a2.015,2.015,0,0,0-.091.732c.549-.64,1.464-.366,2.1-.686.046,0,.046-.046.091-.046a1,1,0,0,0,.64-.778c-.274.046-.64.183-.915,0a5.368,5.368,0,0,1,.5-.229.8.8,0,0,0,.549-.595,8.24,8.24,0,0,1-1.876.64,2.117,2.117,0,0,0-.823.595A2.716,2.716,0,0,0,25.273,23.309ZM25.182,22.3v.183h.137a.632.632,0,0,1,.137-.183c.64-.732,1.83-.366,2.47-1.006a1.643,1.643,0,0,0,.32-.457h-1.1a1.768,1.768,0,0,0,.869-.549c.046-.046.046-.091.091-.137a1.743,1.743,0,0,1-.457.137c-.64.137-1.235.046-1.647.457a1.713,1.713,0,0,0-.549.595,2.957,2.957,0,0,0-.274.961Zm-.869,4.62a.541.541,0,0,0,.412.412h.229c.046,0,.091-.046.137-.046.457-.137.549-.549.64-.961a1.907,1.907,0,0,1,.366-.823,5.041,5.041,0,0,1-.091.823,2.645,2.645,0,0,1-.229.64c-.091.137-.183.229-.274.366a.8.8,0,0,1-.5.274,1.312,1.312,0,0,0,1.464-.046c.046-.091.137-.137.183-.229a6.478,6.478,0,0,0,.32-1.006,5.531,5.531,0,0,1,.229-.823l.137-.183a.727.727,0,0,1,.457-.366.146.146,0,0,1,.137.137v.046a.632.632,0,0,0-.183.137,1.6,1.6,0,0,0-.366,1.006,7.412,7.412,0,0,1-.046,1.006.848.848,0,0,1-.091.32.749.749,0,0,1-.686.457c.183.274.732.229,1.052.137a.16.16,0,0,1-.046.091,1.651,1.651,0,0,1-.183.229,2.082,2.082,0,0,0,.915-.229,1.311,1.311,0,0,0,.457-1.006,6.852,6.852,0,0,1,.091-1.006.65.65,0,0,1,.091-.274,1.189,1.189,0,0,1,.823-.64v.046a1.257,1.257,0,0,0-.457.869V27.29a1.31,1.31,0,0,1-.274,1.006l-.137.137a1.643,1.643,0,0,1-.457.32.925.925,0,0,0,1.1-.457h0a1.05,1.05,0,0,1-.183.64,1.087,1.087,0,0,0,.549-.137,1.1,1.1,0,0,0,.457-.457,1.885,1.885,0,0,0,.046-1.006,2.494,2.494,0,0,1-.046-1.006.848.848,0,0,1,.091-.32,1.139,1.139,0,0,1,.823-.686c.091.046.091.091.046.183a1.146,1.146,0,0,0-.366.823h0a7.412,7.412,0,0,0,.046,1.006,2.494,2.494,0,0,1-.046,1.006,1.326,1.326,0,0,1-.412.686c.412.183.869-.274,1.189-.686,0-.046.046-.046.046-.091v.091a3.647,3.647,0,0,1-.137.686.688.688,0,0,0,.732-.686,6.131,6.131,0,0,0-.046-.915v-1.1h0a1.146,1.146,0,0,1,.366-.823.306.306,0,0,1,.457,0c-.046.091-.137.046-.229.137a1.523,1.523,0,0,0-.229.686,3.81,3.81,0,0,0,.137,1.006,3.568,3.568,0,0,1,.137,1.006,1.549,1.549,0,0,1-.274.686h.137c.412,0,.686-.457.869-.732a.8.8,0,0,1-.229.686,1.13,1.13,0,0,0,.915-.64V28.3a1.523,1.523,0,0,0,.046-1.006h0c-.091-.366-.274-.686-.366-1.006a2.417,2.417,0,0,1-.046-.595c.091-.137.137-.366.32-.412a1.566,1.566,0,0,0,.229,1.006,6.735,6.735,0,0,1,.457,1.006,1.879,1.879,0,0,1,0,1.006c-.046.091-.046.183-.091.274a1,1,0,0,0,.366-.229h0c.137-.183.229-.32.366-.5v.549a.168.168,0,0,0,.046.137c.046-.046.137-.091.183-.137a2.1,2.1,0,0,0,.5-1.006,3.708,3.708,0,0,0,0-1.006v-.091a1.539,1.539,0,0,0-.595-.915,2.237,2.237,0,0,1-.823-1.006h0c0-.091-.046-.183-.046-.274A1.537,1.537,0,0,1,33.919,24a1.552,1.552,0,0,1-1.6-.046,1.9,1.9,0,0,1-1.235.091,1.247,1.247,0,0,1-.595-.686c0-.091-.046-.137-.046-.229.091.091.183.137.274.229.091.046.183.137.274.183a1.582,1.582,0,0,0,1.281-.183,2.514,2.514,0,0,0,.412-.32.2.2,0,0,1,.091.32h0a.357.357,0,0,1-.183.183,1.04,1.04,0,0,0,1.189-.183l.549-.412h.046c.229,0,.229.229.091.412a.457.457,0,0,1-.229.183.679.679,0,0,0,.595,0,.957.957,0,0,0,.274-.183,1.14,1.14,0,0,0,.183-1.006l-.046-.229-.183-.046a.758.758,0,0,1-.549.229h-.183a6.131,6.131,0,0,0-.915-.046,2.781,2.781,0,0,0-.869.046,3.152,3.152,0,0,0-.366.137,1.468,1.468,0,0,1-.778-.091,1.583,1.583,0,0,1-.5-.457,2.3,2.3,0,0,1-.091-.549,2.048,2.048,0,0,1,.183-.915c0-.046.046-.091.046-.137a2.262,2.262,0,0,1,1.738-.823c1.052.183,2.379.549,3.431.046a1.2,1.2,0,0,0,.595-.732,1.778,1.778,0,0,0,.091-.686l-.5.046a.3.3,0,0,1-.229-.412l.64.046a.8.8,0,0,0,.366-.549v-.137l-2.2-.778-.137-.137a1.594,1.594,0,0,0-.64-.595h-.732l-5.169-.046c-.137.091-.229.32-.366.366l-1.83-.549a2.924,2.924,0,0,0,.366.869,1.425,1.425,0,0,0,.32.412,1.033,1.033,0,0,0,1.006.274c.32.046.595-.686.915-.229a3.249,3.249,0,0,0,3.385-.457c.686,0,1.327.5,1.967.091,0-.046-.046-.091-.046-.183-.183-.274-.64-.229-.915-.366a.862.862,0,0,1,.366-.091,2.677,2.677,0,0,1,.595.091,2.96,2.96,0,0,1,.412.366.345.345,0,0,1,.046.366,1.372,1.372,0,0,1-1.189.32v.366a.635.635,0,0,1-.32.549,2.425,2.425,0,0,1-2.242,0c-.457-.64-1.418-.229-2.013-.5v3.934c0,.32-.046.686-.046,1.006a3.189,3.189,0,0,1-.274.869l-.091.137c-.64.823-1.784.5-2.608,1.006-.046.046-.091.046-.137.091a1.153,1.153,0,0,0-.274.915.275.275,0,0,0,.046.183,1.269,1.269,0,0,1,0,.823,2.031,2.031,0,0,1-.366.5A.666.666,0,0,1,24.312,26.924Zm.091,25.3c.137-.412-.32-.823-.686-.869v.457A1.167,1.167,0,0,1,24.4,52.222Zm-3.751-.686a1.37,1.37,0,0,1-.183.457,1.8,1.8,0,0,1,.64.366A1.022,1.022,0,0,0,20.653,51.536ZM18.731,18.094l-.595-.274a2.959,2.959,0,0,1,.183.595.507.507,0,0,1,.412-.32ZM18,19.65l-.457-.183a2.227,2.227,0,0,0,.046.549c.229-.137.412-.274.64-.412v-.778h-.046A5.319,5.319,0,0,1,18,19.65Zm-.32-.915a1,1,0,0,1-.366.229,1.09,1.09,0,0,0,.5.274,1.877,1.877,0,0,0-.046-.5c0-.046-.046-.046-.046-.091a.16.16,0,0,1-.046.091Zm-.915-2.745.274.229,1.052.961.091.046a4.992,4.992,0,0,1,1.876,1.51,3.927,3.927,0,0,1,.595,1.052s.412-.366.595-.549l-.549-.5-.961-.915.595-.595,2.379-2.516.915-.961.5-.549,2.287-2.516,2.2-2.379.091-.137L29.939,6.7a.168.168,0,0,0-.137-.046l-1.647,1.51L26.829,9.357l-1.372,1.327L22.8,13.2l-1.51,1.464-.046.046-1.51,1.51-.732.732a9.16,9.16,0,0,1-.64-.732c-.229-.274-.457-.595-.686-.869h-.091Zm.046,1.6a1.069,1.069,0,0,0,.229.961c.137.091.366.183.457,0a.828.828,0,0,0,.046-.732c-.137-.274-.595-.732-.732-.229Zm.183,1.738a.537.537,0,0,1-.457.412,1.6,1.6,0,0,0,.64.274,1.1,1.1,0,0,0-.183-.686Zm-.5.961a3.531,3.531,0,0,0,.091.686l.549-.549L16.9,20.29l-.457-.229A.343.343,0,0,1,16.49,20.29ZM16.4,35.936a3.811,3.811,0,0,0-.183.686l.5-.686a4.625,4.625,0,0,0,.732-1.51,2.232,2.232,0,0,0,.046-.778c-.137.274-.274.5-.412.778a4.522,4.522,0,0,0-.686,1.51Zm-.64-17.109a.911.911,0,0,0,.366.549c.229.137.412,0,.595-.137s.046-.32,0-.5h0a.636.636,0,0,0-.549-.457.537.537,0,0,0-.412.457C15.758,18.781,15.758,18.781,15.758,18.826Zm-.091,1.967a.959.959,0,0,0,.5.183,1.351,1.351,0,0,0-.091-.595A.485.485,0,0,1,15.666,20.793Zm-.32.5a1.3,1.3,0,0,0,.412.457l.366-.412-.091-.046-.5-.183A.168.168,0,0,0,15.346,21.3Zm-.229-1.784c-.137.183-.046.412,0,.595.046.046.046.091.091.137a.435.435,0,0,0,.457.183.3.3,0,0,0,.229-.183.791.791,0,0,0-.046-.457C15.712,19.6,15.392,19.238,15.117,19.512ZM11.64,29.348a1.218,1.218,0,0,0,.137.549,2.446,2.446,0,0,1,.595-.595.615.615,0,0,0,.274-.32,5,5,0,0,0,.366-.686v0l.091.5a2.227,2.227,0,0,1-.046.549c-.137.366-.549.5-.915.869a1.236,1.236,0,0,0-.183,1.052,1.254,1.254,0,0,1,.961-.686,1.277,1.277,0,0,0,.961-1.235,7.412,7.412,0,0,0,.046-1.006h0a2.59,2.59,0,0,1,.137-.823.238.238,0,0,1,.091-.183,1.773,1.773,0,0,1,1.189-.686,2.891,2.891,0,0,1,1.784.686,4.125,4.125,0,0,1,.412.457,2.579,2.579,0,0,1,.183.549,3.753,3.753,0,0,1,.091,1.006,6.2,6.2,0,0,1-.5,2.013c-.137.32-.274.595-.412.915-.091.183-.229.412-.32.595-.274.5-.5,1.006-.732,1.51h0c-.229.5-.412,1.006-.595,1.51h0a8.735,8.735,0,0,0-.274,1.51h0v.961a3.652,3.652,0,0,0,.64,2.059h0a4.061,4.061,0,0,0,1.189,1.144c1.144.732,2.47.046,3.568-.229a1.643,1.643,0,0,1,.32.457,4.645,4.645,0,0,1,.274,1.144,2.056,2.056,0,0,1-.183,1.052c-.686,1.006-1.876,1.144-2.974,1.372-.046.046-.091.046-.137.091a1.431,1.431,0,0,0-.595,1.144A3.3,3.3,0,0,0,18,46.183c0,.091.091.229.046.32-.091.366-.5.457-.778.64a.821.821,0,0,0-.229.32,1.461,1.461,0,0,0-.137.64c.457.046.686-.32.915-.64a1.39,1.39,0,0,1,.229-.32l.046.183v.091c-.091.595-.869.961-1.052,1.51a.94.94,0,0,0,0,.5l.549-.5.64-.549.046.549a8.366,8.366,0,0,0-.091,1.51,1.982,1.982,0,0,0,.046.229,2.673,2.673,0,0,0,2.013,1.052c.183-.274-.549-.64-.412-.732a1.672,1.672,0,0,0,1.052.046l.5.274c.549.412,1.464.137,1.967.274a.563.563,0,0,0-.229-.457,1.078,1.078,0,0,0-.915-.137c.32-.64,1.006-.229,1.51-.137s1.052.229,1.372-.183a1,1,0,0,0-.137-.229c-.457-.595-1.464-.137-2.059-.274a.29.29,0,0,1-.229-.274,3.58,3.58,0,0,1,1.555-.229,1,1,0,0,1,.64-.366,1.08,1.08,0,0,0-.412-.366,1.268,1.268,0,0,0-.915-.137,2.23,2.23,0,0,0-.32.137,3.154,3.154,0,0,1-1.738.869,1.423,1.423,0,0,1-1.189-.686v-.183a5.569,5.569,0,0,1,.046-1.51,2.073,2.073,0,0,1,.5-.869c1.372-.686,3.248.137,4.483-.823.091-.091.137-.229.229-.32a1.682,1.682,0,0,0,.229-1.144.649.649,0,0,1,.366.412,1.01,1.01,0,0,1,0,.732,3.176,3.176,0,0,1-.229.595,2.3,2.3,0,0,0,1.144-.595,1.1,1.1,0,0,0,.32-.549,1.677,1.677,0,0,0-.5-1.51l.046-.046A1.7,1.7,0,0,1,28.2,44.49a1.32,1.32,0,0,0-.229-1.555c-.229-.229-.412-.457-.64-.732h.183a1.587,1.587,0,0,1,1.189.732c0,.046.046.046.046.091l.046-.091a1.17,1.17,0,0,0-.091-.961,9.9,9.9,0,0,0-1.1-1.6c-.549-.686-1.006-1.372-.5-2.287.091-.137.183-.366.32-.32,0,.457-.137.823.137,1.144l.366-.778c.229-.229.457-.5.686-.686a19.349,19.349,0,0,1,1.876-1.51c.64-.457,1.327-1.006,1.921-1.51a5.483,5.483,0,0,0,.549-.5l-.457.091c-.915-.091-2.059.274-2.791-.549a1.958,1.958,0,0,1-1.784-.5,2.266,2.266,0,0,1-.778-.091h0a1.491,1.491,0,0,1-1.052-.823c-.046-.32-.366-.457-.64-.686a1.213,1.213,0,0,1-.229-.274c0-.046-.046-.091-.046-.137a.583.583,0,0,1,0-.549l.091.091c.137.137.457.091.412-.046a8.429,8.429,0,0,1-.229-1.144,2.516,2.516,0,0,1,.091-1.006h0a1.367,1.367,0,0,1-1.144-.457,1.1,1.1,0,0,1-.32-.549,1.885,1.885,0,0,1-.046-1.006,1.981,1.981,0,0,1,.046-.229.457.457,0,0,1,.183.229.253.253,0,0,0,.366.137h0l.137-.137a.275.275,0,0,0,.046-.183c-.32-.274-.595-.549-.915-.823-.366-.32-.732-.686-1.144-1.006a6.975,6.975,0,0,1-1.006-1.006,6.689,6.689,0,0,1-.732-.869c0-.046-.046-.091-.046-.137a8.9,8.9,0,0,0-.366-1.006,9.315,9.315,0,0,0-.412-1.006l-.137-.32c-.229-.412-.5-.823-.732-1.189-.229-.274-.5-.457-.686-.229a.349.349,0,0,0-.091.229,1.255,1.255,0,0,0,.046.915c.091.183.183.412.274.595a1.643,1.643,0,0,0,.32.457c.091.137.183.274.046.366-.366.137-.549-.091-.778-.32a.688.688,0,0,0-.183-.5.045.045,0,0,1-.046-.046l-.046.046h0c-.366.32-.732.64-1.1,1.006-.183.183-.32.366-.5.549l-.091.091a1.747,1.747,0,0,0,.412.412,2.921,2.921,0,0,0,1.327.732.616.616,0,0,1,.412.229h0A2.532,2.532,0,0,1,19.1,24.27c.091.366.183.686.274,1.052h0c.046.137.137.32.274.274.046,0,.046-.137.046-.32a.919.919,0,0,1,.183-.595c0-.046.046-.091.091-.046a.045.045,0,0,1,.046.046,2.609,2.609,0,0,0,.046.595,3.891,3.891,0,0,0,.183,1.006,2.668,2.668,0,0,0,.366.823c.046.091.137.091.137-.046a4.029,4.029,0,0,1,.091-.778,1.09,1.09,0,0,1,.274-.5l.137.091-.046.412-.046.64a1.077,1.077,0,0,0,.091.366h0a7.522,7.522,0,0,0,.64,1.006h.046c.091-.091,0-.823.229-1.006.046,0,.046-.046.091-.046s.046,0,.091.046a7.6,7.6,0,0,1,.137,1.006.347.347,0,0,0,.091.183,9.277,9.277,0,0,0,.595.823,7.646,7.646,0,0,1,1.418,2.013h0a2.147,2.147,0,0,1,.046,1.51h0l-.046.091a5.21,5.21,0,0,1-.732,1.418h0a13.317,13.317,0,0,1-1.189,1.51,18.731,18.731,0,0,0-1.281,1.51A5.688,5.688,0,0,0,20.1,40.236a.632.632,0,0,1-.183.137,2.753,2.753,0,0,1-1.876.457,1.883,1.883,0,0,1-.961-.457,1.249,1.249,0,0,1-.412-.549,2.846,2.846,0,0,1,.229-2.287l.137-.183c.32-.5.686-1.006.961-1.51a4.27,4.27,0,0,0,.549-1.51,2.825,2.825,0,0,0-.183-1.51c0-.046-.046-.046-.046-.091a1.246,1.246,0,0,0-.366-.457,2.8,2.8,0,0,0-.229.549l-.091.229a2.223,2.223,0,0,1,.229,1.327h0a3.686,3.686,0,0,1-.64,1.51c-.366.5-.778,1.006-1.1,1.51a2.732,2.732,0,0,0-.274.5H15.8a1.876,1.876,0,0,1-.046-.5,4.329,4.329,0,0,1,.229-1.51c.183-.5.366-1.006.595-1.51.046-.137.137-.32.183-.457.183-.366.412-.686.595-1.052.229-.5.5-1.006.686-1.51.183-.412.32-.869.457-1.281a4,4,0,0,0,.091-.732,7.412,7.412,0,0,0-.046-1.006,3.883,3.883,0,0,0-.412-1.006c-.091-.137-.183-.229-.274-.366a2.528,2.528,0,0,0-.778-.64,4.648,4.648,0,0,0-2.379-.32,14.64,14.64,0,0,0-1.51.32,2.32,2.32,0,0,0-.732.412,2.937,2.937,0,0,0-.457.595h0a1.566,1.566,0,0,0-.229,1.006v.046l.091-.046a1.979,1.979,0,0,0,.823-1.006h0c0-.046.046-.091.046-.137.046.046.091.091.091.137s.046.046.046.091a1,1,0,0,1-.366.915c-.183.183-.366.32-.549.5A.534.534,0,0,0,11.64,29.348Zm-.046,2.013a1,1,0,0,1,.046-.64l-.229-.046a6.257,6.257,0,0,0-.091-1.327c0-.091-.046-.137-.046-.229V28.3h0A4,4,0,0,1,11.5,27.29h0a1.37,1.37,0,0,1,.183-.366,2.408,2.408,0,0,1,.549-.64,5.78,5.78,0,0,1,2.928-.869H15.3a4.151,4.151,0,0,1,2.7.869c.091.091.183.137.274.229.046.046.091.137.183.183a2.594,2.594,0,0,1,.366.595A3.634,3.634,0,0,1,19.1,28.3a3.707,3.707,0,0,1,0,1.006h0a7.567,7.567,0,0,1-.457,2.013L18.365,32a4.3,4.3,0,0,1,.549.823,1.917,1.917,0,0,1,.183.686,2.487,2.487,0,0,1,0,.823h0a4.27,4.27,0,0,1-.549,1.51c-.274.5-.64,1.006-.915,1.51a9.143,9.143,0,0,0-.457.961.473.473,0,0,0-.046.183,1.3,1.3,0,0,0-.183.732,1.032,1.032,0,0,0,.686.961,2.253,2.253,0,0,0,2.013-.229,4.789,4.789,0,0,1,1.1-2.562,18.732,18.732,0,0,1,1.281-1.51c.457-.5.869-1.006,1.281-1.51a6.646,6.646,0,0,0,.823-1.464v-.046a1.918,1.918,0,0,0-.046-1.51,5,5,0,0,0-.366-.686l-.046-.091c-.32-.412-.595-.869-.961-1.281a2.169,2.169,0,0,0-.457-.457l-.137.457v.046l-.046-.046a4.9,4.9,0,0,1-.686-1.006l-.457-.778c-.091.137.046.32-.091.457a2.025,2.025,0,0,1-.549-.686,6.529,6.529,0,0,1-.366-1.006c0-.046-.046-.137-.046-.183l-.183.229-.183.32-.046-.046-.137-.274c-.091-.229-.229-.64-.366-1.006s-.229-.686-.366-1.006c-.183-.457-.32-.823-.412-.823l-.32-.183-.366-.137-.091-.091a5.954,5.954,0,0,1-1.052-.823h0l-.32-.32-.091.091c-.457.137-.686-.457-.961-.778h0a.643.643,0,0,1,.091-.64,1.6,1.6,0,0,1-.229-.366,2.8,2.8,0,0,1-.229-.549.666.666,0,0,1,.595-.732h.183a.412.412,0,0,1-.046-.229.87.87,0,0,1,.732-.961h.183a.844.844,0,0,1,.229-.549.836.836,0,0,1,.595-.366,3.951,3.951,0,0,0-.595-.64l-.229-.229L17.588,14.8a18.279,18.279,0,0,1,1.235,1.418l.046.091.091-.091,1.6-1.51,1.6-1.51,2.608-2.562,1.189-1.144,1.555-1.372,1.327-1.235A3.078,3.078,0,0,1,30.168,6.2a.2.2,0,0,1,.137.183A12.352,12.352,0,0,1,29.07,8.167c-.686.869-1.418,1.693-2.1,2.516l-.046.046-.137.137-2.1,2.333-1.372,1.51-1.372,1.51-.915,1.006-.64.686c.229.229.5.457.732.686l.091.046.091.091.549.549-.961.869c0,.046,0,.046.046.091.091.32.229.686.32,1.006a9.315,9.315,0,0,0,.412,1.006h0c.32.32.595.686.915,1.006l1.006,1.006a12.993,12.993,0,0,0,1.144,1.052l.091.091c0-.046,0-.046.046-.091a1.93,1.93,0,0,0-.137-1.006h0a.875.875,0,0,1,.091-.823c-.046-.046-.046-.091-.091-.183a1.885,1.885,0,0,1-.046-1.006c.046-.274.137-.549.183-.778-.046-.046-.046-.137-.091-.229a2.494,2.494,0,0,1,.046-1.006l.137-.412a4.409,4.409,0,0,1,0-1.1c.046-.137.046-.274.091-.412a1.983,1.983,0,0,1,1.51-1.1l.137-.046a1.977,1.977,0,0,1-.778-.961h0c-.046-.091-.091-.229-.137-.32a2.3,2.3,0,0,1-.091-.961,7.175,7.175,0,0,1,1.693.229V14.48a1.612,1.612,0,0,1-.915-.64l-.046-.046a1.25,1.25,0,0,0-.869-.366c.046-.046.046-.137.091-.183a.666.666,0,0,1,.274-.412,1.061,1.061,0,0,1,.823-.183.586.586,0,0,1,.183-.732c.046,0,.046-.046.091-.046a.548.548,0,0,1,.046-.64.587.587,0,0,1,.457-.183.55.55,0,0,1,.091-.366.566.566,0,0,1,.64-.183.54.54,0,0,1,.64-.412c.091,0,.137.046.229.091a.523.523,0,0,1,.686-.274.16.16,0,0,1,.091.046.9.9,0,0,1,.823-.915v-.32H30.26V8.442h.457V8.076h.32v.366h.457v.274h-.457v.32a.936.936,0,0,1,.823.915c.046-.046.046-.046.091-.046a.275.275,0,0,1,.183-.046c.091,0,.229.046.32.046a.357.357,0,0,1,.183.183.635.635,0,0,1,.5-.091.558.558,0,0,1,.366.412.562.562,0,0,1,.595.091c.046.046.046.091.091.137a.343.343,0,0,1,.046.229.735.735,0,0,1,.5.229.626.626,0,0,1,.091.686.457.457,0,0,1,.229.183.481.481,0,0,1,0,.595c.274-.046.732-.046.915.229a1.854,1.854,0,0,1,.229.412v.046c-.732.046-1.1.961-1.784,1.281v.183l-.046.64a1.994,1.994,0,0,0,1.144.869h0a14.891,14.891,0,0,1,2.013.686.58.58,0,0,1-.046.274l.046.091a.168.168,0,0,0-.046.137,7.622,7.622,0,0,0-.366,1.372c-.046.137-.046.274-.091.366a2.575,2.575,0,0,1-2.059,1.144l-.457.046c.274.091.64.229.823.274.5.091.869.274,1.281-.046a.65.65,0,0,0,.091-.274v-.366c.091-.229.5-.137.732-.046a4.124,4.124,0,0,1,.457.412c.046.046.091.137.137.183a1.035,1.035,0,0,1-.046.823h0a1,1,0,0,1-.137.229c-.5.732-1.464.64-2.2.64V22.3a1.879,1.879,0,0,1,0,1.006,1.418,1.418,0,0,1-.274.595l.137.412a9.555,9.555,0,0,0,.915,1.006h0l.046.046a.045.045,0,0,1,.046-.046,2.9,2.9,0,0,1,1.83-1.51,2.073,2.073,0,0,1,1.876.229.415.415,0,0,1,.137.32,1.556,1.556,0,0,1-.046.457.8.8,0,0,1-.686.457l.046.091.137-.046a.635.635,0,0,0,.457.229h.183l.366-.137a.168.168,0,0,0-.046-.137.412.412,0,0,1-.046-.229.9.9,0,0,1,.046-.686c.046-.046.046-.091.091-.137a1.3,1.3,0,0,1,1.189-.412c.274-.091.366-.366.549-.595a.463.463,0,0,1,.32-.183h.137a.529.529,0,0,1,.32.229,3.154,3.154,0,0,1,.32.686.842.842,0,0,1,.823.366c0,.046.046.091.046.137a.6.6,0,0,1,.778.412c0,.046.046.137.046.183a.473.473,0,0,1,.64.274.58.58,0,0,1,.046.274,1.7,1.7,0,0,0,.64-.183,1.336,1.336,0,0,1-.412-.091l-.137-.137A.7.7,0,0,1,46,24.362c0-.046,0-.046.046-.091a1.171,1.171,0,0,1,.595-.457,2.483,2.483,0,0,1,2.1.457c.091.091.183.137.229.229a4.344,4.344,0,0,1,.457.778,3.634,3.634,0,0,1,.274,1.006,7.412,7.412,0,0,1,.046,1.006,7.6,7.6,0,0,1-.137,1.006c-.091.32-.183.686-.274,1.006a11.354,11.354,0,0,1-.915,2.013l-.137.274h0c-.091.137-.137.229-.229.366-.183.32-.412.595-.595.869a13.6,13.6,0,0,1-1.235,1.51h0a15.285,15.285,0,0,1-1.464,1.51c-.5.457-1.1.961-1.647,1.418L42.7,36.9H42.52c-.366-.32-.732-.64-1.1-1.006-.5-.5-1.006-1.006-1.464-1.51s-.869-1.006-1.281-1.51h0c-.412-.5-.778-1.006-1.144-1.51l-.229-.274a.254.254,0,0,0-.366.091c0,.046-.046.137-.046.183a2.318,2.318,0,0,1-.32.686,1.664,1.664,0,0,1-1.51.549,1.213,1.213,0,0,0-.229.274,12.506,12.506,0,0,1-1.6,1.51c-.64.5-1.281.961-1.876,1.464-.183.137-.32.274-.5.412a1.213,1.213,0,0,1,.915.549l-.961.549-.366.183c3.248.229,7-.091,9.058,2.7l.046.091h0a4.153,4.153,0,0,1,.549,1.418,4.454,4.454,0,0,1,.091,1.1h0c0,.091-.046.137-.091.229a1.431,1.431,0,0,0-.457-.229h-.046a2.654,2.654,0,0,1-1.281,2.516h0a.168.168,0,0,1-.137.046l.046.046-.137-.366a2.538,2.538,0,0,1-.274.366,17.011,17.011,0,0,1-2.059,1.51,1.09,1.09,0,0,0-.274.5h0a2.814,2.814,0,0,0,0,1.235.309.309,0,0,0,.183.274c.274.183.778.046,1.1.137l.137-.137a2.81,2.81,0,0,1,2.425-1.189,1.316,1.316,0,0,1,.915-.229,1.022,1.022,0,0,1,.823.457.778.778,0,0,1,.091.64,1.6,1.6,0,0,0-1.418.274c.091,0,.229.046.32-.046a7.447,7.447,0,0,0,1.418.137.944.944,0,0,1,.778.457,1.647,1.647,0,0,1,.091,1.052.168.168,0,0,1-.046.137l-.091-.137-.183-.183a1,1,0,0,0-1.006-.137c.046.229.366.137.549.229.046.046.091.046.137.091h0a.8.8,0,0,1,.32.64c0,.183.046.549-.091.732l-.091.091a.863.863,0,0,0-.961-.5c-.549.595-1.555.366-2.2.229l.046.046a1.147,1.147,0,0,1,.183.32,1.94,1.94,0,0,1-.366,1.51,2,2,0,0,0-.686-1.144,18.276,18.276,0,0,0-3.157-.183,4.234,4.234,0,0,1-1.052-.183,1.08,1.08,0,0,1-.412-.366.828.828,0,0,1,.046-.732,3.234,3.234,0,0,1-1.189.595,7.412,7.412,0,0,0,.046-1.006A3.9,3.9,0,0,0,32,49.523a.65.65,0,0,1-.274.091v-.595a2.551,2.551,0,0,1,.457-1.281c-.091-.046-.183.091-.274.046v-.137a2.227,2.227,0,0,1,.046-.549A2.074,2.074,0,0,1,33.1,45.634a2.137,2.137,0,0,1,.457-.229,1.2,1.2,0,0,0,.091-1.235,3.383,3.383,0,0,0-.915-1.052,8.146,8.146,0,0,0-3.614-1.1,4.42,4.42,0,0,1,.046,1.1,1.864,1.864,0,0,1-.229.823l-.183-.183a2.437,2.437,0,0,1-.869,1.876c-.046-.091-.046-.274-.183-.274-.046.091-.091.229-.137.32a3.321,3.321,0,0,1-2.333,1.189l-.046-.412c-1.189.732-3.019-.183-4.163.686a.92.92,0,0,0-.183.366,1.918,1.918,0,0,0-.046,1.51c.046.091.091.137.091.183a1.346,1.346,0,0,0,1.372-.183,4.015,4.015,0,0,0,.686-.549,1.98,1.98,0,0,1,1.967.32,2.59,2.59,0,0,1,.823.137c.046,0,.046.046.091.046a1.1,1.1,0,0,1,.549.915,1.766,1.766,0,0,0-1.51-.137c.274.366.686.457.961.732a.821.821,0,0,1,.229.32.733.733,0,0,1-.046.686c-.457-.137-1.144-.457-1.6-.046a.758.758,0,0,1,.229.549,3.17,3.17,0,0,1-.137.915c-.64-1.281-2.1-.64-3.2-.869l-.046.778a8.336,8.336,0,0,0-2.333-.823,3.176,3.176,0,0,1-.595-.229,1.833,1.833,0,0,1-.869-1.281,4.972,4.972,0,0,1-.046-.823l-.823.64c-.046-.137-.091-.595-.137-.732v-.595a1.556,1.556,0,0,1,.046-.457c-.091.046-.137.137-.229.046a9.37,9.37,0,0,1,.229-1.1c.046-.137.046-.229.091-.366l-.091.092a3.8,3.8,0,0,1,.046-1.006,2.252,2.252,0,0,1,.274-.778c.686-.961,2.379-.32,3.2-1.464a1.78,1.78,0,0,0,.32-1.052,2.082,2.082,0,0,0-.229-.915,5.45,5.45,0,0,1-2.242.32,3.433,3.433,0,0,1-2.791-1.921.16.16,0,0,0-.046-.091c0-.046-.046-.046-.046-.091a5.494,5.494,0,0,1-.366-2.836,8.735,8.735,0,0,1,.274-1.51c.137-.5.32-1.006.5-1.51l.046-.137c.183-.457.457-.915.64-1.372.046-.091.046-.137.091-.229a1.32,1.32,0,0,0-1.555.229,1.213,1.213,0,0,0-.229.274A4.331,4.331,0,0,0,14.2,34.38h0c0,.5.046,1.006.046,1.51a1.965,1.965,0,0,1-.32,1.144,1.6,1.6,0,0,1-.229.366h0c-.549.732-1.555.595-2.242,1.189-.183-.274.046-.64.046-.869a2.148,2.148,0,0,1-.412.274V37.4h0a2.073,2.073,0,0,1,.366-1.006c-.183-.046-.32.137-.457.091v-.64a6.1,6.1,0,0,1,.137-1.281v-.229a2.152,2.152,0,0,1,.961-1.51l.229-.137A10.317,10.317,0,0,0,14.019,31.5l.183-.183a2.8,2.8,0,0,1,2.745-.229A7.29,7.29,0,0,0,17.4,29.3a3.719,3.719,0,0,0-.046-1.006l-.046-.137a1.784,1.784,0,0,0-.869-.869,2.459,2.459,0,0,0-.961-.229,1.233,1.233,0,0,0-.686.229,1.339,1.339,0,0,0-.32,1.006V29.3h0a1.112,1.112,0,0,1-.412.823c-.412.64-1.144.778-1.647,1.189a1.283,1.283,0,0,0-.457.64A1.017,1.017,0,0,1,11.595,31.361ZM11.5,36.027a.632.632,0,0,1,.183-.137,2.936,2.936,0,0,0,.686-1.418.587.587,0,0,1,.183.457,1.436,1.436,0,0,1-.32.961c-.274.457-.686.915-.64,1.464l.046-.046a2.616,2.616,0,0,0,1.1-1.235c.274.549-.137.915-.5,1.327h0c-.137.137-.229.274-.366.412a2.59,2.59,0,0,0,.823-.137,1.1,1.1,0,0,0,.366-.274,2.423,2.423,0,0,0,.686-1.51c0-.091.046-.183.046-.274a11.148,11.148,0,0,0-.046-1.235,2.2,2.2,0,0,1,.274-1.51c.046-.046.091-.137.137-.183a1.908,1.908,0,0,1,2.287-.457c.091-.183.137-.32.32-.64a2.777,2.777,0,0,0-.823-.229h-.686c-.686.137-1.144.778-1.738,1.1-.229.137-.457.274-.732.412a5.663,5.663,0,0,0-.823.64,1.841,1.841,0,0,0-.412.915,5.569,5.569,0,0,0-.046,1.51Z" transform="translate(1.032 -0.364)"/><path d="M63.27,2.176h0a1.321,1.321,0,0,0,1.372.686.929.929,0,0,0,.915-.457c.046-.046.046-.091.046-.183a.639.639,0,0,0-.137-.412,1.09,1.09,0,0,0-.823-.229c-.366,0-.091.274-.274.457-.091.091-.183.137-.274,0a.512.512,0,0,1,.137-.686,1.515,1.515,0,0,1,1.1,0,9.654,9.654,0,0,1,1.967.915c.869.457,1.738,1.006,2.608,1.51.366.183.778.366,1.189.549h0a18.388,18.388,0,0,0,7.548.961,6.272,6.272,0,0,0,3.2-.961,1.95,1.95,0,0,0,.5-.549,1.078,1.078,0,0,0,.091-1.052,1.164,1.164,0,0,0-.549-.5,4.785,4.785,0,0,0-1.647-.274,2.349,2.349,0,0,0-1.144.274h-.046a.567.567,0,0,0-.229.686,1.413,1.413,0,0,0,.732.5,1.1,1.1,0,0,0,1.006-.137c.183-.412-.5-.595-.274-.961.137-.137.595.046.823.366a1.218,1.218,0,0,1,.137.549,1.441,1.441,0,0,1-.915.869l-.274.091a12.306,12.306,0,0,1-7.594,0L72.008,4.1a18.428,18.428,0,0,1-3.66-1.876A9.71,9.71,0,0,0,65.283.849a1.967,1.967,0,0,0-2.059.686A.645.645,0,0,0,63.27,2.176Z" transform="translate(-27.266 2.563)" fill="none"/><path d="M2.371,4.267a6.862,6.862,0,0,0,3.065.915,16.216,16.216,0,0,0,6.771-.915,12.192,12.192,0,0,0,2.562-1.281c.412-.183.869-.457,1.327-.686,1.1-.595,2.2-1.189,2.928-1.006a.524.524,0,0,1,.32.595c0,.274-.366.366-.457.229a.086.086,0,0,1,0-.137.275.275,0,0,0,.046-.183c-.091-.183-.32-.183-.5-.137a.869.869,0,0,0-.686.366.678.678,0,0,0-.046.32.5.5,0,0,0,.183.412,1.286,1.286,0,0,0,1.281-.046,2.594,2.594,0,0,0,.595-.366c.366-.32.595-.778.274-1.144l-.046-.046c-1.189-.869-4.072.457-4.62.823-.137.137-.32.229-.457.366a14.032,14.032,0,0,1-4.163,2.013,11.555,11.555,0,0,1-4.163.457,7.819,7.819,0,0,1-2.287-.457,4.16,4.16,0,0,1-1.51-1.1.645.645,0,0,1-.046-.64,1.233,1.233,0,0,1,.32-.366.587.587,0,0,1,.457-.183c.091.046.183.091.183.137h0c.091.274-.732.457-.366.778A1.521,1.521,0,0,0,4.8,2.849a.516.516,0,0,0,.137-.5.142.142,0,0,0-.046-.091,1.111,1.111,0,0,0-.64-.412,2.841,2.841,0,0,0-2.425.32l-.091.091a1.338,1.338,0,0,0-.183,1.1A3.188,3.188,0,0,0,2.371,4.267Z" transform="translate(6.184 2.53)" fill="none"/><path d="M47.251,34.537a1.765,1.765,0,0,1-.5-.778,2.3,2.3,0,0,1-.091-.549V27.217L46.7,25.8V19.578c0-.778,1.189-.869,1.83-.823.457,0,.5-.412.5-.732l-.091-5.49V5.487l-.046.046c-.183.183-.366.32-.549.5-1.647,1.052-4.3.915-6.039.823h-.137l-1.189-.091a10,10,0,0,1-1.144-.183,12.035,12.035,0,0,1-3.294-1.052c-1.327-.595-2.562-1.372-3.889-2.013l-.229-.091V3.52h0a1.164,1.164,0,0,1-.091.32c-.229.595-1.006.778-1.555.778h-.137l-.137-.046a3.885,3.885,0,0,1-.412-.137,42.879,42.879,0,0,0-5.4-.412,46.369,46.369,0,0,0-5.032.274c-.5.046-1.647.412-2.333-.091h0l-.046-.046a.9.9,0,0,1-.274-.64.678.678,0,0,1,.046-.32c-.229.091-.457.229-.64.32-1.052.595-2.059,1.235-3.111,1.876l-.366.137A14.756,14.756,0,0,1,8.5,6.677c-2.47.137-5.307.457-7.137-1.144-.046-.046-.137-.091-.183-.183V9.559c-.046,3.477-.046,7.96-.046,8.1a.982.982,0,0,0,.091.5c.091.274.64.366.823.366h.229a.65.65,0,0,1,.274.091,1.231,1.231,0,0,1,.869,1.052L3.287,29.6v.137L3.2,33.073a3.811,3.811,0,0,1-.183.686,1.046,1.046,0,0,1-.32.457A1.752,1.752,0,0,1,1,34.583v.091L1.137,45.2v.091A10.23,10.23,0,0,0,2.51,49.862a7.894,7.894,0,0,0,3.843,3.477l.091.046a11.213,11.213,0,0,0,3.019.732c2.882.091,5.81.046,8.692.183h.137a8.016,8.016,0,0,1,6.725,2.928c1.647-2.333,4.666-2.928,7.365-2.882h.137c3.019-.091,8.738.274,10.751-.595a8.8,8.8,0,0,0,4.3-3.843A11.641,11.641,0,0,0,48.9,44.235l.046-7.274V36.87a9.9,9.9,0,0,0-.091-2.013A1.992,1.992,0,0,1,47.251,34.537Z" transform="translate(6.457 1.264)" fill="none"/><path d="M41.9,2.638a44.932,44.932,0,0,1,9.607.137,1.643,1.643,0,0,1-.32-.457,1.077,1.077,0,0,1-.091-.366A1.316,1.316,0,0,1,51.736.9a45.274,45.274,0,0,1-4.62.366A40.849,40.849,0,0,1,42.357.9a3.37,3.37,0,0,1,.183.64,1.071,1.071,0,0,1-.32.778A2.113,2.113,0,0,0,41.9,2.638Z" transform="translate(-15.732 2.512)" fill="#fff"/><path d="M41.9,2.638a44.932,44.932,0,0,1,9.607.137,1.643,1.643,0,0,1-.32-.457,1.077,1.077,0,0,1-.091-.366A1.316,1.316,0,0,1,51.736.9a45.274,45.274,0,0,1-4.62.366A40.849,40.849,0,0,1,42.357.9a3.37,3.37,0,0,1,.183.64,1.071,1.071,0,0,1-.32.778A2.113,2.113,0,0,0,41.9,2.638Z" transform="translate(-15.732 2.512)" fill="none"/><path d="M47.251,34.537a1.765,1.765,0,0,1-.5-.778,2.3,2.3,0,0,1-.091-.549V27.217L46.7,25.8V19.578c0-.778,1.189-.869,1.83-.823.457,0,.5-.412.5-.732l-.091-5.49V5.487l-.046.046c-.183.183-.366.32-.549.5-1.647,1.052-4.3.915-6.039.823h-.137l-1.189-.091a10,10,0,0,1-1.144-.183,12.035,12.035,0,0,1-3.294-1.052c-1.327-.595-2.562-1.372-3.889-2.013l-.229-.091V3.52h0a1.164,1.164,0,0,1-.091.32c-.229.595-1.006.778-1.555.778h-.137l-.137-.046a3.885,3.885,0,0,1-.412-.137,42.879,42.879,0,0,0-5.4-.412,46.369,46.369,0,0,0-5.032.274c-.5.046-1.647.412-2.333-.091h0l-.046-.046a.9.9,0,0,1-.274-.64.678.678,0,0,1,.046-.32c-.229.091-.457.229-.64.32-1.052.595-2.059,1.235-3.111,1.876l-.366.137A14.756,14.756,0,0,1,8.5,6.677c-2.47.137-5.307.457-7.137-1.144-.046-.046-.137-.091-.183-.183V9.559c-.046,3.477-.046,7.96-.046,8.1a.982.982,0,0,0,.091.5c.091.274.64.366.823.366h.229a.65.65,0,0,1,.274.091,1.231,1.231,0,0,1,.869,1.052L3.287,29.6v.137L3.2,33.073a3.811,3.811,0,0,1-.183.686,1.046,1.046,0,0,1-.32.457A1.752,1.752,0,0,1,1,34.583v.091L1.137,45.2v.091A10.23,10.23,0,0,0,2.51,49.862a7.894,7.894,0,0,0,3.843,3.477l.091.046a11.213,11.213,0,0,0,3.019.732c2.882.091,5.81.046,8.692.183h.137a8.016,8.016,0,0,1,6.725,2.928c1.647-2.333,4.666-2.928,7.365-2.882h.137c3.019-.091,8.738.274,10.751-.595a8.8,8.8,0,0,0,4.3-3.843A11.641,11.641,0,0,0,48.9,44.235l.046-7.274V36.87a9.9,9.9,0,0,0-.091-2.013A1.992,1.992,0,0,1,47.251,34.537Z" transform="translate(6.457 1.264)" fill="none"/><path d="M63.27,2.176h0a1.321,1.321,0,0,0,1.372.686.929.929,0,0,0,.915-.457c.046-.046.046-.091.046-.183a.639.639,0,0,0-.137-.412,1.09,1.09,0,0,0-.823-.229c-.366,0-.091.274-.274.457-.091.091-.183.137-.274,0a.512.512,0,0,1,.137-.686,1.515,1.515,0,0,1,1.1,0,9.654,9.654,0,0,1,1.967.915c.869.457,1.738,1.006,2.608,1.51.366.183.778.366,1.189.549h0a18.388,18.388,0,0,0,7.548.961,6.272,6.272,0,0,0,3.2-.961,1.95,1.95,0,0,0,.5-.549,1.078,1.078,0,0,0,.091-1.052,1.164,1.164,0,0,0-.549-.5,4.785,4.785,0,0,0-1.647-.274,2.349,2.349,0,0,0-1.144.274h-.046a.567.567,0,0,0-.229.686,1.413,1.413,0,0,0,.732.5,1.1,1.1,0,0,0,1.006-.137c.183-.412-.5-.595-.274-.961.137-.137.595.046.823.366a1.218,1.218,0,0,1,.137.549,1.441,1.441,0,0,1-.915.869l-.274.091a12.306,12.306,0,0,1-7.594,0L72.008,4.1a18.428,18.428,0,0,1-3.66-1.876A9.71,9.71,0,0,0,65.283.849a1.967,1.967,0,0,0-2.059.686A.645.645,0,0,0,63.27,2.176Z" transform="translate(-27.266 2.563)" fill="#fff"/><path d="M2.371,4.267a6.862,6.862,0,0,0,3.065.915,16.216,16.216,0,0,0,6.771-.915,12.192,12.192,0,0,0,2.562-1.281c.412-.183.869-.457,1.327-.686,1.1-.595,2.2-1.189,2.928-1.006a.524.524,0,0,1,.32.595c0,.274-.366.366-.457.229a.086.086,0,0,1,0-.137.275.275,0,0,0,.046-.183c-.091-.183-.32-.183-.5-.137a.869.869,0,0,0-.686.366.678.678,0,0,0-.046.32.5.5,0,0,0,.183.412,1.286,1.286,0,0,0,1.281-.046,2.594,2.594,0,0,0,.595-.366c.366-.32.595-.778.274-1.144l-.046-.046c-1.189-.869-4.072.457-4.62.823-.137.137-.32.229-.457.366a14.032,14.032,0,0,1-4.163,2.013,11.555,11.555,0,0,1-4.163.457,7.819,7.819,0,0,1-2.287-.457,4.16,4.16,0,0,1-1.51-1.1.645.645,0,0,1-.046-.64,1.233,1.233,0,0,1,.32-.366.587.587,0,0,1,.457-.183c.091.046.183.091.183.137h0c.091.274-.732.457-.366.778A1.521,1.521,0,0,0,4.8,2.849a.516.516,0,0,0,.137-.5.142.142,0,0,0-.046-.091,1.111,1.111,0,0,0-.64-.412,2.841,2.841,0,0,0-2.425.32l-.091.091a1.338,1.338,0,0,0-.183,1.1A3.188,3.188,0,0,0,2.371,4.267Z" transform="translate(6.184 2.53)" fill="#fff"/><path d="M49.041,32.023a1.315,1.315,0,0,0-1.51-.869.537.537,0,0,0-.412.457.773.773,0,0,0,.137.457h0a1.213,1.213,0,0,0,.274.229c.137.091.412.091.457-.046,0-.091,0-.137-.046-.183-.137-.137-.412-.274-.366-.412.091-.229.274-.183.595-.091a.992.992,0,0,1,.5.457.16.16,0,0,0,.046.091.47.47,0,0,1-.229.595,2.236,2.236,0,0,1-1.1-.046.817.817,0,0,1-.5-.595A5.7,5.7,0,0,1,46.8,30.1l-.137-11.437v-.5c0-.549.64-.595,1.51-.64a.665.665,0,0,0,.686-.64v-.091l-.091-8.921V3.019a1.553,1.553,0,0,0-.457-1.235l-.091-.091a3.961,3.961,0,0,0-3.843-.046c-.046.046-.091.046-.137.091a.784.784,0,0,0-.183.869c.274.595.869.732,1.418.915a1.546,1.546,0,0,1-.549.274,11.928,11.928,0,0,1-5.4.137c-.183-.046-.412-.091-.595-.137a17.436,17.436,0,0,1-4.163-2.013A16.094,16.094,0,0,0,31.7.229c-1.784-.5-3.8,0-5.627.137C23.331.686,20.815,0,18.253,0A9.465,9.465,0,0,0,13.5,1.784,12.97,12.97,0,0,1,9.561,3.66l-.64.137a11.814,11.814,0,0,1-4.392,0h0a5.987,5.987,0,0,1-1.281-.412A3.811,3.811,0,0,0,3.934,3.2a1.144,1.144,0,0,0,.732-1.1.848.848,0,0,0-.091-.32.922.922,0,0,0-.32-.412,3.315,3.315,0,0,0-3.2-.091,1.082,1.082,0,0,0-.595.5,3.075,3.075,0,0,0-.183,1.1V7.869l-.091,7.96a3.462,3.462,0,0,0,.046.686,1.271,1.271,0,0,0,1.327.686.924.924,0,0,1,.778.823L2.2,31.428a1.348,1.348,0,0,1-.229.595c-.091.091-.137.183-.229.274a1.236,1.236,0,0,1-1.052.183.5.5,0,0,1-.274-.457.412.412,0,0,1,.046-.229.893.893,0,0,1,.595-.549c.137-.046.366-.091.457.046.137.457-.686.32-.686.686v.046c.046.137.412.137.595.046a.168.168,0,0,0,.137-.046.814.814,0,0,0,.32-.366.554.554,0,0,0-.091-.64,1.077,1.077,0,0,0-1.052,0A1.015,1.015,0,0,0,0,31.977v.046L.091,43.46a10.485,10.485,0,0,0,1.1,4.712,9.738,9.738,0,0,0,.732,1.144c2.562,3.431,5.856,3.843,9.47,3.706l6.084.137a7.49,7.49,0,0,1,6.542,3.065l.961-.046,1.189-1.327c1.967-1.693,4.575-1.555,7.182-1.647l6.5-.046a9.117,9.117,0,0,0,8.006-5.032h0A11.4,11.4,0,0,0,48.9,44.055l.183-11.894A.168.168,0,0,0,49.041,32.023ZM31.017.412a9.71,9.71,0,0,1,3.065,1.372,19.763,19.763,0,0,0,3.66,1.876l.366.137a12.306,12.306,0,0,0,7.594,0l.274-.091a1.441,1.441,0,0,0,.915-.869.749.749,0,0,0-.091-.549c-.229-.366-.686-.549-.823-.366-.229.32.457.549.274.961-.229.274-.686.229-1.006.137a1.626,1.626,0,0,1-.732-.5.587.587,0,0,1,.229-.64h.046A2.48,2.48,0,0,1,45.93,1.6a5.181,5.181,0,0,1,1.647.274,1.068,1.068,0,0,1,.549.457.983.983,0,0,1-.091,1.052,2.622,2.622,0,0,1-.5.5,6.272,6.272,0,0,1-3.2.961,18.416,18.416,0,0,1-7.548-1.006h0a6.9,6.9,0,0,1-1.189-.549c-.869-.457-1.738-1.006-2.608-1.51A10.942,10.942,0,0,0,31.017.869a1.509,1.509,0,0,0-1.1.046.566.566,0,0,0-.137.686.152.152,0,0,0,.274,0c.137-.183-.137-.457.274-.457a1.147,1.147,0,0,1,.869.229.773.773,0,0,1,.137.457.346.346,0,0,1-.046.183,1.016,1.016,0,0,1-.961.412,1.443,1.443,0,0,1-1.372-.64V1.738a.724.724,0,0,1-.046-.686A2.147,2.147,0,0,1,31.017.412ZM19.58.366a42.431,42.431,0,0,0,4.8.366A45.274,45.274,0,0,0,29,.366a1.192,1.192,0,0,0-.595,1.006.862.862,0,0,0,.091.366,1.046,1.046,0,0,0,.32.457,44.975,44.975,0,0,0-9.607-.137,2.761,2.761,0,0,1,.366-.366A1.3,1.3,0,0,0,19.9.915,1.582,1.582,0,0,1,19.58.366ZM.915,1.784l.091-.091a2.742,2.742,0,0,1,2.379-.32.98.98,0,0,1,.686.412c.046.091.046.137.091.183a.516.516,0,0,1-.137.5,1.667,1.667,0,0,1-1.464.137c-.412-.366.412-.549.32-.823h0c0-.046-.091-.091-.183-.137a.587.587,0,0,0-.457.183,1.069,1.069,0,0,0-.32.32.637.637,0,0,0,.046.64A3.388,3.388,0,0,0,3.477,3.8a7.819,7.819,0,0,0,2.287.457A11.555,11.555,0,0,0,9.927,3.8,14.032,14.032,0,0,0,14.09,1.784a1.791,1.791,0,0,0,.457-.366c.5-.366,3.385-1.738,4.62-.823l.046.046c.32.366.091.823-.274,1.144a2.594,2.594,0,0,1-.595.366c-.366.137-.961.32-1.281.046a.559.559,0,0,1-.137-.412.779.779,0,0,1,.046-.32,1.024,1.024,0,0,1,.686-.366.433.433,0,0,1,.5.137.275.275,0,0,1-.046.183.086.086,0,0,0,0,.137c.091.137.412.046.457-.229a.51.51,0,0,0-.366-.595c-.686-.183-1.83.412-2.928,1.006-.457.274-.915.5-1.327.732A9.427,9.427,0,0,1,11.437,3.8a16.316,16.316,0,0,1-6.771.915A6.48,6.48,0,0,1,1.6,3.8a2.642,2.642,0,0,1-.823-.915A1.176,1.176,0,0,1,.915,1.784ZM48.4,35.134v.091L48.355,42.5a12.76,12.76,0,0,1-1.327,5.673,8.587,8.587,0,0,1-4.3,3.843c-2.013.869-7.731.549-10.751.595H31.84c-2.7-.046-5.718.549-7.365,2.882a7.96,7.96,0,0,0-6.725-2.928h-.137c-2.882-.091-5.81-.091-8.692-.183A9.731,9.731,0,0,1,5.9,51.649L5.81,51.6a7.894,7.894,0,0,1-3.843-3.477A10.23,10.23,0,0,1,.595,43.551V43.46L.457,32.984v-.091a1.772,1.772,0,0,0,1.693-.412,1.643,1.643,0,0,0,.32-.457,3.811,3.811,0,0,0,.183-.686L2.745,28V27.86l.091-9.927a1.231,1.231,0,0,0-.869-1.052c-.091-.046-.183-.046-.274-.091H1.464c-.183,0-.732-.091-.823-.366,0,0-.091-.091-.091-.5,0-.137.046-4.575.046-8.1V3.614A1,1,0,0,0,.823,3.8C2.653,5.444,5.535,5.078,7.96,4.941A15.113,15.113,0,0,0,12.4,3.8l.366-.137c1.052-.64,2.013-1.281,3.065-1.876.229-.137.457-.229.64-.32v.32a1.093,1.093,0,0,0,.229.64l.046.046h0c.686.549,1.83.183,2.333.091a46.369,46.369,0,0,1,5.032-.274,35.9,35.9,0,0,1,5.444.412,3.885,3.885,0,0,0,.412.137l.137.046h.137c.549,0,1.327-.183,1.555-.778a.661.661,0,0,0,.091-.32h0V1.693l.229.091C33.4,2.425,34.676,3.2,36,3.8A12.035,12.035,0,0,0,39.3,4.849s.869.137,1.144.183l1.144.091h.091c1.693.091,4.346.183,6.039-.823a5.483,5.483,0,0,0,.549-.5l.046-.046v7l.091,5.49c0,.32-.046.778-.5.732-.64-.046-1.83.046-1.83.823v6.267l-.046,1.418v5.993a1.218,1.218,0,0,0,.137.549,2.066,2.066,0,0,0,.5.778,1.9,1.9,0,0,0,1.647.32A9.748,9.748,0,0,1,48.4,35.134Z" transform="translate(7 3)"/></g></g></svg>