<svg xmlns="http://www.w3.org/2000/svg" xmlns:xlink="http://www.w3.org/1999/xlink" width="70" height="70" viewBox="0 0 70 70"><defs><clipPath id="b"><rect width="70" height="70"/></clipPath></defs><g id="a" clip-path="url(#b)"><rect width="70" height="70" fill="#fff"/><g transform="translate(0 3)"><path d="M56.286,19.418v9.724a9.731,9.731,0,0,1-.221,1.878,18.411,18.411,0,0,1-.884,3.315,16.626,16.626,0,0,1-1.768,3.757,14.7,14.7,0,0,1-1.547,2.1,11.7,11.7,0,0,1-6.409,3.646c-.552.11-1.215.221-1.768.331a7.828,7.828,0,0,1-1.547.11H41.59a9.505,9.505,0,0,1-1.768-.11,14.333,14.333,0,0,1-3.757-.884A10.2,10.2,0,0,1,32.751,41.3a14.969,14.969,0,0,1-3.315-4.088A21.486,21.486,0,0,1,28,33.893a29.622,29.622,0,0,1-.773-2.983A16.485,16.485,0,0,1,27,28.59c-.11-1.436,0-2.983,0-4.42v-13.7c0-.11,0-.11.11-.221h0l.221-.11L29.215,9.8l1.1-.221,1.657-.221,1.768-.221,1.436-.11,1.989-.11L38.5,8.81l1.547-.11h2.541a8.363,8.363,0,0,1,1.657.11h1.215l1.657.11,1.436.11c.331,0,.663.11.994.11l1.768.221c.552.11,1.215.11,1.768.221a16.47,16.47,0,0,1,1.989.442c.221,0,.442.11.773.11h.221a.108.108,0,0,1,.11.11v.221c.111,2.983.111,5.967.111,8.95Zm-14.7,6.63H27.336c-.331,0-.331,0-.331.331v2.541a8.529,8.529,0,0,0,.221,1.657,22.631,22.631,0,0,0,.552,2.652,20.343,20.343,0,0,0,.994,2.762,13.873,13.873,0,0,0,3.094,4.42,11.213,11.213,0,0,0,2.983,2.1,11.4,11.4,0,0,0,4.309,1.215,9.505,9.505,0,0,0,1.768.11H41.7a14.728,14.728,0,0,0,3.094-.331,12.67,12.67,0,0,0,3.425-1.215,11.881,11.881,0,0,0,4.972-4.862A19.119,19.119,0,0,0,54.739,34c.331-1.1.663-2.32.884-3.425a16.485,16.485,0,0,0,.221-2.32V26.38c0-.331,0-.331-.331-.331Zm-3.2-3.978a.664.664,0,0,1-.442.11,4.434,4.434,0,0,0-1.657.331c-.663.221-1.215.552-1.878.773l-.11.11v.442c-.11.552-.11.552-.663.663H33.3v-.11h0l.442-.11.111-.11-.111-.11c-.11-.11-.331-.11-.221-.331s0-.11-.11-.11-.221,0-.221.11l-.221.221a.386.386,0,0,1-.221.11.108.108,0,0,1-.11-.11h-.221c-.111,0-.111.11-.111.221s0,.221-.221.221h-.331c-.11,0-.11,0-.11.11a.574.574,0,0,0,.442.221.97.97,0,0,0,.773-.11h.221c.11,0,.331.11.442.11l.773.11a6.008,6.008,0,0,0,1.989,0h1.326a.831.831,0,0,1,.773.552c0,.11.11.11.11,0,.221-.11.331-.221.331-.442,0-.11.11-.221.11-.331V24.5l.11.111c0,.11.11.11.221.11a1.168,1.168,0,0,1,.773.663h.111a1.1,1.1,0,0,0,.442-.552c0-.221.11-.442-.11-.663h0v-.11h.11a7.042,7.042,0,0,0,.773.221A4.615,4.615,0,0,1,43.027,25.5c.111.11.221.11.442.11h3.646a.342.342,0,0,0-.11-.221h0a33.92,33.92,0,0,0-2.762-2.873l-.663-.331s-.11-.11,0-.11h0c.11-.221.331-.331.442-.552.11-.11.11-.11.221-.11h.11v.11a.93.93,0,0,0,.773.442c.11,0,.11,0,.11-.111a.944.944,0,0,1,0-.773,4.786,4.786,0,0,1,.111-.552,3.227,3.227,0,0,0,.221-.994h.11c.11.11.221.11.331.221a.683.683,0,0,0,.773-.221c.11-.11.11-.11,0-.11s-.221-.11-.331-.221-.11-.221-.221-.331c0-.221-.11-.331-.11-.552-.11-.331-.11-.663-.221-.994v-.11c.11,0,.221.11.331.11A1.052,1.052,0,0,0,47,17.1c.11-.11,0-.11,0-.11a1.168,1.168,0,0,1-.663-.773c0-.11-.11-.331-.11-.442A2.77,2.77,0,0,0,45.789,15l-.11-.221a.153.153,0,0,1,.221,0,.909.909,0,0,0,.663-.442c0-.11,0-.221-.11-.221a.746.746,0,0,1-.663-.442c-.11-.11-.11-.221-.221-.442a1.982,1.982,0,0,0-.552-.773v-.11a.406.406,0,0,0,.11-.331.955.955,0,0,0-.331-.663.273.273,0,0,0-.442-.11h-.11c-.11.11-.221.221-.331.221-.11.11-.11.11-.221,0a2.311,2.311,0,0,0-.663-.442,3.926,3.926,0,0,0-1.1-.221,1.6,1.6,0,0,0-.773.221c-.11.11-.331.11-.442.221-.11,0-.221.11-.331.221s-.11.11,0,.221h.552v.11c0,.11,0,.221.11.221h.221c.11,0,.221-.11.331-.221l.331-.221a1.533,1.533,0,0,1,.994,0H42.7v.221h0a.713.713,0,0,1-.663.663.571.571,0,0,1-.773-.331c0-.11-.11-.11-.221-.11s-.221,0-.221-.221c0-.11-.221-.221-.331-.221a1,1,0,0,0-.552.11l-.221.11c-.11.11-.221.221-.331.221s-.11.11,0,.11a.108.108,0,0,1,.111.11.386.386,0,0,0,.221.11v.11H39.6c-.11,0-.11,0-.11.11,0,.221.221.442.331.663a1,1,0,0,0,1.1,0c.11-.11.221-.11.331-.221s.221-.11.221,0a2.979,2.979,0,0,1,.773.884,1.4,1.4,0,0,1,.11.663.7.7,0,0,1-.552.663l-.442.11h-.994c-.11,0-.221.11-.11.221v.221c0,.11,0,.11.11.11l.663-.11a1.88,1.88,0,0,1,.773.11c.11,0,.331.11.331.221a.336.336,0,0,1,0,.442.108.108,0,0,0-.11.11.664.664,0,0,1-.442.11h-.773a3.226,3.226,0,0,0-.994.221,1.525,1.525,0,0,0-.442.331v.11h.11c.221,0,.442.11.773.11a3.926,3.926,0,0,0,1.1.221h0c-.11,0-.221.11-.331.11a4.533,4.533,0,0,1-1.215.11,1.88,1.88,0,0,0-.773.11,1.015,1.015,0,0,0-.663.442v.11h0a2.154,2.154,0,0,1,.884.11h.221a1.4,1.4,0,0,0,.663.11.108.108,0,0,1,.11.11H39.38l-1.215.221a1.57,1.57,0,0,0-.663.221l-.331.331c0,.11-.11.11-.11.221,0,0,0,.11.11,0a.406.406,0,0,1,.331-.11h.773l.884.221-.221.111-.663.11a3.925,3.925,0,0,0-.994.442c-.331.11-.552.442-.773.663,0,.11-.11.11-.11.221h.221a1.533,1.533,0,0,1,.994,0c.11,0,.221.11.331.11l.552.11c-.221,0-.221.221-.111.221ZM53.634,12.015a1,1,0,0,0-.442.884,1.4,1.4,0,0,0,.111.663v.884a.844.844,0,0,1-.221.552,1.486,1.486,0,0,1-.773.663,12.052,12.052,0,0,0-1.215.663,7.965,7.965,0,0,0-2.1,1.547,4.779,4.779,0,0,0-1.436,2.873,4.212,4.212,0,0,0,.11,1.657,3.958,3.958,0,0,0,.442,1.215,14.385,14.385,0,0,1,.884,1.878c0,.111,0,.111.221.111h.994c.11,0,.11,0,.11-.221v-.221a2.3,2.3,0,0,1,.552-1.326,7.149,7.149,0,0,1,.994-.884l1.215-.552a4.479,4.479,0,0,0,.994-.552c.221-.221.442-.331.552-.552a.828.828,0,0,0,.11-.552v0a1.331,1.331,0,0,1-.552.552c-.221.11-.331.221-.552.221l-.994.221a8.661,8.661,0,0,0-1.547.552,2.688,2.688,0,0,0-1.436,1.657v.11l-.11.11v-.11c0-.221-.11-.331-.11-.552a3.784,3.784,0,0,1,.552-2.431,3.736,3.736,0,0,1,1.989-1.436l1.1-.331a3.925,3.925,0,0,0,.994-.442,1.486,1.486,0,0,0,.663-.773v-.11h-.11l-.11.11a.838.838,0,0,1-.442.221,5.546,5.546,0,0,1-1.326.221l-.884.11a2.519,2.519,0,0,0-1.215.331,2.293,2.293,0,0,0-1.1.663,3.678,3.678,0,0,0-.663,1.1,3.4,3.4,0,0,0-.331,1.436.386.386,0,0,1-.11.221s-.11-.221-.221-.221a3.407,3.407,0,0,1,0-2.1,2.105,2.105,0,0,1,.552-1.1,2.828,2.828,0,0,1,1.436-1.1,5.612,5.612,0,0,1,1.878-.331c.442-.11.884-.11,1.215-.221a1.711,1.711,0,0,0,1.215-.884,2.317,2.317,0,0,0,.442-1.215,2.754,2.754,0,0,0-.331-1.878c0-.11-.11-.221-.11-.331a1.888,1.888,0,0,1,0-1.547c0-.11,0-.221.11-.221v-.11h-.11l-.331.331a2.415,2.415,0,0,0-.331.552,1.883,1.883,0,0,0,0,1.1,5.838,5.838,0,0,1,.11,1.436,2.048,2.048,0,0,1-.221.773.863.863,0,0,1-.442.442h-.11a1.518,1.518,0,0,0,.442-1.326,3.226,3.226,0,0,0-.221-.994,4.533,4.533,0,0,1-.11-1.215c.331-.111.331-.111.331-.221Zm-22.652,6.3h-.773c-.331,0-.331,0-.442.331v4.862c0,.11,0,.11.11.11h2.873c.11,0,.221,0,.221-.11a.406.406,0,0,1,.331-.11h.442a.207.207,0,0,0,0-.331l-.11-.11h0c-.11,0-.11,0-.11-.221v-.442c0-.11,0-.11.11-.221.11,0,.11,0,.221-.11a.207.207,0,0,0,0-.331.108.108,0,0,1-.111-.11h-.11a.108.108,0,0,1-.11-.11v-.442a.108.108,0,0,1,.11-.11h0c.221-.11.221-.221.221-.442s-.111-.111-.221-.221h0a.108.108,0,0,1-.11-.11V19.75c0-.221,0-.331.221-.442.111,0,.111-.221.111-.331s-.111-.11-.221-.11-.11,0-.11-.221v.331c0-.221,0-.331.221-.442a.85.85,0,0,0,.111-1.1l-.111-.11c-.11,0-.11-.11-.221-.11h-.663l.221-.221h.11a.108.108,0,0,0,.11.11.664.664,0,0,0,.442-.11l.11-.331m-.11,0v.331c.11.11.11.221.221.221h.773a.336.336,0,0,0,0-.442h0l-.663-.442a1.867,1.867,0,0,0-1.1-.331.835.835,0,0,1-.442-.11c-.221-.11-.442-.11-.552.11a.574.574,0,0,0-.221.442.664.664,0,0,0,.11.442c0,.11,0,.221.11.221a.108.108,0,0,0,.11-.11l.331-.221c.11,0,.11-.11,0-.221h0a.386.386,0,0,0-.221-.11h-.221c.331,0,.552,0,.552.442,0,.11,0,.11-.11.221-.111,0-.221.11-.331.11h1.1c.11,0,.221.11.331.221a.5.5,0,0,1,0,.552l-.11.11h-.221l-.663.221h-.552Zm.994-2.541h.552c.11,0,.11,0,.11-.11a4.921,4.921,0,0,0-.552-.884.336.336,0,0,1,0-.442,2.77,2.77,0,0,0,.442-.773c.111-.221,0-.11-.11-.11h-.994c-.11,0-.221-.11-.331-.221l-.442-.773c-.11-.11-.11-.11-.221,0l-.11.11a2.312,2.312,0,0,1-.442.663c0,.11-.111.11-.221.11h-1.1c-.11,0-.11,0-.11.11.11.221.331.552.442.773a.336.336,0,0,1,0,.442,6.561,6.561,0,0,0-.442.884V14H32.53c.11,0,.221,0,.221.11.11.221.331.552.442.773a.108.108,0,0,0,.11.11h.11l.11-.221A4.8,4.8,0,0,0,33.966,14c0-.11.11-.11.221-.11Zm16.354,0h.552c.11,0,.11,0,.11-.11-.11-.221-.331-.552-.442-.773a.493.493,0,0,1,0-.552l.331-.663c0-.11.11-.11.11-.221v-.11h-1.1c-.11,0-.221,0-.221-.11l-.221-.442c-.11-.11-.11-.221-.221-.442s-.11-.11-.11,0-.11.11-.11.221a2.312,2.312,0,0,1-.442.663c0,.11-.11.11-.221.11H48c-.221,0-.221,0-.11.221s.331.552.442.773a.207.207,0,0,1,0,.331l-.442.773V14h1.1c.11,0,.221,0,.221.11l.442.773V15h.11l.11-.11c.11-.221.331-.552.442-.773,0-.11.111-.11.221-.11Zm-15.028,7.4c.11,0,.221,0,.221-.11a1.1,1.1,0,0,1,.552-.442c.221-.11.331-.11.552-.221l.552-.221h0a.828.828,0,0,0-.552-.11,1.57,1.57,0,0,0-.663.221c-.11,0-.11,0-.11-.11v-.11a1.127,1.127,0,0,1,.552-.884c.221-.11.221-.11,0-.221h0a18.032,18.032,0,0,1-2.21-1.878.108.108,0,0,0-.11-.11h-.11a.838.838,0,0,1-.221.442l-.331.331-.442.331c-.11.111-.11.111,0,.221a2.93,2.93,0,0,0,.552.663c.111.11.221.221.331.221.11.11.11.11,0,.221s-.11.221-.221.221c0,0-.111.11,0,.11.11.11.221.331.442.331a.664.664,0,0,0,.442-.111c.11,0,.11-.11.221-.11h.11v.11c0,.221-.11.331-.221.552V21.3h0A1.571,1.571,0,0,0,36.065,21.518Zm6.3-6.74c0-.11,0-.11-.11-.221h-.221a4.581,4.581,0,0,0-1.768-.331A4.7,4.7,0,0,1,39.049,14a5.6,5.6,0,0,1-1.657-.773.386.386,0,0,0-.221-.11h-.11v.442a1.092,1.092,0,0,0,.773.773,3.226,3.226,0,0,0,.994.221,3.059,3.059,0,0,1,.994.11c.331.11.663,0,.994.11A5.546,5.546,0,0,1,42.143,15C42.253,15,42.364,15,42.364,14.777Zm-12.928,2.21h-.773c-.331,0-.331,0-.331.331v1.657c0,.11,0,.11.11.11s.221,0,.221-.11V17.65c0-.11,0-.11.111-.11h1.436v-.221H30.1ZM29.1,19.639h.552c.11,0,.11,0,.11-.11v-.221c0-.221,0-.221-.221-.221h-.663c-.442,0-.331,0-.442.442v.11c0,.11,0,.11.111.11Zm0,2.431h.331c.331,0,.331,0,.221-.221v-.11a.342.342,0,0,0-.11-.221h-.994c-.111,0-.111,0-.111.11h0v.331c0,.11,0,.11.111.11H29.1Zm1.989,2.652h.331c.11,0,.11-.11.11-.221-.11-.11-.11-.331-.221-.442s-.221-.221-.331-.221h-.111a.574.574,0,0,1-.221.442h0v.11h0c0,.221.221.331.442.331Zm-.221-8.4h.221c.11,0,.11.11.11.221v.221h.221a.108.108,0,0,1,.11-.11V16.1c0-.11,0-.221-.11-.221a.669.669,0,0,0-.884.11.406.406,0,0,0-.11.331.108.108,0,0,0,.11.11.406.406,0,0,1,.331-.11Zm-.773-.442h-.221a.386.386,0,0,0-.221.11v.221h.111c.11,0,.11.11.11.221v.331c0,.11,0,.11.11.11a.353.353,0,0,0,.331-.331v-.552c0-.11,0-.221-.11-.221Zm-.11,8.84H30.1c.111,0,.111-.11.111-.221s-.111-.221-.111-.331-.111-.11-.221-.221h-.221l-.331.331v.11c.221.221.442.221.663.331Zm-1.547-4.088h0v.552c0,.11,0,.221.111.221s.11,0,.11-.11V20.081c0-.11,0-.11-.11-.11h0c-.111,0-.111,0-.111.11Zm0,2.21h0v.663a.11.11,0,1,0,.221,0V22.291l-.11-.11c-.111,0-.111,0-.111.11h0ZM42.474,11.573c0-.11,0-.11-.11-.11s-.11.11-.221.11c-.331.221-.331.221-.331.552,0,.11,0,.11.11.11s.221-.11.331-.221A.838.838,0,0,0,42.474,11.573ZM31.2,16.545a.108.108,0,0,0-.11-.11.406.406,0,0,0-.331.11c-.11.11-.11.221-.221.331V17.1c0,.11.11,0,.221,0a.386.386,0,0,0,.221-.11C31.093,16.766,31.2,16.656,31.2,16.545Zm.331,7.293h-.221v.11c.11.221.221.331.442.331.11,0,.11,0,.221-.11a.153.153,0,0,0,0-.221ZM31.2,17.319h.442V17.1c0-.11,0,0-.111,0h-.552c-.11,0-.221,0-.221.11v.11H31.2Zm2.983,6.3h0V23.4h-.11l-.221.11c-.111,0-.221.11-.111.221s.111.11.221.11h0c.11,0,.221,0,.221-.11h0C34.076,23.728,34.187,23.728,34.187,23.617Zm-4.309-7.072h0c0-.221-.11-.331-.221-.221l-.11.11c0,.11-.11.11-.11.221v.11h.11c.11,0,.221-.11.331-.11Zm.442,7.293c-.221,0-.221,0-.11.11l.11.11c0,.11.221.11.331.11h0c.11,0,.11-.11.11-.221s0-.11-.11-.11Zm3.757-5.967c0,.11.11.11.221.11.111-.11.221-.11.221-.221s0-.221-.11-.221a.293.293,0,0,0-.331.331Zm-5.193,5.967h0c-.11,0-.11.11,0,0a.406.406,0,0,0,.11.331c.11.11.221,0,.331-.11v-.11c0-.11,0-.11-.11-.11Zm11.492-9.945c0-.11,0-.221-.11-.221s-.221-.11-.221,0,0,.11.111.221l.11.11h.11v-.11Zm.773,1.547h0a.108.108,0,0,0,.11-.11h-.221l-.11.11Zm-.552,0h0c.11,0,.11-.11,0-.11s0,0,0-.11-.221-.11-.221-.11v.221C40.375,15.44,40.485,15.44,40.6,15.44Zm.994-2.1h0a.207.207,0,0,0,0,.331h.221v-.11A.238.238,0,0,0,41.59,13.341Zm0,1.989H41.7v-.11h0a.207.207,0,0,0-.331,0v.11Zm-.221-1.878h0m-.11-.11-.11.11v.11h.221a.342.342,0,0,0-.111-.221Zm-.442.221h-.11a.11.11,0,0,0,0,.221c.11,0,.11,0,.11-.221Z" transform="translate(-6.535 7.024)" fill="#cd008e"/><path d="M43.593,44.06l.663.331a27.145,27.145,0,0,1,5.3,3.425A9.542,9.542,0,0,1,51,49.364c0,.11.11.11.11.221a.731.731,0,0,1,.11.663.948.948,0,0,1-.773.663h-.331c-.11,0-.221-.11-.331-.221-.773-.994-1.657-2.1-2.541-3.094-.552-.552-1.1-1.1-1.768-1.657a8,8,0,0,0-2.1-1.215l-1.326-.442h-.552a14.758,14.758,0,0,0-1.989.773,7.259,7.259,0,0,0-1.878,1.326c-.884.884-1.768,1.768-2.541,2.652L33.759,50.69a.492.492,0,0,1-.663.221,1.348,1.348,0,0,1-.994-.884c0-.221,0-.331.11-.442.221-.331.552-.663.773-.994a23.079,23.079,0,0,1,2.431-2.21,20.267,20.267,0,0,1,3.315-1.989l.884-.442h-.773a18.069,18.069,0,0,0-2.431.221c-.773.221-1.436.331-2.21.552a7.462,7.462,0,0,1-1.547.221H30.665c-.331,0-.773-.11-1.215-.11a5.546,5.546,0,0,1-1.326-.221l-1.1-.331h-.11c-.11,0-.11-.11,0-.11s0,0,.11-.11A9.69,9.69,0,0,1,33.1,41.518a8.945,8.945,0,0,1,2.431,0c.884.11,1.768.221,2.762.442a21.826,21.826,0,0,1,2.873.884l.442.11h.331a6.23,6.23,0,0,1,1.326-.442l1.657-.552a11.56,11.56,0,0,1,1.878-.442l.994-.11h.663a7.408,7.408,0,0,1,2.21,0c.663.11,1.215.221,1.878.331a7.712,7.712,0,0,1,2.983,1.547l.773.552.11.11c.11.11,0,.11,0,.11l-.552.11c-.552.11-1.1.221-1.547.331a3.059,3.059,0,0,1-.994.11c-.331,0-.773.11-1.215.11h-.884c-.331,0-.773-.11-1.1-.11a3.926,3.926,0,0,1-1.1-.221l-2.32-.552a14.975,14.975,0,0,0-2.21-.221l-.884.442C43.7,43.949,43.593,43.949,43.593,44.06Z" transform="translate(-6.549 10.448)" fill="#cd008e"/><path d="M53.733,42.215a8.273,8.273,0,0,1-2.32-.221,9.358,9.358,0,0,1-1.878-.442A5.922,5.922,0,0,1,48.318,41l-.11-.11c-.111-.11-.111-.11,0-.221a1.525,1.525,0,0,1,.442-.331,9.8,9.8,0,0,1,1.878-.884l1.326-.331a13.539,13.539,0,0,1,2.1-.221h.884c.552,0,1.1.11,1.657.11.663.11,1.215.221,1.768.331a7.329,7.329,0,0,1,2.1.994l.11.111v.11l-.11.11c-.442.221-.884.442-1.436.663a16.154,16.154,0,0,1-2.21.552,13.539,13.539,0,0,1-2.1.221C54.4,42.325,54.064,42.215,53.733,42.215Z" transform="translate(-4.313 10.194)" fill="#cd008e"/><path d="M28.058,42.2h-1.1a17.31,17.31,0,0,1-3.315-.552c-.773-.221-1.547-.442-2.21-.663h-.11c-.221-.11-.221-.11-.11-.331a5.936,5.936,0,0,1,1.768-1.1,9.205,9.205,0,0,1,1.657-.442A6.8,6.8,0,0,1,26.179,39h1.436a21.1,21.1,0,0,1,3.646.663,13.479,13.479,0,0,1,1.878.773l.11.11c.11.11.11.11,0,.221a4.563,4.563,0,0,1-1.215.773,6.539,6.539,0,0,1-2.1.552A5.232,5.232,0,0,1,28.058,42.2Z" transform="translate(-7.146 10.204)" fill="#cd008e"/><path d="M62.982,34.8a14.09,14.09,0,0,1,2.1.11h.663c.11,0,.11,0,0,.11l-.11.11a11.156,11.156,0,0,1-1.768,1.436,13.025,13.025,0,0,1-5.746,2.21,13.467,13.467,0,0,1-2.983,0c-.442,0-.884-.11-1.326-.11H53.7v-.11a.108.108,0,0,1,.11-.11,5.238,5.238,0,0,1,1.1-1.1,10.4,10.4,0,0,1,3.425-1.878,13.359,13.359,0,0,1,1.989-.552A22.193,22.193,0,0,1,62.982,34.8Z" transform="translate(-3.728 9.764)" fill="#cd008e"/><path d="M25.292,39.009a11.406,11.406,0,0,1-3.315-.442,17.3,17.3,0,0,1-3.315-1.326,11.484,11.484,0,0,1-2.652-1.878l-.11-.11v-.11a1.867,1.867,0,0,0,.552-.221,10.887,10.887,0,0,1,1.878-.221h1.878c.552.11,1.1.11,1.657.221A10.773,10.773,0,0,1,24.3,35.8a6.8,6.8,0,0,1,2.1,1.326,6.332,6.332,0,0,1,1.215,1.215l.111.221c.11.11,0,.11-.111.221l-1.436.221h-.884Z" transform="translate(-7.696 9.753)" fill="#cd008e"/><path d="M56.3,35.814h0v-.221a13.274,13.274,0,0,1,2.431-3.978,10.584,10.584,0,0,1,2.762-2.21,9.584,9.584,0,0,1,3.425-1.1c.221,0,.221,0,.221.221a10.388,10.388,0,0,1-2.21,3.867,9.914,9.914,0,0,1-2.983,2.32,10.364,10.364,0,0,1-3.094,1.1Z" transform="translate(-3.455 9.081)" fill="#cd008e"/><path d="M24.734,35.914l-.773-.221a24.865,24.865,0,0,1-2.652-.884,10.143,10.143,0,0,1-4.2-3.867,22.085,22.085,0,0,1-1.1-2.32c0-.11-.11-.11,0-.221h.221a14.72,14.72,0,0,1,2.1.552,11.407,11.407,0,0,1,3.646,2.32,16.571,16.571,0,0,1,2.1,2.762,11.152,11.152,0,0,1,.773,1.657v.11C24.955,35.914,24.955,35.914,24.734,35.914Z" transform="translate(-7.69 9.092)" fill="#cd008e"/><path d="M61.925,11.138v1.215a5,5,0,0,1-.331,1.768,3.425,3.425,0,0,1-.663,1.436.108.108,0,0,1-.11.11h-.11l-.11-.11a7.41,7.41,0,0,1-.994-1.547,9.914,9.914,0,0,1-.994-3.646,14.81,14.81,0,0,1-.11-2.21,8.868,8.868,0,0,1,.663-3.315c0-.11.11-.221.221-.331,0-.11.11-.11.11,0l.221.221a3.454,3.454,0,0,1,.994,1.215,13.169,13.169,0,0,1,.884,2.21,6.257,6.257,0,0,1,.331,1.989Z" transform="translate(-3.224 6.575)" fill="#cd008e"/><path d="M22.325,8.669A18.069,18.069,0,0,1,22.1,11.1a12.879,12.879,0,0,1-1.215,3.646,3.456,3.456,0,0,1-.552,1.1v.11c0,.11-.11.11-.11,0l-.11-.11a4.139,4.139,0,0,1-.773-1.326A8.607,8.607,0,0,1,18.9,12.2a13.2,13.2,0,0,1,.442-3.646,16.314,16.314,0,0,1,1.1-2.983l.331-.663c.11-.221.11-.11.221,0a2.4,2.4,0,0,1,.663.773,4.888,4.888,0,0,1,.552,1.657A5.38,5.38,0,0,1,22.325,8.669Z" transform="translate(-7.381 6.613)" fill="#cd008e"/><path d="M28.383,38.045v.663c0,.221,0,.11-.11,0l-.221-.11A8.344,8.344,0,0,1,26.5,37.382a7.237,7.237,0,0,1-1.657-1.989,7.367,7.367,0,0,1-.994-2.32,10.266,10.266,0,0,1-.552-3.2V28.1h.11l.994.884a16.994,16.994,0,0,1,1.326,1.436,11.306,11.306,0,0,1,2.21,4.088,15.645,15.645,0,0,1,.442,2.21A5.3,5.3,0,0,0,28.383,38.045Z" transform="translate(-6.919 9.06)" fill="#cd008e"/><path d="M57.672,29.747a21.458,21.458,0,0,1-.221,2.652,10.972,10.972,0,0,1-1.878,3.978,12.107,12.107,0,0,1-2.431,2.32l-.221.11c-.11.11-.221.11-.221-.11V37.261c0-.442.11-.994.11-1.436a10.5,10.5,0,0,1,1.768-4.309c.552-.773,1.1-1.436,1.657-2.1l1.1-1.1.11-.11h0v.11A3.511,3.511,0,0,1,57.672,29.747Z" transform="translate(-3.833 9.071)" fill="#cd008e"/><path d="M61.11,18.258a10.76,10.76,0,0,1,.221-2.652,13.16,13.16,0,0,1,1.1-3.536A7.64,7.64,0,0,1,64.2,9.639l.331-.331c.11-.11.11-.11.221,0a.664.664,0,0,1,.11.442,8.529,8.529,0,0,1,.221,1.657v.773a5.17,5.17,0,0,1-.221,1.878,6.274,6.274,0,0,1-.773,2.431,4.161,4.161,0,0,1-.994,1.657,4.215,4.215,0,0,1-1.547,1.215l-.442.11c-.11,0-.11,0-.11-.11v-.221A2.154,2.154,0,0,0,61.11,18.258Z" transform="translate(-2.961 7.079)" fill="#cd008e"/><path d="M19.567,17.377v1.215c0,.442-.11.663-.11.994,0,.11-.11.11-.221.11a3.441,3.441,0,0,1-.994-.773,6.582,6.582,0,0,1-1.547-2.32,12.3,12.3,0,0,1-.884-3.315,16.319,16.319,0,0,1-.11-2.32,8.529,8.529,0,0,1,.221-1.657V9.2h.11l.11.11a7.7,7.7,0,0,1,1.989,2.21,10.621,10.621,0,0,1,1.215,3.094A11.662,11.662,0,0,1,19.567,17.377Z" transform="translate(-7.717 7.076)" fill="#cd008e"/><path d="M60.9,25.05a9.671,9.671,0,0,1,.221-1.768,11.928,11.928,0,0,1,1.1-3.867,6.075,6.075,0,0,1,2.21-2.541A5.077,5.077,0,0,1,66.2,16.1h.111c.11,0,.11,0,.11.11v.331c-.11.773-.221,1.547-.332,2.431a13,13,0,0,1-.773,2.21,9.478,9.478,0,0,1-1.436,2.21,12.82,12.82,0,0,1-2.652,2.21h0a.108.108,0,0,1-.111-.11V25.05C61.121,24.94,60.9,25.05,60.9,25.05Z" transform="translate(-2.972 7.801)" fill="#cd008e"/><path d="M14.2,16.431c0-.331,0-.331.221-.331a6.083,6.083,0,0,1,2.541,1.547A15.812,15.812,0,0,1,18.178,19.3a6.973,6.973,0,0,1,.884,2.541c.11.663.221,1.326.331,2.1a4.145,4.145,0,0,0,.11,1.1v.442c0,.11,0,.11-.11.11a7.259,7.259,0,0,1-1.878-1.326,7.99,7.99,0,0,1-1.878-2.431,12.888,12.888,0,0,1-1.1-2.873A10.71,10.71,0,0,1,14.2,16.431Z" transform="translate(-7.874 7.801)" fill="#cd008e"/><path d="M13.11,21.8l.331.11a14.435,14.435,0,0,1,2.32.884,8.915,8.915,0,0,1,2.652,1.878,9.193,9.193,0,0,1,1.436,1.989,10.9,10.9,0,0,1,1.1,2.983v.11c0,.11,0,.11-.11.11a4.085,4.085,0,0,1-1.215-.552,10.477,10.477,0,0,1-2.983-1.878,10.788,10.788,0,0,1-1.878-1.989A11.94,11.94,0,0,1,13,22.131v-.11S13,21.8,13.11,21.8Z" transform="translate(-8 8.399)" fill="#cd008e"/><path d="M60.2,29.656A7.7,7.7,0,0,1,61.526,25.9a8.481,8.481,0,0,1,3.646-3.2,14.757,14.757,0,0,1,1.989-.773l.773-.221h0c.11,0,.11,0,.11.11s0,.221-.11.221a12.956,12.956,0,0,1-5.746,6.851,11.151,11.151,0,0,1-1.657.773h-.11C60.2,29.766,60.2,29.766,60.2,29.656Z" transform="translate(-3.045 8.388)" fill="#cd008e"/><path d="M57.3,26.322a13.716,13.716,0,0,1,.331-2.983A7.4,7.4,0,0,1,58.4,21.35c.111-.11.221-.331.331-.442a.207.207,0,0,1,.331,0c.221.221.331.442.442.552a11.152,11.152,0,0,1,.773,1.657,8.412,8.412,0,0,1,.331,2.32A8.363,8.363,0,0,1,60.5,27.1a6.973,6.973,0,0,1-.884,2.541,3.248,3.248,0,0,1-1.1,1.326c-.221.11-.221.11-.331-.11a9.334,9.334,0,0,1-.552-1.878,12.239,12.239,0,0,1-.221-2.1C57.3,26.875,57.3,26.543,57.3,26.322Z" transform="translate(-3.35 8.297)" fill="#cd008e"/><path d="M23.415,26.191a5.38,5.38,0,0,1-.11,1.326,6.257,6.257,0,0,1-.331,1.989,10.861,10.861,0,0,1-.552,1.768c0,.11-.111.11-.221.11a2.93,2.93,0,0,1-.663-.552,4.243,4.243,0,0,1-.994-1.989,18.737,18.737,0,0,1-.442-2.431v-1.1a9.11,9.11,0,0,1,.773-3.425,6.339,6.339,0,0,1,.442-.773c0-.11.11-.11.221,0,.221.11.331.331.552.552a5.317,5.317,0,0,1,.884,1.768,5.612,5.612,0,0,1,.331,1.878A3.554,3.554,0,0,0,23.415,26.191Z" transform="translate(-7.255 8.318)" fill="#cd008e"/><path d="M61.214,21.94v.552c0,.11,0,.11-.111.11l-.994-.663a10.685,10.685,0,0,1-2.762-3.094,11.28,11.28,0,0,1-1.215-3.2,8.412,8.412,0,0,1-.331-2.32v-.11c0-.11,0-.11.11-.11a10.759,10.759,0,0,1,2.652,1.657,8.472,8.472,0,0,1,2.1,3.425A8.607,8.607,0,0,1,61.1,20.5,6.3,6.3,0,0,1,61.214,21.94Z" transform="translate(-3.507 7.486)" fill="#cd008e"/><path d="M19.5,21.166a9.308,9.308,0,0,1,.773-3.867,9.478,9.478,0,0,1,1.436-2.21,8.915,8.915,0,0,1,2.652-1.878c.11,0,.11-.11.221-.11s.11,0,.11.11a12,12,0,0,1-.442,2.762,12.113,12.113,0,0,1-2.541,4.862,7.237,7.237,0,0,1-1.989,1.657H19.5V22.05A1.21,1.21,0,0,0,19.5,21.166Z" transform="translate(-7.318 7.486)" fill="#cd008e"/><path d="M22.621,9.5c0-.552.11-1.1.11-1.657.11-.663.221-1.326.331-1.878a24.865,24.865,0,0,1,.884-2.652,7.844,7.844,0,0,1,1.1-1.547l.994-.663c.11-.11.221,0,.221.11,0,.331.11.663.11.994V4.2c0,.331-.11.552-.11.884a17.663,17.663,0,0,1-.552,2.32,9.033,9.033,0,0,1-1.326,2.21,3.613,3.613,0,0,1-1.657,1.215c-.221.11-.331.11-.331-.221l.221-1.1Z" transform="translate(-7.013 6.222)" fill="#cd008e"/><path d="M58.4,10.571V10.9c0,.11,0,.11-.11.11a5.387,5.387,0,0,1-.773-.331,4.71,4.71,0,0,1-1.326-1.215,7.949,7.949,0,0,1-1.326-2.32,7.926,7.926,0,0,1-.663-3.2,16.264,16.264,0,0,1,0-2.32V1.51c0-.11,0-.11.11-.11a3.308,3.308,0,0,1,.884.442,6.305,6.305,0,0,1,1.436,1.547,9.565,9.565,0,0,1,1.1,2.652,22.63,22.63,0,0,1,.552,2.652c0,.442.11.884.11,1.215q0,.331,0,.663Z" transform="translate(-3.68 6.257)" fill="#cd008e"/><path d="M31.871.11a1.638,1.638,0,0,1-.111.773,12.848,12.848,0,0,1-.442,1.989A14.41,14.41,0,0,1,29.551,6.3a4.73,4.73,0,0,1-1.768,1.547,3.874,3.874,0,0,1-1.547.663h-.221c-.11,0-.221,0-.11-.11s.11-.442.11-.663a25.5,25.5,0,0,1,1.1-3.094A10.4,10.4,0,0,1,28.446,2.21,4.815,4.815,0,0,1,29.993.773,4.561,4.561,0,0,1,31.65,0h.11C31.871,0,31.871,0,31.871.11Z" transform="translate(-6.65 6.11)" fill="#cd008e"/><path d="M29.442,7.9l1.1.11c.111,0,.111,0,.111.221s-.331.442-.552.663a1.94,1.94,0,0,0-.442.552c-.11.11-.221.221-.331.221l-.552.11-1.547.331h-.11a.108.108,0,0,0-.11.11v1.436c0,.11-.11.221-.11.331a9.036,9.036,0,0,1-2.1.994,8.86,8.86,0,0,1-2.32.552l-.663.11c-.221,0-.221,0-.11-.221L22.37,12.1a7.386,7.386,0,0,1,1.878-2.21,8.486,8.486,0,0,1,2.762-1.547,11.737,11.737,0,0,1,2.1-.442Z" transform="translate(-7.094 6.94)" fill="#cd008e"/><path d="M54.1,11.125v-.773c0-.221,0-.221-.221-.221s-.663-.221-.994-.221a3.226,3.226,0,0,1-.994-.221.238.238,0,0,1-.221-.221A6.751,6.751,0,0,1,50.9,7.921V7.81a.108.108,0,0,1,.11-.11h.442a10.621,10.621,0,0,1,3.2.884,9.933,9.933,0,0,1,2.873,1.878,13.992,13.992,0,0,1,2.32,2.762c.221.221.221.221-.11.331H58.3a8.53,8.53,0,0,1-1.657-.221,9.672,9.672,0,0,1-2.431-1.1.406.406,0,0,1-.11-.331v-.773Z" transform="translate(-4.022 6.919)" fill="#cd008e"/><path d="M54.593,6.972a4.7,4.7,0,0,1-.221,1.215c0,.11-.11.11-.11,0l-.111-.11c-.663-.552-1.326-1.1-1.989-1.768a11.9,11.9,0,0,1-1.989-2.652A5.209,5.209,0,0,1,49.511,2a2.433,2.433,0,0,1-.11-.884,3.759,3.759,0,0,1,.11-1.1c0-.11,0-.11.11-.11l.221.11a11.729,11.729,0,0,1,2.32,1.768A20.176,20.176,0,0,1,53.6,3.546a5.479,5.479,0,0,1,.884,2.21C54.483,6.309,54.593,6.64,54.593,6.972Z" transform="translate(-4.179 6.1)" fill="#cd008e"/><path d="M46.126,4.2a13.91,13.91,0,0,1,2.983.442,7.924,7.924,0,0,1,3.2,1.878c.221.221.552.442.773.663v.11c.11.11,0,.11-.11.221a5.6,5.6,0,0,1-1.436.221H51.1a7.629,7.629,0,0,1-2.762-.442,8.282,8.282,0,0,1-2.21-1.1,5.238,5.238,0,0,1-1.1-1.1c-.111-.221-.111-.331-.221-.552,0-.11,0-.221.11-.221l.442-.11Z" transform="translate(-4.662 6.551)" fill="#cd008e"/><path d="M30.351,7.654a5.38,5.38,0,0,1-1.326-.11c-.331-.11-.331-.11-.11-.331A7.792,7.792,0,0,1,31.9,4.892a15.771,15.771,0,0,1,2.431-.884,8.955,8.955,0,0,1,2.431,0h0c.221,0,.221.11.221.221a2.049,2.049,0,0,1-.773,1.326,5.194,5.194,0,0,1-1.326.994,8.335,8.335,0,0,1-2.652.884A3.817,3.817,0,0,1,30.351,7.654Z" transform="translate(-6.346 6.523)" fill="#cd008e"/><path d="M37.63,0h0c.221,0,.221,0,.221.11a3.134,3.134,0,0,1-.442,1.436,5.238,5.238,0,0,1-1.1,1.1,5.863,5.863,0,0,1-1.878.884c-1.1.331-2.21.552-3.315.773h0c-.11,0-.11,0-.11-.11a3.425,3.425,0,0,1,.663-1.436A5.372,5.372,0,0,1,33.541,1.1,9.9,9.9,0,0,1,36.083.221,8.668,8.668,0,0,1,37.63,0Z" transform="translate(-6.11 6.11)" fill="#cd008e"/><path d="M43.4.321C43.4.1,43.4.1,43.621.1a10.791,10.791,0,0,1,2.541.663A7.841,7.841,0,0,1,48.593,2.2a4.271,4.271,0,0,1,1.326,2.1c.11.221,0,.331-.221.221a18.9,18.9,0,0,1-3.315-.994,4.161,4.161,0,0,1-1.657-.994,3.365,3.365,0,0,1-.994-1.436A.86.86,0,0,1,43.4.321Z" transform="translate(-4.809 6.121)" fill="#cd008e"/><path d="M40.335,50.392A1.867,1.867,0,0,1,40,51.5a1.127,1.127,0,0,1-.884.552.97.97,0,0,1-.773-.11.574.574,0,0,1-.221-.442.238.238,0,0,1,.221-.221.406.406,0,0,1,.331.11h0v.221c0,.11.11.221.331.221h.11c.11,0,.221-.11.331-.221.11-.221.221-.552.331-.773V50.5h-.11a1.174,1.174,0,0,1-.884.111.831.831,0,0,1-.773-.552,1.228,1.228,0,0,1,.552-1.547.342.342,0,0,0,.221-.11,1.439,1.439,0,0,1,1.436.552C40.224,49.4,40.335,49.839,40.335,50.392Zm-.663-.442h0c0-.221-.11-.442-.11-.773a.574.574,0,0,0-.221-.442c-.11-.221-.442-.221-.663-.11a.108.108,0,0,0-.11.11c-.11.11-.11.11-.11.221a1.308,1.308,0,0,0,.11,1.1q.166.331.331.331a.486.486,0,0,0,.552-.11c.221,0,.221-.221.221-.331Zm-.11-.994c0,.11.11.221.11.442a4.533,4.533,0,0,1,.11,1.215,1.867,1.867,0,0,1-.331,1.1h0a1.781,1.781,0,0,0,.442-.773,2.27,2.27,0,0,0,0-1.215A.86.86,0,0,0,39.561,48.955Zm-1.326-.11a1.06,1.06,0,0,0-.331,1.1c0,.221.221.331.331.442s.11.11.331.11A1.544,1.544,0,0,1,38.235,48.845Zm.11,2.873c0-.11,0-.11-.11-.221h-.11c.11.11.11.221.221.221Z" transform="translate(-5.39 11.188)" fill="#cd008e"/><path d="M43.794,48.511h.994v.11c0,.11,0,.11-.11.221a6.168,6.168,0,0,1-.552.884,2.43,2.43,0,0,0-.221,1.547v.552c0,.221,0,.11-.11.11h-.442c-.11,0-.11,0-.11-.221a4.1,4.1,0,0,1,.442-1.547l.663-.994.11-.11v-.11h-1.1c-.11,0-.331.11-.331.221a.108.108,0,0,1-.111.11H42.8v-.221c0-.111.11-.331.11-.442s.111-.221.331-.221Zm.11,1.436h0a3.4,3.4,0,0,0-.552,1.326v.442h.221V51.6h0a4.7,4.7,0,0,1,.221-1.215A.835.835,0,0,1,43.9,49.947Zm0-1.215h.552v-.11H43.021a.108.108,0,0,0-.111.11h0c0,.11.111,0,.111,0Z" transform="translate(-4.872 11.191)" fill="#cd008e"/><path d="M41.7,48.5h.884c.11,0,.11,0,.11.11s-.11.111-.11.221c-.221.331-.331.552-.552.884a3.033,3.033,0,0,0-.221,1.436V51.7c0,.221,0,.11-.11.11h-.442c-.11,0-.11,0-.11-.11a1.2,1.2,0,0,1,.11-.552,5.209,5.209,0,0,1,.663-1.657l.221-.442h-.884a.608.608,0,0,0-.552.331H40.6v-.11c.11-.221.11-.442.221-.663l.111-.11H41.7Zm0,1.547h0a5.922,5.922,0,0,0-.552,1.215V51.7c0,.221,0,.11.11.11s.11,0,.11-.11h0a4.7,4.7,0,0,1,.221-1.215c0-.221.111-.331.111-.442Zm-.11-1.436h-.663c-.111,0-.111,0-.111.111v.11h.111a2.746,2.746,0,0,1,.884-.11h.442a.108.108,0,0,1,.111-.111h-.773Z" transform="translate(-5.103 11.202)" fill="#cd008e"/><path d="M36.9,49.947v1.326a.608.608,0,0,0,.331.552H35.8v-.11l.221-.11c.221-.11.331-.221.331-.442v-2.1c0-.11-.111-.331-.221-.331s-.221,0-.221-.11.11-.11.221-.11l.773-.11c.111,0,.111,0,.111.11l-.11,1.436Zm-.221.221h0V48.731l-.11-.11a.406.406,0,0,0-.331.11v.11c.221.111.221.221.221.442V51.6c0,.11,0,.11-.111.221v.11h.331c.11,0,.11,0,0-.11V50.168Z" transform="translate(-5.607 11.191)" fill="#cd008e"/><path d="M41.018,40.259c-.11.11-.331.11-.442.221a3.059,3.059,0,0,1-.994.11H38.034a4.785,4.785,0,0,0-.552.11h-.11v-.11a1.168,1.168,0,0,1,.773-.663,2.433,2.433,0,0,1,.884-.11h.442a.844.844,0,0,0,.552-.221h.111v-.11h0a.5.5,0,0,1-.552,0l-1.215-.11a8.668,8.668,0,0,0-1.547-.221,1.676,1.676,0,0,0-1.436.331l-.221.11h-.11v-.11a1.725,1.725,0,0,1,.884-.884,2.43,2.43,0,0,1,1.547-.221,5.546,5.546,0,0,0,1.326.221,2.746,2.746,0,0,0,.884.11.831.831,0,0,0,.773-.552,1.638,1.638,0,0,0,.11-.773,1.543,1.543,0,0,0-.331-.994,1.94,1.94,0,0,0-.442-.552,4.478,4.478,0,0,0-.994-.552l-.221-.11c-.221-.111-.221-.111-.331.11a4.2,4.2,0,0,1-1.436.994,3.529,3.529,0,0,1-1.547.331h-1.1c-.11,0-.11-.11-.11-.221a1.331,1.331,0,0,1,.552-.552,6.058,6.058,0,0,1,1.657-.884c.331-.11.663-.11.994-.221h.221v-.11h-.11l-1.215-.663a.207.207,0,0,0-.331,0,5.161,5.161,0,0,1-1.1.552,8.139,8.139,0,0,1-1.547.442H31.846v-.11a2.93,2.93,0,0,1,.663-.552,3.742,3.742,0,0,1,1.657-.663c.331-.11.663-.11.994-.221h0l-.221-.221c-.11-.221-.331-.331-.442-.552h-.221a1.571,1.571,0,0,1-.663.221,5.515,5.515,0,0,1-3.757-.221h-.11c-.11,0-.11-.111,0-.111l.331-.221a3.4,3.4,0,0,1,1.436-.331H32.4a3.059,3.059,0,0,1,.994.11h0l-.221-.221c-.11-.11-.221-.11-.221-.221a.406.406,0,0,0-.331-.11,5.757,5.757,0,0,1-3.2-.994,5.792,5.792,0,0,1-1.1-1.215l-.11-.111a.108.108,0,0,1,.11-.11l.331.11a18.424,18.424,0,0,1,2.21.884l.663.331v-.11A9.618,9.618,0,0,1,30.52,29.1,8.479,8.479,0,0,1,29.194,26v-.11c0-.11,0-.11.11-.11l.663.331.331.331a10.948,10.948,0,0,1,1.215,1.878c.221.442.442.994.663,1.436a2.415,2.415,0,0,0,.331.552.108.108,0,0,0,.11.11v-.11a8.14,8.14,0,0,1-.442-1.547A4.783,4.783,0,0,1,32.067,27v-.663c0-.11,0,0,.11,0l.221.221a5.317,5.317,0,0,1,.884,1.768,9.671,9.671,0,0,1,.221,1.768v.884a.838.838,0,0,0,.221.442,2.312,2.312,0,0,0,.663.442h0a1.571,1.571,0,0,1-.221-.663,6.3,6.3,0,0,1,0-2.873v-.111c0-.11.111-.11.111,0a3.876,3.876,0,0,1,.552.884,6.257,6.257,0,0,1,.331,1.989,5.38,5.38,0,0,1-.11,1.326v.221c.11.11.11.221.221.221a1.94,1.94,0,0,1,.552.442v-.221a7.518,7.518,0,0,1-.221-2.21,4.7,4.7,0,0,1,.221-1.215c0-.11,0-.221.11-.221a.238.238,0,0,1,.221.221,2.11,2.11,0,0,1,.331.884,8.412,8.412,0,0,1,.331,2.32c0,.221-.11.552-.11.773,0,.11,0,.11.11.221a3.456,3.456,0,0,0,1.1.552h.221c0-.11,0-.11-.11-.221a4.843,4.843,0,0,1-.773-2.1,2.27,2.27,0,0,1,0-1.215v-.11s.11-.11.11,0c.221.221.331.442.552.552a3.425,3.425,0,0,1,.663,1.436,6.522,6.522,0,0,1,.221,1.547c0,.442,0,.331.331.552.221.11.552.221.773.331a2.861,2.861,0,0,1,1.215.773h.11v-.442c0-.11,0-.11-.11-.221s-.552-.221-.773-.442a4.143,4.143,0,0,1-1.768-2.32c0-.11-.11-.331-.11-.442s0-.11.11-.11l.221.11a5.746,5.746,0,0,1,2.21,2.1l.11.11h.111V33.3a.238.238,0,0,0-.221-.221c-.331-.11-.663-.331-.994-.442a4.317,4.317,0,0,1-1.547-1.878c-.11-.221-.11-.331-.221-.552,0-.111,0-.111.11-.111l.663.331a3.59,3.59,0,0,1,1.436,1.1,1.982,1.982,0,0,1,.552.773h.221v-.11a2.157,2.157,0,0,0-.11-.773c-.11-.331-.11-.111-.11-.221l-.442-.331a6.964,6.964,0,0,1-2.21-2.541.386.386,0,0,0-.11-.221m.11-.221h.221a2.293,2.293,0,0,1,1.1.663c.331.331.552.663.884.994l.552.663h0v-.442a.108.108,0,0,0-.11-.11l-.663-.552a4.092,4.092,0,0,1-1.326-2.652,1.88,1.88,0,0,1-.11-.773v-.221h.11a6.317,6.317,0,0,1,.773.884c.221.442.552.884.773,1.326a.844.844,0,0,1,.221.552h0v-.331a3.651,3.651,0,0,1,0-1.547,4.679,4.679,0,0,1,.442-1.326.108.108,0,0,1,.11-.11h.11l.11.11a1.867,1.867,0,0,1,.221.552,3.059,3.059,0,0,1,.11.994,7.3,7.3,0,0,1-.11,1.547v.331a2.415,2.415,0,0,1,.331-.552,10.267,10.267,0,0,0,.552-1.1,3.876,3.876,0,0,1,.552-.884,2.41,2.41,0,0,1,.552-.442H44v.111a6.666,6.666,0,0,1-.663,2.1,6.193,6.193,0,0,1-1.1,1.657l-.221.221a.574.574,0,0,0-.221.442h0l.11-.221a7.094,7.094,0,0,1,1.1-1.436,1.718,1.718,0,0,1,.884-.663l.221-.11c.11,0,.11,0,.11.11-.11.221-.11.552-.221.773a5.164,5.164,0,0,1-1.989,2.541l-.221.11c-.11,0-.221.11-.11.221h0v.552s.11.11.11,0l.221-.221a11,11,0,0,1,1.547-1.657c.221-.221.552-.331.773-.552h.221v.11a4.694,4.694,0,0,1-1.1,1.878,4.906,4.906,0,0,1-1.215.884l-.442.221c-.11,0-.11.11-.11.221v.994l.11-.11a9.217,9.217,0,0,1,1.326-.884,4.558,4.558,0,0,1,1.436-1.1h.11c.11,0,.11,0,.11.11a2.132,2.132,0,0,1-.331,1.1A3.976,3.976,0,0,1,43.228,34.4a2.406,2.406,0,0,1-.884.552c-.111,0-.221.221-.221.331v.552h.11a6.072,6.072,0,0,1,.994-.773,5.922,5.922,0,0,1,1.215-.552c.11,0,.221-.221.221-.331a5.38,5.38,0,0,1,.11-1.326,7.976,7.976,0,0,1,.994-2.21l.221-.221c.111-.11.11,0,.11,0v.884a2.433,2.433,0,0,1-.11.884c-.331.552-.442,1.1-.773,1.657v.221c0,.11,0,0,.11,0a.386.386,0,0,0,.221-.11l.773-.442.221-.221a.828.828,0,0,0,.11-.552v-.11a1.56,1.56,0,0,1-.11-.994,3.4,3.4,0,0,1,.331-1.436c.11-.221.11-.442.221-.663,0-.221.11-.331.221-.552a.108.108,0,0,0,.11-.11v.11l.11.552a4.185,4.185,0,0,1,0,1.657,3.059,3.059,0,0,1-.331,1.436v.11h.11c.331-.221.552-.442.884-.663a.406.406,0,0,0,.11-.331,5.6,5.6,0,0,1-.221-1.436,3.059,3.059,0,0,1,.11-.994,5.386,5.386,0,0,1,.442-1.215c.11-.11.11-.331.221-.442,0-.11.11-.11.11-.221h.11A12.176,12.176,0,0,1,49.3,29.43c0,.442-.11.773-.11,1.215a.406.406,0,0,1-.11.331h0a.108.108,0,0,0,.11-.11l.442-.552a.153.153,0,0,0,0-.221,3.059,3.059,0,0,1-.111-.994,4.679,4.679,0,0,1,1.326-3.315l.11-.11a.386.386,0,0,1,.111.221,4.513,4.513,0,0,1-.111,2.1,8.66,8.66,0,0,1-.552,1.547v.11c.11,0,.11-.11.221-.221a14.254,14.254,0,0,0,.994-1.768,8.242,8.242,0,0,1,.773-1.326,5.238,5.238,0,0,1,1.1-1.1.664.664,0,0,1,.442-.11c.11,0,.11,0,.11.11v.11a6.084,6.084,0,0,1-1.1,2.762A10.239,10.239,0,0,1,51.4,29.651l-.11.11.221-.11a10.37,10.37,0,0,1,1.657-.663,4.7,4.7,0,0,1,1.215-.221H54.5c.11,0,.11.11,0,.11l-.11.111a5.331,5.331,0,0,1-2.431,1.657,4.434,4.434,0,0,1-1.657.331,1.127,1.127,0,0,0-.884.552h1.215a4.57,4.57,0,0,1,2.1.552c.11.11.331.11.442.221a.108.108,0,0,1-.11.111c-.442.11-.773.221-1.215.331a3.759,3.759,0,0,1-1.1.11,6.467,6.467,0,0,1-1.436-.221l-.552-.221c-.11-.111-.331,0-.442.11l-.331.331-.221.221c0,.11-.221.11-.221.221l.221.11c.552.11,1.1.331,1.657.442a10.1,10.1,0,0,1,1.547.773.108.108,0,0,1,.11.11v.11l-.221.11H49.415a5.385,5.385,0,0,1-2.431-1.1.207.207,0,0,0-.331,0l-.884.442a.238.238,0,0,0-.221.221l-.11.11a.108.108,0,0,1,.11.11,9.559,9.559,0,0,1,1.878.773,4.906,4.906,0,0,1,1.215.884l.11.11m0,0h-.884a2.746,2.746,0,0,1-.884-.11A4.42,4.42,0,0,1,45,35.287l-.221-.331c0-.11-.11-.11-.221,0A2.735,2.735,0,0,0,42.786,36.5a3.226,3.226,0,0,0-.221.994v.552a.731.731,0,0,0,.663.773.944.944,0,0,0,.773,0l1.215-.331a2.433,2.433,0,0,1,.884-.11,1.421,1.421,0,0,1,1.326.442,2.411,2.411,0,0,1,.442.552l-.221-.11a3.181,3.181,0,0,0-1.436-.11,2.049,2.049,0,0,0-.773.221l-.663.331a3.416,3.416,0,0,1-.884.221h-.663a.664.664,0,0,0,.442.11h.884a1.4,1.4,0,0,1,.663.11c.11,0,.221.11.331.221l.221.221c.11.221,0,.221-.11.221H43.228a1.867,1.867,0,0,1-1.1-.331h-.11v.11a1.4,1.4,0,0,1-.11.663,2.311,2.311,0,0,1-.442.663h-.11v-.332a.664.664,0,0,0-.11-.442,7.614,7.614,0,0,1-.331-.884v-.11Z" transform="translate(-6.404 8.724)" fill="#cd008e"/><path d="M42.4,11.242c0-.11.11-.221.221-.331a.406.406,0,0,1,.331-.11h0l-.11.221a.238.238,0,0,0-.221.221.11.11,0,0,1-.221,0Z" transform="translate(-4.914 7.244)" fill="#cd008e"/><path d="M42.4,12.031a.238.238,0,0,1,.221-.221.406.406,0,0,1,.331-.11h.11a.108.108,0,0,1-.11.11h-.11l-.331.331c.11,0,0,0-.111-.11.11.11.11,0,0,0Z" transform="translate(-4.914 7.339)" fill="#cd008e"/></g></g></svg>