<svg xmlns="http://www.w3.org/2000/svg" xmlns:xlink="http://www.w3.org/1999/xlink" width="70" height="70" viewBox="0 0 70 70"><defs><clipPath id="b"><rect width="70" height="70"/></clipPath></defs><g id="a" clip-path="url(#b)"><rect width="70" height="70" fill="#393939"/><path d="M-4.6-1.312-17.924-6.855v-3.469L-4.6-15.855v4.16l-8.1,3.117,8.1,3.129ZM.967-17.473H3.4L-.908.281H-3.322ZM4.6-1.312,17.924-6.855v-3.469L4.6-15.855v4.16l8.1,3.117L4.6-5.449Zm-8.865,7.84v3.844h-.527a1.687,1.687,0,0,0-1.107.311,1.722,1.722,0,0,0-.521.955,12.944,12.944,0,0,0-.094,1.928,7.928,7.928,0,0,1-.328,2.479,2.755,2.755,0,0,1-.668,1.113A3.767,3.767,0,0,1-8.59,17.8a3.927,3.927,0,0,1,1.166.756,3.149,3.149,0,0,1,.65,1.2,8.767,8.767,0,0,1,.27,2.561,7.98,7.98,0,0,0,.164,2.063,1.14,1.14,0,0,0,.545.68,3.822,3.822,0,0,0,1.529.2v3.8H-5.742a7.6,7.6,0,0,1-3.246-.5A2.883,2.883,0,0,1-10.359,27.1a7.627,7.627,0,0,1-.41-2.865q0-.422.023-.844.012-.258.012-.527a5.377,5.377,0,0,0-.246-1.934,1.657,1.657,0,0,0-.709-.832,2.975,2.975,0,0,0-1.342-.281V15.8a2.6,2.6,0,0,0,1.354-.281,1.745,1.745,0,0,0,.686-.861,5.778,5.778,0,0,0,.234-1.963v-.4q-.012-.27-.012-.539a9.346,9.346,0,0,1,.346-3,3.216,3.216,0,0,1,.955-1.418,3.055,3.055,0,0,1,1.242-.562,10.4,10.4,0,0,1,2.379-.246Zm1.723,5.027h5.1v4.781h-5.1Zm0,7.711h5.1v3.926a5.756,5.756,0,0,1-.9,3.422A7.355,7.355,0,0,1-1.43,28.828l-1.113-2.086a5.334,5.334,0,0,0,1.869-1.26A2.567,2.567,0,0,0-.105,24H-2.543ZM4.266,6.527v3.844h.527a1.687,1.687,0,0,1,1.107.311,1.722,1.722,0,0,1,.521.955,12.944,12.944,0,0,1,.094,1.928,7.928,7.928,0,0,0,.328,2.479,2.755,2.755,0,0,0,.668,1.113A3.767,3.767,0,0,0,8.59,17.8a3.927,3.927,0,0,0-1.166.756,3.149,3.149,0,0,0-.65,1.2,8.767,8.767,0,0,0-.27,2.561,7.98,7.98,0,0,1-.164,2.063,1.14,1.14,0,0,1-.545.68,3.822,3.822,0,0,1-1.529.2v3.8H5.742a7.6,7.6,0,0,0,3.246-.5A2.883,2.883,0,0,0,10.359,27.1a7.627,7.627,0,0,0,.41-2.865q0-.422-.023-.844-.012-.258-.012-.527a5.377,5.377,0,0,1,.246-1.934,1.657,1.657,0,0,1,.709-.832,2.975,2.975,0,0,1,1.342-.281V15.8a2.6,2.6,0,0,1-1.354-.281,1.745,1.745,0,0,1-.686-.861,5.778,5.778,0,0,1-.234-1.963v-.4q.012-.27.012-.539a9.346,9.346,0,0,0-.346-3,3.216,3.216,0,0,0-.955-1.418,3.055,3.055,0,0,0-1.242-.562,10.4,10.4,0,0,0-2.379-.246Z" transform="translate(35 29.473)" fill="#f96d00"/></g></svg>