<svg xmlns="http://www.w3.org/2000/svg" xmlns:xlink="http://www.w3.org/1999/xlink" width="70" height="70" viewBox="0 0 70 70"><defs><clipPath id="b"><rect width="70" height="70"/></clipPath></defs><g id="a" clip-path="url(#b)"><rect width="70" height="70" fill="#fef000"/><path d="M41.339-317.894H51.813a124.537,124.537,0,0,1-1.879-21.151c.668-23.721-6.858-26.893-14.943-27.9s-1,.871-.869.869a10.893,10.893,0,0,1,5.753,1.582c2.78,1.715,10.485,6.771,5.34,30.024-3.06,13.83-3.876,16.572-3.876,16.572" transform="translate(-14.942 382.894)" fill="#231f20"/><path d="M254.922-217.326a4.283,4.283,0,0,1-4.283,4.283,4.283,4.283,0,0,1-4.283-4.283,4.283,4.283,0,0,1,4.283-4.283,4.283,4.283,0,0,1,4.283,4.283" transform="translate(-201.256 256.834)" fill="#231f20"/><path d="M188.023-257.25a4.283,4.283,0,0,1-4.283,4.283,4.283,4.283,0,0,1-4.283-4.283,4.283,4.283,0,0,1,4.283-4.283,4.283,4.283,0,0,1,4.283,4.283" transform="translate(-143.345 291.393)" fill="#231f20"/><path d="M190.345-179.212a4.283,4.283,0,0,1-4.283,4.283,4.283,4.283,0,0,1-4.283-4.283,4.283,4.283,0,0,1,4.283-4.283,4.283,4.283,0,0,1,4.283,4.283" transform="translate(-145.356 223.84)" fill="#231f20"/><path d="M249.452-302.866a4.283,4.283,0,0,1-4.283,4.283,4.283,4.283,0,0,1-4.283-4.283,4.283,4.283,0,0,1,4.283-4.283,4.283,4.283,0,0,1,4.283,4.283" transform="translate(-196.521 330.88)" fill="#231f20"/><path d="M178.529-334.4a4.283,4.283,0,0,1-4.283,4.283,4.283,4.283,0,0,1-4.283-4.283,4.283,4.283,0,0,1,4.283-4.283,4.283,4.283,0,0,1,4.283,4.283" transform="translate(-135.127 358.173)" fill="#231f20"/><path d="M240.121-380.361a4.283,4.283,0,0,1-4.283,4.283,4.283,4.283,0,0,1-4.283-4.283,4.283,4.283,0,0,1,4.283-4.283,4.283,4.283,0,0,1,4.283,4.283" transform="translate(-188.444 397.964)" fill="#231f20"/><path d="M305.04-252.064a2.507,2.507,0,0,1-2.507,2.507,2.507,2.507,0,0,1-2.507-2.507,2.507,2.507,0,0,1,2.507-2.507,2.507,2.507,0,0,1,2.507,2.507" transform="translate(-247.715 285.367)" fill="#231f20"/><path d="M142.526-444.056a2.507,2.507,0,0,1-2.507,2.507,2.507,2.507,0,0,1-2.507-2.507,2.507,2.507,0,0,1,2.507-2.507,2.507,2.507,0,0,1,2.507,2.507" transform="translate(-107.036 451.563)" fill="#231f20"/><path d="M77.783-410.233a2.507,2.507,0,0,1-2.507,2.507,2.507,2.507,0,0,1-2.507-2.507,2.507,2.507,0,0,1,2.507-2.507,2.507,2.507,0,0,1,2.507,2.507" transform="translate(-50.991 422.285)" fill="#231f20"/><path d="M21.687-288.23a2.507,2.507,0,0,1-2.507,2.507,2.507,2.507,0,0,1-2.507-2.507,2.507,2.507,0,0,1,2.507-2.507,2.507,2.507,0,0,1,2.507,2.507" transform="translate(-2.433 316.673)" fill="#231f20"/><path d="M191.925-432.043a4.283,4.283,0,0,1-4.283,4.283,4.283,4.283,0,0,1-4.283-4.283,4.283,4.283,0,0,1,4.283-4.283,4.283,4.283,0,0,1,4.283,4.283" transform="translate(-146.723 442.701)" fill="#231f20"/><path d="M131.936-391.354a4.283,4.283,0,0,1-4.283,4.283,4.283,4.283,0,0,1-4.283-4.283,4.283,4.283,0,0,1,4.283-4.283,4.283,4.283,0,0,1,4.283,4.283" transform="translate(-94.794 407.479)" fill="#231f20"/><path d="M8.566-390.572a4.283,4.283,0,0,1-4.283,4.283A4.283,4.283,0,0,1,0-390.572a4.283,4.283,0,0,1,4.283-4.283,4.283,4.283,0,0,1,4.283,4.283" transform="translate(12 406.802)" fill="#231f20"/><path d="M63.636-330.592a4.283,4.283,0,0,1-4.283,4.283,4.283,4.283,0,0,1-4.283-4.283,4.283,4.283,0,0,1,4.283-4.283,4.283,4.283,0,0,1,4.283,4.283" transform="translate(-35.671 354.882)" fill="#231f20"/><path d="M86.151-257.465a4.283,4.283,0,0,1-4.283,4.283,4.283,4.283,0,0,1-4.283-4.283,4.283,4.283,0,0,1,4.283-4.283,4.283,4.283,0,0,1,4.283,4.283" transform="translate(-55.161 291.579)" fill="#231f20"/><path d="M14.82-240.3a4.283,4.283,0,0,1-4.283,4.283A4.283,4.283,0,0,1,6.255-240.3a4.283,4.283,0,0,1,4.283-4.283A4.283,4.283,0,0,1,14.82-240.3" transform="translate(6.586 276.724)" fill="#231f20"/><path d="M72.644-183.159a4.283,4.283,0,0,1-4.283,4.283,4.283,4.283,0,0,1-4.283-4.283,4.283,4.283,0,0,1,4.283-4.283,4.283,4.283,0,0,1,4.283,4.283" transform="translate(-43.469 227.258)" fill="#231f20"/></g></svg>