<svg xmlns="http://www.w3.org/2000/svg" xmlns:xlink="http://www.w3.org/1999/xlink" width="70" height="70" viewBox="0 0 70 70"><defs><clipPath id="b"><rect width="70" height="70"/></clipPath></defs><g id="a" clip-path="url(#b)"><rect width="70" height="70" fill="#2b4469"/><path d="M144.489,154.071c-4.291,4.5-5.6,10.4-3.452,14.03,0,0-11.032,4.989-21.462.441-10.983-4.789-20.008,1.9-20.008,1.9l-.011-2.7c9.272-2.082,7.843-4.94,8.062-14.962V138.314c0-10.092-.167-10.167-7.945-10.723V125.46s4.442-.012,11.871,0,11.408,0,11.408,0v2.132c-7.961.556-8.128.631-8.128,10.723,0,0-.042,7.58,0,14.679.039,7.054.135,9.867,3.8,12.714a13.228,13.228,0,0,0,8.343,2.594c2.812.036,7.191-1.29,9.408-3.663a13.8,13.8,0,0,0,2.946-4.628,59.166,59.166,0,0,0,2.354-6.282l2.242.262.569.081" transform="translate(-86.556 -112.455)" fill="#fff" fill-rule="evenodd"/></g></svg>