<svg xmlns="http://www.w3.org/2000/svg" xmlns:xlink="http://www.w3.org/1999/xlink" width="70" height="70" viewBox="0 0 70 70"><defs><clipPath id="b"><rect width="70" height="70"/></clipPath></defs><g id="a" clip-path="url(#b)"><rect width="70" height="70"/><path d="M13.25,1a15.4,15.4,0,0,1,7.329,1.583,10.475,10.475,0,0,1,4.393,4.3,12.878,12.878,0,0,1,1.362,6.107v1.91a4.967,4.967,0,0,0,.741,2.892,3.026,3.026,0,0,0,2.5,1.054,2.613,2.613,0,0,0,2.295-1.054,4.836,4.836,0,0,0,.765-2.89V1H42.773v14.98a12.713,12.713,0,0,1-1.456,6.107,10.248,10.248,0,0,1-4.417,4.3,15.608,15.608,0,0,1-7.379,1.583,15.375,15.375,0,0,1-7.327-1.583,10.458,10.458,0,0,1-4.393-4.3,12.886,12.886,0,0,1-1.431-6.107v-1.91a4.961,4.961,0,0,0-.849-2.89A2.676,2.676,0,0,0,13.2,10.12a2.612,2.612,0,0,0-2.295,1.054,4.841,4.841,0,0,0-.765,2.892V27.239H0V12.985a12.725,12.725,0,0,1,1.456-6.11,10.277,10.277,0,0,1,4.417-4.3A15.606,15.606,0,0,1,13.25,1Z" transform="translate(14 21.005)" fill="#fff"/></g></svg>