<svg xmlns="http://www.w3.org/2000/svg" xmlns:xlink="http://www.w3.org/1999/xlink" width="70" height="70" viewBox="0 0 70 70"><defs><clipPath id="b"><rect width="70" height="70"/></clipPath></defs><g id="a" clip-path="url(#b)"><rect width="70" height="70" fill="#fff"/><g transform="translate(-47.177 322.971)"><g transform="translate(54.177 -314.971)"><path d="M118.847-293.558a23.463,23.463,0,0,1,4.424-1.4l-.069-20.014a27.356,27.356,0,0,0-14.1,4.117l8.928,17.672c.267-.127.532-.254.813-.376" transform="translate(-96.092 314.971)" fill="#fcd205"/><path d="M76.729-267.278l-11.489-15.2a27.463,27.463,0,0,0-7.6,13.111l15.318,5.868a10.057,10.057,0,0,1,3.767-3.783" transform="translate(-56.822 290.173)" fill="#fcd205"/><path d="M213.291-252.049c3.472,7.118-4.514,6.945-1.215,12.5,1.532,2.581,6.362,5.948,11.094,8.814a27.372,27.372,0,0,0,5.873-16.974A27.365,27.365,0,0,0,224.5-262.85l-11.96,9.7a5.063,5.063,0,0,1,.755,1.1" transform="translate(-174.042 275.199)" fill="#fcd205"/><path d="M185.8-292.367l9.935-12.886a27.432,27.432,0,0,0-13.409-7.186l-3.8,19.053a13.115,13.115,0,0,1,7.277,1.018" transform="translate(-149.066 313.038)" fill="#fcd205"/><path d="M79.565-175.73a2.986,2.986,0,0,1-2.986-2.986,2.986,2.986,0,0,1,2.986-2.986,2.986,2.986,0,0,1,2.986,2.986A2.985,2.985,0,0,1,79.565-175.73Zm7.263-9.12c-5.556-5.035-12.327-1.389-15.8-8.16a10.582,10.582,0,0,1-1.394-6.27l-15.444-1.9c0,.177-.013.353-.013.53a27.5,27.5,0,0,0,27.5,27.5,27.384,27.384,0,0,0,11.761-2.639,37.373,37.373,0,0,0-6.611-9.061" transform="translate(-54.177 228.139)" fill="#ed1a2c"/></g></g></g></svg>