<svg xmlns="http://www.w3.org/2000/svg" xmlns:xlink="http://www.w3.org/1999/xlink" width="70" height="70" viewBox="0 0 70 70"><defs><clipPath id="b"><rect width="70" height="70"/></clipPath></defs><g id="a" clip-path="url(#b)"><rect width="70" height="70" fill="#fff"/><g transform="translate(-16.926 -3.43)"><path d="M47.746,9.592A37.637,37.637,0,0,0,31.04,14.927c-1.8,1.153-1.706.976-2.1,3.986-2.287,17.574-.639,33.379,4.218,40.452,3.916,5.7,14.967,11.052,20.475,9.912,7.514-1.556,14.953-6.526,17.6-11.76,3.962-7.821,5.148-20.739,3.374-36.763-.539-4.872-.43-4.585-2.187-5.743-6.252-4.119-15.714-6.2-24.679-5.417m6.763,4.5c12.576,2.2,19.1,16.126,12.524,26.729-.77,1.241-.932,1.417-.984,1.06A22.338,22.338,0,0,1,67,36.72c4.38-13.746-9.845-25.806-22.805-19.335a16,16,0,0,0-8.073,19.157c.644,1.985,1.32,6.161.916,5.663-9.765-12.04,1.915-30.837,17.469-28.113m.789,5.688c3.609.921,5.9,3.314,8.281,8.643,2.061,4.616,2.427,6.865,1.821,11.2-.562,4.02.19,5.923,4.834,12.231l.89,1.209-.316.831a15.612,15.612,0,0,1-4.291,6.682c-1.928,1.815-1.822,1.8-2.156.315C63.535,57.221,63.306,54.8,63,46.479c-.232-6.29-.441-9.015-.8-10.369-3.15-12.008-17.175-12.563-21-.831-.541,1.657-.693,3.287-.991,10.579-.341,8.356-.539,10.827-1.088,13.573-.542,2.714-.543,2.715-1.639,1.8a16.3,16.3,0,0,1-4.9-7.18l-.426-1.131.9-1.223c4.771-6.481,5.3-7.931,4.678-12.734-.978-7.511,3.718-17.064,9.3-18.925a17.45,17.45,0,0,1,8.262-.254m-1.685,8.886c3.35.994,6.01,3.863,5.758,6.211C58.342,44.492,52.334,49.061,47.379,44c-1.823-1.863-3.535-6.678-3.536-9.942s5.93-6.527,9.77-5.388m-7.6,3.7c-.648.282-.786.536-.189.346a5.137,5.137,0,0,1,2.929.274c1.06.469,1.335.46,1.264-.041-.108-.76-2.719-1.137-4-.578m7.3-.05a4.073,4.073,0,0,0-1.065.586l-.512.407-.089,3.078-.089,3.078-.587.056c-1.06.1-.721.834.379.819,1.16-.016,1.178-.07,1.181-3.465,0-3.25-.032-3.143,1.245-3.816a4.342,4.342,0,0,1,2.075-.332,3.527,3.527,0,0,0,1.331-.113c-.547-.481-2.771-.652-3.87-.3m-6.943,1.91c-.415.188-.754.428-.754.534,0,.306.55.433.908.209.43-.269.455-.263.555.123.138.529.82.6,1.287.131.279-.279.489-.358.675-.254.333.186.87,0,.785-.271-.235-.752-2.236-1.025-3.457-.471m7.718-.056c-.684.284-.872.7-.4.884a.578.578,0,0,0,.516-.1c.195-.162.345-.108.706.253.5.5.97.417,1.326-.219.159-.284.193-.285.5-.01.237.214.41.247.636.121,1.243-.7-1.781-1.549-3.283-.926m-11.05,3.015c.368,2.455,1.834,6.146,2.942,7.408l.545.621-.384,1.425a9.409,9.409,0,0,1-3.686,5.368c-1.028.715-.994.9-.758-3.975.488-10.093.925-13.627,1.342-10.846m17.82,1.126c.166,1.383.349,4.368.7,11.444.155,3.094.2,2.89-.557,2.421-2.822-1.744-4.837-6.122-3.577-7.773a18.3,18.3,0,0,0,2.735-6.865c.272-1.332.469-1.114.695.773m-11.6,3.71-.879.1.613.515a3.822,3.822,0,0,0,4.161.645c.776-.373,1.608-1.03,1.474-1.164a35.733,35.733,0,0,0-5.369-.1M50.5,47.383a6.388,6.388,0,0,0,4.192-.7l1.006-.516.28,1.237a10.664,10.664,0,0,0,4.006,6.025l.619.457-1.246.627c-1.408.709-5.565,2.491-6.92,2.965-1.037.364-1.008.372-5.4-1.5-3.81-1.625-4.592-2.053-4.19-2.29a9.885,9.885,0,0,0,4.459-6.328l.29-1.164.962.485a10.147,10.147,0,0,0,1.946.706m-6.572,8.87c1.269.643,2.423,1.207,2.565,1.254.183.061.039.284-.5.771-2.2,1.989-1.95,4.544.717,7.295a9.39,9.39,0,0,1,1.164,1.311c-1.418,0-8.041-3.5-7.864-4.152.354-1.305,1.171-5.538,1.264-6.547a2.732,2.732,0,0,1,.23-1.153c.065.03,1.156.58,2.424,1.223m17.907-.858c.045.22.132.984.193,1.7a31.673,31.673,0,0,0,.7,3.683l.585,2.383-1,.631c-1.707,1.081-6.762,3.335-6.762,3.014a14.3,14.3,0,0,1,1.154-1.178c2.675-2.569,2.934-5.178.726-7.324l-.8-.779L58,56.9c.753-.342,1.847-.9,2.433-1.248,1.286-.757,1.3-.76,1.406-.259m-6,3.469c2.991,1.62,1.985,4.517-2.743,7.905l-1.451,1.04-1.372-1.03c-4.073-3.058-5.212-5.205-3.748-7.066a2.908,2.908,0,0,1,4.167-.478l1.028.691.8-.607a4.464,4.464,0,0,1,1.252-.707c.251-.055.536-.12.634-.146a3.232,3.232,0,0,1,1.439.4" transform="translate(0 0)" fill="#f80044" fill-rule="evenodd"/></g></g></svg>