<svg xmlns="http://www.w3.org/2000/svg" xmlns:xlink="http://www.w3.org/1999/xlink" width="70" height="70" viewBox="0 0 70 70"><defs><clipPath id="b"><rect width="70" height="70"/></clipPath></defs><g id="a" clip-path="url(#b)"><rect width="70" height="70" fill="#fff"/><g transform="translate(0 -5)"><path d="M108.3-113.019a.542.542,0,0,1-.669-.358.539.539,0,0,1,.459-.6.539.539,0,0,1,.669.356A.541.541,0,0,1,108.3-113.019Zm-4.993-8.845c.918.07,1.073.3,1.165.555s.026.445-.59,1.591c-.047.091.2.2.252.14,3.092-3.579,8.078-2,9.1-1.625,1.169.436.972,1.035.794,1.24a17.74,17.74,0,0,1-3.9,2.554c-.547.225-.733.191-1.071-.153a4.761,4.761,0,0,1-.641-1.529c-.039-.127.012-1.152,0-1.264s-.273-.133-.3-.026-.237.9-.283,1.025a.348.348,0,0,1-.338.213c-.132-.021-1.367-.41-1.453-.431s-.179.2-.112.254,1.322.852,1.578,1.016a1.776,1.776,0,0,1,.536,1.151.433.433,0,0,1-.351.51,7.164,7.164,0,0,1-1.9-.43c-.284-.11-.555-.818-.6-.941s-.322-.08-.328.065a3.574,3.574,0,0,1-.051.867c-.114.251-.584.446-1.334.541-.129.016-.11.354.026.356.651.01.848.29.9.476s0,.235-.346,1.1c-.068.165.242.259.3.188a3.321,3.321,0,0,1,3.078-1.321c.283.009.408.038.287.2a36.737,36.737,0,0,1-4.2,4.432.58.58,0,0,0-.092.752l.812,1.157a.2.2,0,0,0,.254.059,35.584,35.584,0,0,1,3.833-1.424c1.326,2.22,2.37,3.637,3.241,3.386s1.174-1.509,1.174-1.509a3.594,3.594,0,0,0,1.584,1.274c.09.032.13-.035.13-.108v-6.7H111.76a.391.391,0,0,1-.239-.071c-2.009-1.343-2.29-1.562-1.743-1.847.132-.059.26-.116.387-.174,3.343-1.524,5.239-2.962,5.239-3.984a6.444,6.444,0,0,0-2.357-3.943c-.069-.052-.252.172-.205.226s.821,1.126.608,1.476-1.548-.053-2.039-.332-1.056-1.439-1.362-1.908a3.51,3.51,0,0,0-.922-.9c-.067-.034-.22.158-.153.224.292.291,1.033,1.518.741,2.06a1.427,1.427,0,0,1-1.946.151,8.728,8.728,0,0,1-1.153-2.217c-.047-.113-.3-.015-.291.057.029.167.224,1.214-.258,1.531s-1.451-.1-1.974-.377c-.108-.057-.285.14-.212.2s1.113,1.027,1.113,1.253-.6.377-1.7.656c-.1.024-.073.27.013.278" transform="translate(-73.644 157.549)" fill="#fff"/><path d="M84-113.019a.542.542,0,0,1-.67-.358.539.539,0,0,1,.458-.6.541.541,0,0,1,.67.356A.542.542,0,0,1,84-113.019Zm-4.995-8.845c.919.07,1.073.3,1.166.555s.027.445-.589,1.591c-.048.091.2.2.252.14,3.092-3.579,8.078-2,9.1-1.625,1.171.436.973,1.035.794,1.24a17.722,17.722,0,0,1-3.9,2.554c-.549.225-.735.191-1.072-.153a4.77,4.77,0,0,1-.641-1.529c-.038-.127.012-1.152,0-1.264s-.272-.133-.3-.026-.236.9-.283,1.025a.347.347,0,0,1-.337.213c-.133-.021-1.368-.41-1.453-.431s-.179.2-.113.254,1.319.852,1.578,1.016a1.771,1.771,0,0,1,.535,1.151.43.43,0,0,1-.35.51,7.172,7.172,0,0,1-1.9-.43c-.284-.11-.554-.818-.6-.941s-.32-.08-.327.065a3.527,3.527,0,0,1-.053.867c-.113.251-.583.446-1.333.541-.128.016-.109.354.026.356.651.01.846.29.9.476s0,.235-.347,1.1c-.067.165.243.259.3.188a3.321,3.321,0,0,1,3.077-1.321c.284.009.409.038.288.2a36.849,36.849,0,0,1-4.2,4.432.581.581,0,0,0-.092.752l.813,1.157a.2.2,0,0,0,.252.059,35.672,35.672,0,0,1,3.833-1.424c1.327,2.22,2.371,3.637,3.244,3.386s1.172-1.509,1.172-1.509a3.586,3.586,0,0,0,1.583,1.274c.09.032.131-.035.131-.108v-6.7H87.464a.393.393,0,0,1-.239-.071c-2.009-1.343-2.289-1.562-1.743-1.847.13-.059.26-.116.386-.174,3.344-1.524,5.239-2.962,5.239-3.984a6.451,6.451,0,0,0-2.356-3.943c-.069-.052-.252.172-.206.226s.821,1.126.608,1.476-1.548-.053-2.038-.332-1.057-1.439-1.363-1.908a3.483,3.483,0,0,0-.922-.9c-.066-.034-.219.158-.152.224.29.291,1.034,1.518.742,2.06a1.429,1.429,0,0,1-1.949.151,8.74,8.74,0,0,1-1.152-2.217c-.046-.113-.3-.015-.29.057.029.167.225,1.214-.258,1.531s-1.451-.1-1.975-.377c-.108-.057-.284.14-.211.2S80.7-123.024,80.7-122.8s-.6.377-1.7.656c-.105.024-.073.27.012.278" transform="translate(-63.037 157.549)" fill="#fff"/><path d="M132.594-113.019a.541.541,0,0,1-.669-.358.54.54,0,0,1,.458-.6.539.539,0,0,1,.669.356A.54.54,0,0,1,132.594-113.019Zm-4.993-8.845c.92.07,1.073.3,1.168.555s.025.445-.591,1.591c-.048.091.2.2.251.14,3.092-3.579,8.079-2,9.1-1.625,1.173.436.971,1.035.794,1.24a17.77,17.77,0,0,1-3.9,2.554c-.551.225-.735.191-1.074-.153a4.726,4.726,0,0,1-.639-1.529c-.041-.127.01-1.152,0-1.264s-.27-.133-.3-.026-.235.9-.283,1.025a.346.346,0,0,1-.337.213c-.133-.021-1.366-.41-1.452-.431s-.179.2-.113.254,1.321.852,1.58,1.016a1.779,1.779,0,0,1,.533,1.151.429.429,0,0,1-.351.51,7.151,7.151,0,0,1-1.9-.43c-.285-.11-.556-.818-.6-.941s-.323-.08-.33.065a3.543,3.543,0,0,1-.05.867c-.115.251-.584.446-1.335.541-.129.016-.111.354.027.356.652.01.847.29.9.476s0,.235-.347,1.1c-.067.165.243.259.3.188a3.323,3.323,0,0,1,3.078-1.321c.285.009.409.038.288.2a36.665,36.665,0,0,1-4.2,4.432.58.58,0,0,0-.091.752c.04.06.765,1.09.812,1.157a.2.2,0,0,0,.252.059,35.568,35.568,0,0,1,3.833-1.424c1.327,2.22,2.372,3.637,3.243,3.386s1.173-1.509,1.173-1.509a3.584,3.584,0,0,0,1.583,1.274c.09.032.131-.035.131-.108v-6.7h-2.695a.384.384,0,0,1-.237-.071c-2.01-1.343-2.291-1.562-1.744-1.847.13-.059.259-.116.386-.174,3.344-1.524,5.238-2.962,5.238-3.984a6.448,6.448,0,0,0-2.357-3.943c-.068-.052-.251.172-.2.226s.821,1.126.609,1.476-1.551-.053-2.04-.332-1.057-1.439-1.364-1.908a3.487,3.487,0,0,0-.921-.9c-.065-.034-.219.158-.151.224.289.291,1.034,1.518.74,2.06a1.426,1.426,0,0,1-1.946.151,8.584,8.584,0,0,1-1.152-2.217c-.049-.113-.306-.015-.294.057.031.167.227,1.214-.256,1.531s-1.452-.1-1.975-.377c-.107-.057-.283.14-.211.2s1.113,1.027,1.113,1.253-.6.377-1.7.656c-.105.024-.073.27.012.278" transform="translate(-84.25 157.549)" fill="#fff"/><path d="M75.979-128.128c1.106-.279,1.7-.432,1.7-.656s-1.04-1.193-1.112-1.253.1-.255.211-.2c.524.278,1.491.7,1.975.377s.288-1.364.259-1.531c-.013-.072.244-.171.29-.057a8.74,8.74,0,0,0,1.152,2.217,1.429,1.429,0,0,0,1.949-.151c.292-.542-.452-1.769-.742-2.06-.066-.066.086-.258.152-.224a3.483,3.483,0,0,1,.922.9c.306.469.872,1.631,1.363,1.908s1.829.684,2.038.332-.562-1.424-.608-1.476.138-.278.206-.226a6.451,6.451,0,0,1,2.356,3.943c0,1.022-1.895,2.46-5.239,3.984-.127.058-.256.115-.386.174-.547.285-.266.5,1.743,1.847a.393.393,0,0,0,.239.071h2.694v6.7c0,.073-.04.14-.131.108a3.586,3.586,0,0,1-1.583-1.275s-.3,1.261-1.172,1.509-1.917-1.166-3.244-3.386a35.669,35.669,0,0,0-3.833,1.424.2.2,0,0,1-.252-.059l-.813-1.157a.581.581,0,0,1,.092-.752,36.847,36.847,0,0,0,4.2-4.432c.121-.163,0-.193-.288-.2a3.321,3.321,0,0,0-3.077,1.321c-.062.071-.372-.023-.3-.188.344-.863.4-.912.347-1.1s-.249-.466-.9-.476c-.135,0-.155-.34-.026-.356.75-.094,1.22-.289,1.333-.541a3.527,3.527,0,0,0,.053-.867c.007-.145.285-.19.327-.065s.314.831.6.941a7.172,7.172,0,0,0,1.9.43.43.43,0,0,0,.35-.51,1.771,1.771,0,0,0-.535-1.151c-.259-.164-1.511-.958-1.578-1.016s.026-.27.113-.254,1.32.41,1.453.431a.347.347,0,0,0,.337-.213c.047-.125.249-.919.283-1.025s.292-.087.3.026-.035,1.138,0,1.264a4.77,4.77,0,0,0,.641,1.529c.337.344.524.378,1.072.153a17.722,17.722,0,0,0,3.9-2.554c.179-.2.377-.8-.794-1.24-1.022-.38-6.007-1.955-9.1,1.625-.055.064-.3-.049-.252-.14.616-1.146.682-1.338.589-1.591s-.247-.485-1.166-.555c-.085-.008-.118-.254-.012-.278Zm13.689,0c1.106-.279,1.7-.432,1.7-.656s-1.04-1.193-1.113-1.253.1-.255.212-.2c.523.278,1.489.7,1.974.377s.288-1.364.259-1.531c-.014-.072.244-.171.291-.057a8.727,8.727,0,0,0,1.153,2.217,1.427,1.427,0,0,0,1.946-.151c.292-.542-.449-1.769-.741-2.06-.067-.066.086-.258.153-.224a3.51,3.51,0,0,1,.922.9c.305.469.872,1.631,1.362,1.908s1.828.684,2.039.332-.562-1.424-.608-1.476.136-.278.205-.226a6.444,6.444,0,0,1,2.357,3.943c0,1.022-1.9,2.46-5.239,3.984-.127.058-.254.115-.387.174-.546.285-.265.5,1.743,1.847a.391.391,0,0,0,.239.071h2.695v6.7c0,.073-.04.14-.13.108a3.594,3.594,0,0,1-1.584-1.275s-.3,1.261-1.174,1.509-1.916-1.166-3.241-3.386a35.582,35.582,0,0,0-3.833,1.424.2.2,0,0,1-.254-.059l-.812-1.157a.58.58,0,0,1,.092-.752,36.736,36.736,0,0,0,4.2-4.432c.121-.163,0-.193-.287-.2a3.321,3.321,0,0,0-3.078,1.321c-.061.071-.371-.023-.3-.188.342-.863.4-.912.346-1.1s-.25-.466-.9-.476c-.136,0-.154-.34-.026-.356.75-.094,1.22-.289,1.334-.541a3.575,3.575,0,0,0,.051-.867c.006-.145.285-.19.328-.065s.314.831.6.941a7.165,7.165,0,0,0,1.9.43.433.433,0,0,0,.351-.51,1.776,1.776,0,0,0-.536-1.151c-.257-.164-1.512-.958-1.578-1.016s.026-.27.112-.254,1.322.41,1.453.431a.348.348,0,0,0,.338-.213c.046-.125.249-.919.283-1.025s.291-.087.3.026-.036,1.138,0,1.264a4.76,4.76,0,0,0,.641,1.529c.338.344.524.378,1.071.153a17.74,17.74,0,0,0,3.9-2.554c.178-.2.375-.8-.794-1.24-1.022-.38-6.008-1.955-9.1,1.625-.056.064-.3-.049-.252-.14.616-1.146.683-1.338.59-1.591s-.247-.485-1.165-.555c-.086-.008-.118-.254-.013-.278Zm13.69,0c1.106-.279,1.7-.432,1.7-.656s-1.041-1.193-1.113-1.253.1-.255.211-.2c.523.278,1.491.7,1.975.377s.288-1.364.256-1.531c-.012-.072.245-.171.294-.057a8.584,8.584,0,0,0,1.152,2.217,1.426,1.426,0,0,0,1.946-.151c.294-.542-.451-1.769-.74-2.06-.068-.066.086-.258.151-.224a3.486,3.486,0,0,1,.921.9c.307.469.874,1.631,1.364,1.908s1.829.684,2.04.332-.563-1.424-.609-1.476.136-.278.2-.226a6.448,6.448,0,0,1,2.357,3.943c0,1.022-1.895,2.46-5.238,3.984-.127.058-.256.115-.386.174-.548.285-.267.5,1.744,1.847a.384.384,0,0,0,.237.071h2.695v6.7c0,.073-.041.14-.131.108a3.583,3.583,0,0,1-1.583-1.275s-.3,1.261-1.173,1.509-1.916-1.166-3.243-3.386a35.565,35.565,0,0,0-3.833,1.424.2.2,0,0,1-.252-.059c-.047-.067-.772-1.1-.812-1.157a.58.58,0,0,1,.091-.752,36.665,36.665,0,0,0,4.2-4.432c.121-.163,0-.193-.288-.2a3.323,3.323,0,0,0-3.078,1.321c-.06.071-.37-.023-.3-.188.344-.863.4-.912.347-1.1s-.249-.466-.9-.476c-.137,0-.155-.34-.027-.356.751-.094,1.22-.289,1.335-.541a3.542,3.542,0,0,0,.05-.867c.007-.145.286-.19.33-.065s.313.831.6.941a7.151,7.151,0,0,0,1.9.43.429.429,0,0,0,.351-.51,1.779,1.779,0,0,0-.533-1.151c-.258-.164-1.513-.958-1.58-1.016s.027-.27.113-.254,1.319.41,1.452.431a.346.346,0,0,0,.337-.213c.048-.125.249-.919.283-1.025s.292-.087.3.026-.038,1.138,0,1.264a4.726,4.726,0,0,0,.639,1.529c.339.344.524.378,1.074.153a17.771,17.771,0,0,0,3.9-2.554c.177-.2.379-.8-.794-1.24-1.021-.38-6.008-1.955-9.1,1.625-.055.064-.3-.049-.251-.14.616-1.146.683-1.338.591-1.591s-.248-.485-1.168-.555c-.085-.008-.117-.254-.012-.278ZM72.021-103.534h46.9v-35.86h-46.9v35.86" transform="translate(-60.021 163.534)" fill="#231f20"/><path d="M87.194-104.924a.539.539,0,0,0-.458.6.542.542,0,0,0,.67.358.542.542,0,0,0,.458-.606.541.541,0,0,0-.67-.356" transform="translate(-66.44 148.493)" fill="#231f20"/><path d="M111.491-104.924a.539.539,0,0,0-.459.6.542.542,0,0,0,.669.358.541.541,0,0,0,.458-.606.539.539,0,0,0-.669-.356" transform="translate(-77.047 148.493)" fill="#231f20"/><path d="M135.788-104.924a.54.54,0,0,0-.458.6.541.541,0,0,0,.669.358.54.54,0,0,0,.458-.606.539.539,0,0,0-.669-.356" transform="translate(-87.655 148.493)" fill="#231f20"/><path d="M118.917-154.252,95.5-164.49,72.021-154.22v1.774h46.9v-1.806" transform="translate(-60.021 174.49)" fill="#231f20"/></g></g></svg>