<svg xmlns="http://www.w3.org/2000/svg" xmlns:xlink="http://www.w3.org/1999/xlink" width="70" height="70" viewBox="0 0 70 70"><defs><clipPath id="b"><rect width="70" height="70"/></clipPath></defs><g id="a" clip-path="url(#b)"><rect width="70" height="70" fill="#fff"/><path d="M27.92,53.345c-.285.6-.365,15.461-.088,16.39a5.463,5.463,0,0,0,1.991,2.538,30.035,30.035,0,0,0,5.627.366c7.953.175,7.878.1,8.035,7.807.119,5.827.158,5.99,1.764,7.289l.812.657,7.487.061c4.118.033,7.487-.008,7.487-.093,0-.671-5.751-5.551-9.337-7.921l-2.432-1.609c-1.151-.766,4.41,1.905,5.826,2.8a48.682,48.682,0,0,1,6.842,5.03c1.405,1.231,1.437,1.246,1.956.907.757-.5.666-.857-.607-2.427-3.906-4.816-10.177-9.213-17.685-12.4-9.427-4-14.01-9.118-16.61-18.549-.339-1.228-.739-1.545-1.069-.846m14.085,5a22.6,22.6,0,0,0,2.062,1.4C53.819,65.975,60.98,74.2,63.818,82.418c.725,2.1.869,1.9,1.124-1.579.648-8.822,2.826-16.111,5.847-19.573,1.5-1.717.362-1.246-1.548.641A26.9,26.9,0,0,0,63.43,71.952c-.705,2.059-.6,2.019-1.6.63a42.821,42.821,0,0,0-14-12.2c-2.619-1.317-5.815-2.437-5.815-2.038" transform="translate(-19.661 -27.198)" fill="#4fa845" fill-rule="evenodd"/><path d="M45.917,35.46c-2.138,1.179-2.431,2.074-2.433,7.41,0,4.927-.12,5.688-1.055,6.749-.8.9-.732,1.069.545,1.4A26.551,26.551,0,0,1,54.192,56.8a26.164,26.164,0,0,1,3.883,4.334.6.6,0,0,0,.29.45,17.21,17.21,0,0,1,2.692,4.45c1.112,2.338,1.15,2.337,1.937-.042,1.22-3.687,3.782-7.378,6.2-8.937a59.893,59.893,0,0,0,6.818-5.239l.709-.635-4.2-.107c-4.736-.121-5.4-.306-6.564-1.83l-.594-.778L65.3,43.382c-.081-5.925-.346-6.794-2.4-7.87-.735-.384-16.29-.432-16.979-.052M63.5,48.767c.809.255,2.61,2.123,2.61,2.707a.721.721,0,0,0,.22.555c.691.427-.121,3.521-1.22,4.653-3.7,3.8-10.039-.412-7.992-5.312.357-.856,1.58-2.233,1.84-2.073.1.059.175.019.175-.09,0-.218.867-.6,1.692-.746a6.626,6.626,0,0,1,2.676.305M81.254,53.11c.55,4.045-.154,8.324-1.821,11.071-.106.175-.4.7-.646,1.163a11.723,11.723,0,0,1-2.324,3.066.241.241,0,0,0-.2.265,10.322,10.322,0,0,1-1.8,1.937,16.165,16.165,0,0,0-1.8,1.821,57.189,57.189,0,0,0,7.344-.126,4.732,4.732,0,0,0,2.308-2.142c.562-1.344.395-16.246-.193-17.279-.758-1.331-1.069-1.251-.869.224" transform="translate(-19.661 -27.198)" fill="#3f69a9" fill-rule="evenodd"/></g></svg>