<svg xmlns="http://www.w3.org/2000/svg" xmlns:xlink="http://www.w3.org/1999/xlink" width="70" height="70" viewBox="0 0 70 70"><defs><clipPath id="b"><rect width="70" height="70"/></clipPath></defs><g id="a" clip-path="url(#b)"><rect width="70" height="70" fill="#fff"/><g transform="translate(-60 -207.27)"><g transform="translate(70 227.27)"><path d="M80.506,243.069a16.58,16.58,0,0,1,11.56-15.8H70l10.7,18.347a16.908,16.908,0,0,1-.2-2.547Z" transform="translate(-70 -227.27)" fill="#03c"/><path d="M133.283,324a14.234,14.234,0,0,1-8.5-2.8l8.5,14.574,8.5-14.574a14.228,14.228,0,0,1-8.5,2.8Z" transform="translate(-108.285 -292.916)" fill="#093"/><path d="M158.194,227.28H138.522c-11.2,0-13.872,8.705-13.872,12.791a12.717,12.717,0,0,0,1.081,5.149c.105.214.211.425.316.629a8.141,8.141,0,0,0,6.811,4.216h0l0,0h0c.114.006.226.009.343.009s.208,0,.31-.009a6.038,6.038,0,0,0-.3-12.069c.108-.1.223-.2.337-.3a8.547,8.547,0,0,1,13.96,7.913l10.69-18.332Z" transform="translate(-108.194 -227.277)" fill="#093"/></g></g></g></svg>