<svg xmlns="http://www.w3.org/2000/svg" xmlns:xlink="http://www.w3.org/1999/xlink" width="70" height="70" viewBox="0 0 70 70"><defs><clipPath id="b"><rect width="70" height="70"/></clipPath></defs><g id="a" clip-path="url(#b)"><rect width="70" height="70" fill="#fff"/><g transform="translate(-214.09 -3.756)"><path d="M222,24.538h27.974C243.463,11.455,227.651,14.288,222,24.538Z" transform="translate(-0.909)" fill="#009ade"/><path d="M228.6,64.7c.866,1.224,1.794,2.427,2.791,3.589h22.756a14.952,14.952,0,0,1-1.719,3.541H234.739q1.856,1.808,4,3.554h11.172a14.142,14.142,0,0,1-4,3.437H243.25c2.654,1.9,5.569,3.795,8.8,5.734,10.924-6.531,18.377-12.629,23.478-19.868Z" transform="translate(-2.972 -15.292)" fill="#009ade"/><path d="M279.073,31.647c-.825-15.544-22.137-22.852-30-7.109a15.429,15.429,0,0,1,1.794,3.534H219.661a17.188,17.188,0,0,0-.571,3.575Z" transform="translate(0 -0.001)" fill="#009ade"/><path d="M279.158,38.87H252.284a13.612,13.612,0,0,1,.763,3.527H219.36a21.117,21.117,0,0,0,.832,3.582h33.233c.041.584.1,1.169.1,1.767s.041,1.182,0,1.767h-31.9c.564,1.231,1.189,2.42,1.849,3.582h29.644a16.689,16.689,0,0,1-.687,3.527h20.247a45.421,45.421,0,0,0,4.812-8.814A20.424,20.424,0,0,0,279.158,38.87Z" transform="translate(-0.084 -7.223)" fill="#76bc21"/></g></g></svg>