<svg xmlns="http://www.w3.org/2000/svg" viewBox="0 0 48.1 62" width="48.1" height="62">
    <path d="M45.5 29.7c-1-2.7-2.4-5.1-4.2-7.1-1.8-2-4-3.6-6.5-4.8-2.5-1.2-5.3-1.7-8.4-1.7-2 0-3.8.2-5.3.6-1.5.4-2.9.9-4.1 1.6-1.2.7-2.2 1.4-3 2.1-.8.7-1.5 1.5-2 2.2h-.3V1H1v58.9h10.1v-6.4h.2c1.5 2.6 3.6 4.5 6.2 5.7C20.1 60.4 23 61 26 61c3.3 0 6.2-.6 8.8-1.7 2.6-1.2 4.8-2.7 6.7-4.8 1.8-2 3.2-4.4 4.2-7.1.9-2.7 1.4-5.7 1.4-8.8-.1-3.2-.6-6.1-1.6-8.9zm-10 13.7c-.6 1.5-1.4 2.9-2.5 4.1-1.1 1.2-2.4 2.1-4 2.9-1.5.7-3.3 1.1-5.2 1.1-2 0-3.7-.4-5.2-1.1-1.5-.7-2.9-1.7-4-2.9s-1.9-2.6-2.5-4.1c-.6-1.5-.8-3.1-.8-4.8 0-1.7.3-3.3.8-4.8.6-1.5 1.4-2.9 2.5-4.1 1.1-1.2 2.4-2.1 4-2.9 1.5-.7 3.3-1.1 5.2-1.1 2 0 3.7.4 5.2 1.1 1.5.7 2.9 1.7 4 2.9s1.9 2.6 2.5 4.1c.6 1.5.8 3.1.8 4.8.1"/>
</svg>