<svg id="Lager_1" xmlns="http://www.w3.org/2000/svg" width="1200" height="475.2" viewBox="294 160.9 1200 475.2"><style>.st0{opacity:.24;fill:#fff;enable-background:new}</style><path class="st0" d="M433 336.1c0-82.1 53.9-151.6 128.2-175.2H316.5l118.7 203.4c-1.5-9.2-2.2-18.6-2.2-28.2zm160.7 169.5c-35.3 0-67.9-11.6-94.3-31.1l94.3 161.6L688 474.5c-26.4 19.5-59 31.1-94.3 31.1z"/><path class="st0" d="M870.9 160.9H652.8c-124.2 0-153.9 96.5-153.9 141.8 0 20.3 4.3 39.6 12 57.1 1.2 2.4 2.4 4.7 3.5 7 14.8 26.9 42.9 45.4 75.5 46.7 1.3.1 2.5.1 3.8.1 1.2 0 2.3 0 3.4-.1 35.4-1.8 63.5-31 63.5-66.9 0-36.9-29.9-66.9-66.8-67 1.2-1.1 2.5-2.2 3.7-3.3 16.5-14 37.9-22.5 61.3-22.5 52.3 0 94.8 42.4 94.8 94.8 0 5.3-.4 10.4-1.3 15.4l118.6-203.1z"/></svg>