<svg aria-hidden="true" role="img" xmlns="http://www.w3.org/2000/svg" viewBox="0 0 1048 931">
<g
     transform="matrix(0.1,0,0,-0.09605769,-0.10764708,1229.3587)"
     style="fill:#e87600;fill-opacity:1;stroke:none">
    <path
       d="m 2820,12789 c -698,-79 -1295,-600 -1465,-1279 -39,-159 -49,-246 -49,-430 1,-312 67,-567 216,-831 122,-216 302,-418 492,-553 l 98,-70 -6,-55 c -22,-175 -26,-245 -26,-426 0,-110 4,-245 10,-300 64,-627 303,-1193 706,-1674 l 82,-98 -26,-16 c -15,-8 -69,-47 -121,-85 l -94,-70 -50,30 c -203,120 -416,194 -658,228 -126,19 -436,8 -559,-19 C 820,7020 382,6669 152,6164 -5,5821 -41,5423 51,5055 197,4471 634,4007 1209,3829 c 51,-16 102,-29 112,-29 11,0 20,-9 23,-23 2,-12 14,-74 27,-137 12,-63 24,-127 27,-142 3,-21 -8,-41 -51,-95 -206,-256 -312,-558 -324,-923 -12,-378 63,-703 248,-1071 233,-461 623,-866 1066,-1107 651,-354 1347,-357 1851,-10 149,103 317,286 407,441 22,39 32,47 49,43 69,-16 349,-28 588,-24 l 270,5 15,-26 c 171,-282 342,-445 602,-576 656,-329 1559,-119 2215,515 277,268 480,567 618,910 182,451 207,959 67,1356 -34,98 -110,252 -161,327 l -33,49 37,148 c 20,82 44,190 53,242 8,51 17,107 20,124 5,31 6,32 88,44 326,46 649,201 901,432 540,494 706,1289 409,1953 -236,527 -708,896 -1272,996 -155,28 -401,30 -556,5 -271,-44 -511,-144 -742,-310 -51,-36 -94,-66 -97,-66 -3,0 -43,28 -88,63 -46,35 -104,78 -131,96 l -47,32 56,67 c 397,473 628,984 715,1580 27,186 35,469 19,657 -11,139 -11,150 5,160 91,53 236,157 305,219 497,440 695,1127 510,1763 -249,854 -1129,1379 -2000,1191 -370,-79 -688,-269 -951,-567 l -56,-63 -144,35 c -460,113 -935,118 -1383,15 l -90,-21 -40,49 c -301,364 -697,582 -1151,634 -104,11 -267,11 -375,-1 z"
       style="fill:#e87600;fill-opacity:1"/>
  </g>
  <rect
     style="fill:#ffffff;fill-opacity:1;stroke:none;stroke-width:7.06079721;stroke-miterlimit:4;stroke-dasharray:none;stroke-opacity:1"
     width="112.43242"
     height="655.8559"
     x="684.49756"
     y="-840.25269"
     transform="rotate(90)" />
  <rect
     style="fill:#ffffff;fill-opacity:1;stroke:none;stroke-width:7.06079721;stroke-miterlimit:4;stroke-dasharray:none;stroke-opacity:1"
     width="112.43241"
     height="655.85583"
     x="-568.54089"
     y="-1068.6417"
     transform="scale(-1)" />
</svg>